<svg xmlns="http://www.w3.org/2000/svg" xmlns:xlink="http://www.w3.org/1999/xlink" width="1080" zoomAndPan="magnify" viewBox="0 0 810 74.999997" height="100" preserveAspectRatio="xMidYMid meet" version="1.0"><defs><clipPath id="id1"><path d="M 0 20 L 1 20 L 1 22.5 L 0 22.5 Z M 0 20 " clip-rule="nonzero"/></clipPath><clipPath id="id2"><path d="M 4 20 L 8 20 L 8 22.5 L 4 22.5 Z M 4 20 " clip-rule="nonzero"/></clipPath><clipPath id="id3"><path d="M 11 20 L 15 20 L 15 22.5 L 11 22.5 Z M 11 20 " clip-rule="nonzero"/></clipPath><clipPath id="id4"><path d="M 18 20 L 22 20 L 22 22.5 L 18 22.5 Z M 18 20 " clip-rule="nonzero"/></clipPath><clipPath id="id5"><path d="M 68 0 L 70.96875 0 L 70.96875 2 L 68 2 Z M 68 0 " clip-rule="nonzero"/></clipPath><clipPath id="id6"><path d="M 68 5 L 70.96875 5 L 70.96875 9 L 68 9 Z M 68 5 " clip-rule="nonzero"/></clipPath><clipPath id="id7"><path d="M 68 12 L 70.96875 12 L 70.96875 16 L 68 16 Z M 68 12 " clip-rule="nonzero"/></clipPath><clipPath id="id8"><path d="M 26 20 L 29 20 L 29 22.5 L 26 22.5 Z M 26 20 " clip-rule="nonzero"/></clipPath><clipPath id="id9"><path d="M 33 20 L 36 20 L 36 22.5 L 33 22.5 Z M 33 20 " clip-rule="nonzero"/></clipPath><clipPath id="id10"><path d="M 40 20 L 43 20 L 43 22.5 L 40 22.5 Z M 40 20 " clip-rule="nonzero"/></clipPath><clipPath id="id11"><path d="M 47 20 L 50 20 L 50 22.5 L 47 22.5 Z M 47 20 " clip-rule="nonzero"/></clipPath><clipPath id="id12"><path d="M 54 20 L 57 20 L 57 22.5 L 54 22.5 Z M 54 20 " clip-rule="nonzero"/></clipPath><clipPath id="id13"><path d="M 61 20 L 64 20 L 64 22.5 L 61 22.5 Z M 61 20 " clip-rule="nonzero"/></clipPath><clipPath id="id14"><path d="M 68 20 L 70.96875 20 L 70.96875 22.5 L 68 22.5 Z M 68 20 " clip-rule="nonzero"/></clipPath><clipPath id="id15"><path d="M 700.21875 0 L 703 0 L 703 2 L 700.21875 2 Z M 700.21875 0 " clip-rule="nonzero"/></clipPath><clipPath id="id16"><path d="M 700.21875 5 L 703 5 L 703 9 L 700.21875 9 Z M 700.21875 5 " clip-rule="nonzero"/></clipPath><clipPath id="id17"><path d="M 700.21875 12 L 703 12 L 703 16 L 700.21875 16 Z M 700.21875 12 " clip-rule="nonzero"/></clipPath><clipPath id="id18"><path d="M 700.21875 20 L 703 20 L 703 22.5 L 700.21875 22.5 Z M 700.21875 20 " clip-rule="nonzero"/></clipPath><clipPath id="id19"><path d="M 707 20 L 710 20 L 710 22.5 L 707 22.5 Z M 707 20 " clip-rule="nonzero"/></clipPath><clipPath id="id20"><path d="M 714 20 L 717 20 L 717 22.5 L 714 22.5 Z M 714 20 " clip-rule="nonzero"/></clipPath><clipPath id="id21"><path d="M 721 20 L 724 20 L 724 22.5 L 721 22.5 Z M 721 20 " clip-rule="nonzero"/></clipPath><clipPath id="id22"><path d="M 728 20 L 732 20 L 732 22.5 L 728 22.5 Z M 728 20 " clip-rule="nonzero"/></clipPath><clipPath id="id23"><path d="M 735 20 L 739 20 L 739 22.5 L 735 22.5 Z M 735 20 " clip-rule="nonzero"/></clipPath><clipPath id="id24"><path d="M 742 20 L 746 20 L 746 22.5 L 742 22.5 Z M 742 20 " clip-rule="nonzero"/></clipPath><clipPath id="id25"><path d="M 792 0 L 794.71875 0 L 794.71875 2 L 792 2 Z M 792 0 " clip-rule="nonzero"/></clipPath><clipPath id="id26"><path d="M 792 5 L 794.71875 5 L 794.71875 9 L 792 9 Z M 792 5 " clip-rule="nonzero"/></clipPath><clipPath id="id27"><path d="M 792 12 L 794.71875 12 L 794.71875 16 L 792 16 Z M 792 12 " clip-rule="nonzero"/></clipPath><clipPath id="id28"><path d="M 749 20 L 753 20 L 753 22.5 L 749 22.5 Z M 749 20 " clip-rule="nonzero"/></clipPath><clipPath id="id29"><path d="M 756 20 L 760 20 L 760 22.5 L 756 22.5 Z M 756 20 " clip-rule="nonzero"/></clipPath><clipPath id="id30"><path d="M 763 20 L 767 20 L 767 22.5 L 763 22.5 Z M 763 20 " clip-rule="nonzero"/></clipPath><clipPath id="id31"><path d="M 770 20 L 774 20 L 774 22.5 L 770 22.5 Z M 770 20 " clip-rule="nonzero"/></clipPath><clipPath id="id32"><path d="M 778 20 L 781 20 L 781 22.5 L 778 22.5 Z M 778 20 " clip-rule="nonzero"/></clipPath><clipPath id="id33"><path d="M 785 20 L 788 20 L 788 22.5 L 785 22.5 Z M 785 20 " clip-rule="nonzero"/></clipPath><clipPath id="id34"><path d="M 792 20 L 794.71875 20 L 794.71875 22.5 L 792 22.5 Z M 792 20 " clip-rule="nonzero"/></clipPath><clipPath id="id35"><path d="M 442.128906 0 L 445 0 L 445 2 L 442.128906 2 Z M 442.128906 0 " clip-rule="nonzero"/></clipPath><clipPath id="id36"><path d="M 442.128906 6 L 445 6 L 445 9 L 442.128906 9 Z M 442.128906 6 " clip-rule="nonzero"/></clipPath><clipPath id="id37"><path d="M 442.128906 13 L 445 13 L 445 16 L 442.128906 16 Z M 442.128906 13 " clip-rule="nonzero"/></clipPath><clipPath id="id38"><path d="M 442.128906 20 L 445 20 L 445 23 L 442.128906 23 Z M 442.128906 20 " clip-rule="nonzero"/></clipPath><clipPath id="id39"><path d="M 442.128906 27 L 445 27 L 445 30 L 442.128906 30 Z M 442.128906 27 " clip-rule="nonzero"/></clipPath><clipPath id="id40"><path d="M 534 0 L 536.628906 0 L 536.628906 2 L 534 2 Z M 534 0 " clip-rule="nonzero"/></clipPath><clipPath id="id41"><path d="M 534 6 L 536.628906 6 L 536.628906 9 L 534 9 Z M 534 6 " clip-rule="nonzero"/></clipPath><clipPath id="id42"><path d="M 534 13 L 536.628906 13 L 536.628906 16 L 534 16 Z M 534 13 " clip-rule="nonzero"/></clipPath><clipPath id="id43"><path d="M 534 20 L 536.628906 20 L 536.628906 23 L 534 23 Z M 534 20 " clip-rule="nonzero"/></clipPath><clipPath id="id44"><path d="M 534 27 L 536.628906 27 L 536.628906 30 L 534 30 Z M 534 27 " clip-rule="nonzero"/></clipPath><clipPath id="id45"><path d="M 199.726562 0 L 203 0 L 203 2 L 199.726562 2 Z M 199.726562 0 " clip-rule="nonzero"/></clipPath><clipPath id="id46"><path d="M 199.726562 6 L 203 6 L 203 9 L 199.726562 9 Z M 199.726562 6 " clip-rule="nonzero"/></clipPath><clipPath id="id47"><path d="M 199.726562 13 L 203 13 L 203 16 L 199.726562 16 Z M 199.726562 13 " clip-rule="nonzero"/></clipPath><clipPath id="id48"><path d="M 199.726562 20 L 203 20 L 203 23 L 199.726562 23 Z M 199.726562 20 " clip-rule="nonzero"/></clipPath><clipPath id="id49"><path d="M 199.726562 27 L 203 27 L 203 30 L 199.726562 30 Z M 199.726562 27 " clip-rule="nonzero"/></clipPath><clipPath id="id50"><path d="M 291 0 L 294.226562 0 L 294.226562 2 L 291 2 Z M 291 0 " clip-rule="nonzero"/></clipPath><clipPath id="id51"><path d="M 291 6 L 294.226562 6 L 294.226562 9 L 291 9 Z M 291 6 " clip-rule="nonzero"/></clipPath><clipPath id="id52"><path d="M 291 13 L 294.226562 13 L 294.226562 16 L 291 16 Z M 291 13 " clip-rule="nonzero"/></clipPath><clipPath id="id53"><path d="M 291 20 L 294.226562 20 L 294.226562 23 L 291 23 Z M 291 20 " clip-rule="nonzero"/></clipPath><clipPath id="id54"><path d="M 291 27 L 294.226562 27 L 294.226562 30 L 291 30 Z M 291 27 " clip-rule="nonzero"/></clipPath></defs><path fill="#000000" d="M -1.039062 -1.269531 C -1.722656 -1.269531 -2.28125 -0.710938 -2.28125 -0.0234375 C -2.28125 0.664062 -1.722656 1.222656 -1.039062 1.222656 C -0.351562 1.222656 0.207031 0.664062 0.207031 -0.0234375 C 0.207031 -0.710938 -0.351562 -1.269531 -1.039062 -1.269531 " fill-opacity="1" fill-rule="nonzero"/><path fill="#000000" d="M 6.039062 -1.269531 C 5.351562 -1.269531 4.796875 -0.710938 4.796875 -0.0234375 C 4.796875 0.664062 5.351562 1.222656 6.039062 1.222656 C 6.722656 1.222656 7.28125 0.664062 7.28125 -0.0234375 C 7.28125 -0.710938 6.722656 -1.269531 6.039062 -1.269531 " fill-opacity="1" fill-rule="nonzero"/><path fill="#000000" d="M 13.113281 -1.269531 C 12.429688 -1.269531 11.871094 -0.710938 11.871094 -0.0234375 C 11.871094 0.664062 12.429688 1.222656 13.113281 1.222656 C 13.800781 1.222656 14.355469 0.664062 14.355469 -0.0234375 C 14.355469 -0.710938 13.800781 -1.269531 13.113281 -1.269531 " fill-opacity="1" fill-rule="nonzero"/><path fill="#000000" d="M 20.1875 -1.269531 C 19.503906 -1.269531 18.945312 -0.710938 18.945312 -0.0234375 C 18.945312 0.664062 19.503906 1.222656 20.1875 1.222656 C 20.875 1.222656 21.433594 0.664062 21.433594 -0.0234375 C 21.433594 -0.710938 20.875 -1.269531 20.1875 -1.269531 " fill-opacity="1" fill-rule="nonzero"/><path fill="#000000" d="M -1.039062 5.824219 C -1.722656 5.824219 -2.28125 6.382812 -2.28125 7.070312 C -2.28125 7.757812 -1.722656 8.316406 -1.039062 8.316406 C -0.351562 8.316406 0.207031 7.757812 0.207031 7.070312 C 0.207031 6.382812 -0.351562 5.824219 -1.039062 5.824219 " fill-opacity="1" fill-rule="nonzero"/><path fill="#000000" d="M 6.039062 5.824219 C 5.351562 5.824219 4.796875 6.382812 4.796875 7.070312 C 4.796875 7.757812 5.351562 8.316406 6.039062 8.316406 C 6.722656 8.316406 7.28125 7.757812 7.28125 7.070312 C 7.28125 6.382812 6.722656 5.824219 6.039062 5.824219 " fill-opacity="1" fill-rule="nonzero"/><path fill="#000000" d="M 13.113281 5.824219 C 12.429688 5.824219 11.871094 6.382812 11.871094 7.070312 C 11.871094 7.757812 12.429688 8.316406 13.113281 8.316406 C 13.800781 8.316406 14.355469 7.757812 14.355469 7.070312 C 14.355469 6.382812 13.800781 5.824219 13.113281 5.824219 " fill-opacity="1" fill-rule="nonzero"/><path fill="#000000" d="M 20.1875 5.824219 C 19.503906 5.824219 18.945312 6.382812 18.945312 7.070312 C 18.945312 7.757812 19.503906 8.316406 20.1875 8.316406 C 20.875 8.316406 21.433594 7.757812 21.433594 7.070312 C 21.433594 6.382812 20.875 5.824219 20.1875 5.824219 " fill-opacity="1" fill-rule="nonzero"/><path fill="#000000" d="M -1.039062 12.871094 C -1.722656 12.871094 -2.28125 13.429688 -2.28125 14.117188 C -2.28125 14.804688 -1.722656 15.363281 -1.039062 15.363281 C -0.351562 15.363281 0.207031 14.804688 0.207031 14.117188 C 0.207031 13.429688 -0.351562 12.871094 -1.039062 12.871094 " fill-opacity="1" fill-rule="nonzero"/><path fill="#000000" d="M 6.039062 12.871094 C 5.351562 12.871094 4.796875 13.429688 4.796875 14.117188 C 4.796875 14.804688 5.351562 15.363281 6.039062 15.363281 C 6.722656 15.363281 7.28125 14.804688 7.28125 14.117188 C 7.28125 13.429688 6.722656 12.871094 6.039062 12.871094 " fill-opacity="1" fill-rule="nonzero"/><path fill="#000000" d="M 13.113281 12.871094 C 12.429688 12.871094 11.871094 13.429688 11.871094 14.117188 C 11.871094 14.804688 12.429688 15.363281 13.113281 15.363281 C 13.800781 15.363281 14.355469 14.804688 14.355469 14.117188 C 14.355469 13.429688 13.800781 12.871094 13.113281 12.871094 " fill-opacity="1" fill-rule="nonzero"/><path fill="#000000" d="M 20.1875 12.871094 C 19.503906 12.871094 18.945312 13.429688 18.945312 14.117188 C 18.945312 14.804688 19.503906 15.363281 20.1875 15.363281 C 20.875 15.363281 21.433594 14.804688 21.433594 14.117188 C 21.433594 13.429688 20.875 12.871094 20.1875 12.871094 " fill-opacity="1" fill-rule="nonzero"/><g clip-path="url(#id1)"><path fill="#000000" d="M -1.039062 20.007812 C -1.722656 20.007812 -2.28125 20.566406 -2.28125 21.253906 C -2.28125 21.941406 -1.722656 22.5 -1.039062 22.5 C -0.351562 22.5 0.207031 21.941406 0.207031 21.253906 C 0.207031 20.566406 -0.351562 20.007812 -1.039062 20.007812 " fill-opacity="1" fill-rule="nonzero"/></g><g clip-path="url(#id2)"><path fill="#000000" d="M 6.039062 20.007812 C 5.351562 20.007812 4.796875 20.566406 4.796875 21.253906 C 4.796875 21.941406 5.351562 22.5 6.039062 22.5 C 6.722656 22.5 7.28125 21.941406 7.28125 21.253906 C 7.28125 20.566406 6.722656 20.007812 6.039062 20.007812 " fill-opacity="1" fill-rule="nonzero"/></g><g clip-path="url(#id3)"><path fill="#000000" d="M 13.113281 20.007812 C 12.429688 20.007812 11.871094 20.566406 11.871094 21.253906 C 11.871094 21.941406 12.429688 22.5 13.113281 22.5 C 13.800781 22.5 14.355469 21.941406 14.355469 21.253906 C 14.355469 20.566406 13.800781 20.007812 13.113281 20.007812 " fill-opacity="1" fill-rule="nonzero"/></g><g clip-path="url(#id4)"><path fill="#000000" d="M 20.1875 20.007812 C 19.503906 20.007812 18.945312 20.566406 18.945312 21.253906 C 18.945312 21.941406 19.503906 22.5 20.1875 22.5 C 20.875 22.5 21.433594 21.941406 21.433594 21.253906 C 21.433594 20.566406 20.875 20.007812 20.1875 20.007812 " fill-opacity="1" fill-rule="nonzero"/></g><path fill="#000000" d="M 27.261719 -1.269531 C 26.578125 -1.269531 26.019531 -0.710938 26.019531 -0.0234375 C 26.019531 0.664062 26.578125 1.222656 27.261719 1.222656 C 27.949219 1.222656 28.503906 0.664062 28.503906 -0.0234375 C 28.503906 -0.710938 27.949219 -1.269531 27.261719 -1.269531 " fill-opacity="1" fill-rule="nonzero"/><path fill="#000000" d="M 34.339844 -1.269531 C 33.652344 -1.269531 33.09375 -0.710938 33.09375 -0.0234375 C 33.09375 0.664062 33.652344 1.222656 34.339844 1.222656 C 35.023438 1.222656 35.582031 0.664062 35.582031 -0.0234375 C 35.582031 -0.710938 35.023438 -1.269531 34.339844 -1.269531 " fill-opacity="1" fill-rule="nonzero"/><path fill="#000000" d="M 41.414062 -1.269531 C 40.726562 -1.269531 40.171875 -0.710938 40.171875 -0.0234375 C 40.171875 0.664062 40.726562 1.222656 41.414062 1.222656 C 42.097656 1.222656 42.65625 0.664062 42.65625 -0.0234375 C 42.65625 -0.710938 42.097656 -1.269531 41.414062 -1.269531 " fill-opacity="1" fill-rule="nonzero"/><path fill="#000000" d="M 48.488281 -1.269531 C 47.804688 -1.269531 47.246094 -0.710938 47.246094 -0.0234375 C 47.246094 0.664062 47.804688 1.222656 48.488281 1.222656 C 49.175781 1.222656 49.730469 0.664062 49.730469 -0.0234375 C 49.730469 -0.710938 49.175781 -1.269531 48.488281 -1.269531 " fill-opacity="1" fill-rule="nonzero"/><path fill="#000000" d="M 55.566406 -1.269531 C 54.878906 -1.269531 54.320312 -0.710938 54.320312 -0.0234375 C 54.320312 0.664062 54.878906 1.222656 55.566406 1.222656 C 56.25 1.222656 56.808594 0.664062 56.808594 -0.0234375 C 56.808594 -0.710938 56.25 -1.269531 55.566406 -1.269531 " fill-opacity="1" fill-rule="nonzero"/><path fill="#000000" d="M 62.640625 -1.269531 C 61.957031 -1.269531 61.398438 -0.710938 61.398438 -0.0234375 C 61.398438 0.664062 61.957031 1.222656 62.640625 1.222656 C 63.324219 1.222656 63.882812 0.664062 63.882812 -0.0234375 C 63.882812 -0.710938 63.324219 -1.269531 62.640625 -1.269531 " fill-opacity="1" fill-rule="nonzero"/><g clip-path="url(#id5)"><path fill="#000000" d="M 69.714844 -1.269531 C 69.03125 -1.269531 68.472656 -0.710938 68.472656 -0.0234375 C 68.472656 0.664062 69.03125 1.222656 69.714844 1.222656 C 70.402344 1.222656 70.960938 0.664062 70.960938 -0.0234375 C 70.960938 -0.710938 70.402344 -1.269531 69.714844 -1.269531 " fill-opacity="1" fill-rule="nonzero"/></g><path fill="#000000" d="M 27.261719 5.824219 C 26.578125 5.824219 26.019531 6.382812 26.019531 7.070312 C 26.019531 7.757812 26.578125 8.316406 27.261719 8.316406 C 27.949219 8.316406 28.503906 7.757812 28.503906 7.070312 C 28.503906 6.382812 27.949219 5.824219 27.261719 5.824219 " fill-opacity="1" fill-rule="nonzero"/><path fill="#000000" d="M 34.339844 5.824219 C 33.652344 5.824219 33.09375 6.382812 33.09375 7.070312 C 33.09375 7.757812 33.652344 8.316406 34.339844 8.316406 C 35.023438 8.316406 35.582031 7.757812 35.582031 7.070312 C 35.582031 6.382812 35.023438 5.824219 34.339844 5.824219 " fill-opacity="1" fill-rule="nonzero"/><path fill="#000000" d="M 41.414062 5.824219 C 40.726562 5.824219 40.171875 6.382812 40.171875 7.070312 C 40.171875 7.757812 40.726562 8.316406 41.414062 8.316406 C 42.097656 8.316406 42.65625 7.757812 42.65625 7.070312 C 42.65625 6.382812 42.097656 5.824219 41.414062 5.824219 " fill-opacity="1" fill-rule="nonzero"/><path fill="#000000" d="M 48.488281 5.824219 C 47.804688 5.824219 47.246094 6.382812 47.246094 7.070312 C 47.246094 7.757812 47.804688 8.316406 48.488281 8.316406 C 49.175781 8.316406 49.730469 7.757812 49.730469 7.070312 C 49.730469 6.382812 49.175781 5.824219 48.488281 5.824219 " fill-opacity="1" fill-rule="nonzero"/><path fill="#000000" d="M 55.566406 5.824219 C 54.878906 5.824219 54.320312 6.382812 54.320312 7.070312 C 54.320312 7.757812 54.878906 8.316406 55.566406 8.316406 C 56.25 8.316406 56.808594 7.757812 56.808594 7.070312 C 56.808594 6.382812 56.25 5.824219 55.566406 5.824219 " fill-opacity="1" fill-rule="nonzero"/><path fill="#000000" d="M 62.640625 5.824219 C 61.957031 5.824219 61.398438 6.382812 61.398438 7.070312 C 61.398438 7.757812 61.957031 8.316406 62.640625 8.316406 C 63.324219 8.316406 63.882812 7.757812 63.882812 7.070312 C 63.882812 6.382812 63.324219 5.824219 62.640625 5.824219 " fill-opacity="1" fill-rule="nonzero"/><g clip-path="url(#id6)"><path fill="#000000" d="M 69.714844 5.824219 C 69.03125 5.824219 68.472656 6.382812 68.472656 7.070312 C 68.472656 7.757812 69.03125 8.316406 69.714844 8.316406 C 70.402344 8.316406 70.960938 7.757812 70.960938 7.070312 C 70.960938 6.382812 70.402344 5.824219 69.714844 5.824219 " fill-opacity="1" fill-rule="nonzero"/></g><path fill="#000000" d="M 27.261719 12.871094 C 26.578125 12.871094 26.019531 13.429688 26.019531 14.117188 C 26.019531 14.804688 26.578125 15.363281 27.261719 15.363281 C 27.949219 15.363281 28.503906 14.804688 28.503906 14.117188 C 28.503906 13.429688 27.949219 12.871094 27.261719 12.871094 " fill-opacity="1" fill-rule="nonzero"/><path fill="#000000" d="M 34.339844 12.871094 C 33.652344 12.871094 33.09375 13.429688 33.09375 14.117188 C 33.09375 14.804688 33.652344 15.363281 34.339844 15.363281 C 35.023438 15.363281 35.582031 14.804688 35.582031 14.117188 C 35.582031 13.429688 35.023438 12.871094 34.339844 12.871094 " fill-opacity="1" fill-rule="nonzero"/><path fill="#000000" d="M 41.414062 12.871094 C 40.726562 12.871094 40.171875 13.429688 40.171875 14.117188 C 40.171875 14.804688 40.726562 15.363281 41.414062 15.363281 C 42.097656 15.363281 42.65625 14.804688 42.65625 14.117188 C 42.65625 13.429688 42.097656 12.871094 41.414062 12.871094 " fill-opacity="1" fill-rule="nonzero"/><path fill="#000000" d="M 48.488281 12.871094 C 47.804688 12.871094 47.246094 13.429688 47.246094 14.117188 C 47.246094 14.804688 47.804688 15.363281 48.488281 15.363281 C 49.175781 15.363281 49.730469 14.804688 49.730469 14.117188 C 49.730469 13.429688 49.175781 12.871094 48.488281 12.871094 " fill-opacity="1" fill-rule="nonzero"/><path fill="#000000" d="M 55.566406 12.871094 C 54.878906 12.871094 54.320312 13.429688 54.320312 14.117188 C 54.320312 14.804688 54.878906 15.363281 55.566406 15.363281 C 56.25 15.363281 56.808594 14.804688 56.808594 14.117188 C 56.808594 13.429688 56.25 12.871094 55.566406 12.871094 " fill-opacity="1" fill-rule="nonzero"/><path fill="#000000" d="M 62.640625 12.871094 C 61.957031 12.871094 61.398438 13.429688 61.398438 14.117188 C 61.398438 14.804688 61.957031 15.363281 62.640625 15.363281 C 63.324219 15.363281 63.882812 14.804688 63.882812 14.117188 C 63.882812 13.429688 63.324219 12.871094 62.640625 12.871094 " fill-opacity="1" fill-rule="nonzero"/><g clip-path="url(#id7)"><path fill="#000000" d="M 69.714844 12.871094 C 69.03125 12.871094 68.472656 13.429688 68.472656 14.117188 C 68.472656 14.804688 69.03125 15.363281 69.714844 15.363281 C 70.402344 15.363281 70.960938 14.804688 70.960938 14.117188 C 70.960938 13.429688 70.402344 12.871094 69.714844 12.871094 " fill-opacity="1" fill-rule="nonzero"/></g><g clip-path="url(#id8)"><path fill="#000000" d="M 27.261719 20.007812 C 26.578125 20.007812 26.019531 20.566406 26.019531 21.253906 C 26.019531 21.941406 26.578125 22.5 27.261719 22.5 C 27.949219 22.5 28.503906 21.941406 28.503906 21.253906 C 28.503906 20.566406 27.949219 20.007812 27.261719 20.007812 " fill-opacity="1" fill-rule="nonzero"/></g><g clip-path="url(#id9)"><path fill="#000000" d="M 34.339844 20.007812 C 33.652344 20.007812 33.09375 20.566406 33.09375 21.253906 C 33.09375 21.941406 33.652344 22.5 34.339844 22.5 C 35.023438 22.5 35.582031 21.941406 35.582031 21.253906 C 35.582031 20.566406 35.023438 20.007812 34.339844 20.007812 " fill-opacity="1" fill-rule="nonzero"/></g><g clip-path="url(#id10)"><path fill="#000000" d="M 41.414062 20.007812 C 40.726562 20.007812 40.171875 20.566406 40.171875 21.253906 C 40.171875 21.941406 40.726562 22.5 41.414062 22.5 C 42.097656 22.5 42.65625 21.941406 42.65625 21.253906 C 42.65625 20.566406 42.097656 20.007812 41.414062 20.007812 " fill-opacity="1" fill-rule="nonzero"/></g><g clip-path="url(#id11)"><path fill="#000000" d="M 48.488281 20.007812 C 47.804688 20.007812 47.246094 20.566406 47.246094 21.253906 C 47.246094 21.941406 47.804688 22.5 48.488281 22.5 C 49.175781 22.5 49.730469 21.941406 49.730469 21.253906 C 49.730469 20.566406 49.175781 20.007812 48.488281 20.007812 " fill-opacity="1" fill-rule="nonzero"/></g><g clip-path="url(#id12)"><path fill="#000000" d="M 55.566406 20.007812 C 54.878906 20.007812 54.320312 20.566406 54.320312 21.253906 C 54.320312 21.941406 54.878906 22.5 55.566406 22.5 C 56.25 22.5 56.808594 21.941406 56.808594 21.253906 C 56.808594 20.566406 56.25 20.007812 55.566406 20.007812 " fill-opacity="1" fill-rule="nonzero"/></g><g clip-path="url(#id13)"><path fill="#000000" d="M 62.640625 20.007812 C 61.957031 20.007812 61.398438 20.566406 61.398438 21.253906 C 61.398438 21.941406 61.957031 22.5 62.640625 22.5 C 63.324219 22.5 63.882812 21.941406 63.882812 21.253906 C 63.882812 20.566406 63.324219 20.007812 62.640625 20.007812 " fill-opacity="1" fill-rule="nonzero"/></g><g clip-path="url(#id14)"><path fill="#000000" d="M 69.714844 20.007812 C 69.03125 20.007812 68.472656 20.566406 68.472656 21.253906 C 68.472656 21.941406 69.03125 22.5 69.714844 22.5 C 70.402344 22.5 70.960938 21.941406 70.960938 21.253906 C 70.960938 20.566406 70.402344 20.007812 69.714844 20.007812 " fill-opacity="1" fill-rule="nonzero"/></g><g clip-path="url(#id15)"><path fill="#000000" d="M 701.484375 -1.269531 C 700.800781 -1.269531 700.242188 -0.710938 700.242188 -0.0234375 C 700.242188 0.664062 700.800781 1.222656 701.484375 1.222656 C 702.171875 1.222656 702.726562 0.664062 702.726562 -0.0234375 C 702.726562 -0.710938 702.171875 -1.269531 701.484375 -1.269531 " fill-opacity="1" fill-rule="nonzero"/></g><path fill="#000000" d="M 708.5625 -1.269531 C 707.875 -1.269531 707.316406 -0.710938 707.316406 -0.0234375 C 707.316406 0.664062 707.875 1.222656 708.5625 1.222656 C 709.246094 1.222656 709.804688 0.664062 709.804688 -0.0234375 C 709.804688 -0.710938 709.246094 -1.269531 708.5625 -1.269531 " fill-opacity="1" fill-rule="nonzero"/><path fill="#000000" d="M 715.636719 -1.269531 C 714.953125 -1.269531 714.394531 -0.710938 714.394531 -0.0234375 C 714.394531 0.664062 714.953125 1.222656 715.636719 1.222656 C 716.320312 1.222656 716.878906 0.664062 716.878906 -0.0234375 C 716.878906 -0.710938 716.320312 -1.269531 715.636719 -1.269531 " fill-opacity="1" fill-rule="nonzero"/><path fill="#000000" d="M 722.710938 -1.269531 C 722.027344 -1.269531 721.46875 -0.710938 721.46875 -0.0234375 C 721.46875 0.664062 722.027344 1.222656 722.710938 1.222656 C 723.398438 1.222656 723.957031 0.664062 723.957031 -0.0234375 C 723.957031 -0.710938 723.398438 -1.269531 722.710938 -1.269531 " fill-opacity="1" fill-rule="nonzero"/><path fill="#000000" d="M 729.789062 -1.269531 C 729.101562 -1.269531 728.546875 -0.710938 728.546875 -0.0234375 C 728.546875 0.664062 729.101562 1.222656 729.789062 1.222656 C 730.472656 1.222656 731.03125 0.664062 731.03125 -0.0234375 C 731.03125 -0.710938 730.472656 -1.269531 729.789062 -1.269531 " fill-opacity="1" fill-rule="nonzero"/><path fill="#000000" d="M 736.863281 -1.269531 C 736.179688 -1.269531 735.621094 -0.710938 735.621094 -0.0234375 C 735.621094 0.664062 736.179688 1.222656 736.863281 1.222656 C 737.550781 1.222656 738.105469 0.664062 738.105469 -0.0234375 C 738.105469 -0.710938 737.550781 -1.269531 736.863281 -1.269531 " fill-opacity="1" fill-rule="nonzero"/><path fill="#000000" d="M 743.9375 -1.269531 C 743.253906 -1.269531 742.695312 -0.710938 742.695312 -0.0234375 C 742.695312 0.664062 743.253906 1.222656 743.9375 1.222656 C 744.625 1.222656 745.183594 0.664062 745.183594 -0.0234375 C 745.183594 -0.710938 744.625 -1.269531 743.9375 -1.269531 " fill-opacity="1" fill-rule="nonzero"/><g clip-path="url(#id16)"><path fill="#000000" d="M 701.484375 5.824219 C 700.800781 5.824219 700.242188 6.382812 700.242188 7.070312 C 700.242188 7.757812 700.800781 8.316406 701.484375 8.316406 C 702.171875 8.316406 702.726562 7.757812 702.726562 7.070312 C 702.726562 6.382812 702.171875 5.824219 701.484375 5.824219 " fill-opacity="1" fill-rule="nonzero"/></g><path fill="#000000" d="M 708.5625 5.824219 C 707.875 5.824219 707.316406 6.382812 707.316406 7.070312 C 707.316406 7.757812 707.875 8.316406 708.5625 8.316406 C 709.246094 8.316406 709.804688 7.757812 709.804688 7.070312 C 709.804688 6.382812 709.246094 5.824219 708.5625 5.824219 " fill-opacity="1" fill-rule="nonzero"/><path fill="#000000" d="M 715.636719 5.824219 C 714.953125 5.824219 714.394531 6.382812 714.394531 7.070312 C 714.394531 7.757812 714.953125 8.316406 715.636719 8.316406 C 716.320312 8.316406 716.878906 7.757812 716.878906 7.070312 C 716.878906 6.382812 716.320312 5.824219 715.636719 5.824219 " fill-opacity="1" fill-rule="nonzero"/><path fill="#000000" d="M 722.710938 5.824219 C 722.027344 5.824219 721.46875 6.382812 721.46875 7.070312 C 721.46875 7.757812 722.027344 8.316406 722.710938 8.316406 C 723.398438 8.316406 723.957031 7.757812 723.957031 7.070312 C 723.957031 6.382812 723.398438 5.824219 722.710938 5.824219 " fill-opacity="1" fill-rule="nonzero"/><path fill="#000000" d="M 729.789062 5.824219 C 729.101562 5.824219 728.546875 6.382812 728.546875 7.070312 C 728.546875 7.757812 729.101562 8.316406 729.789062 8.316406 C 730.472656 8.316406 731.03125 7.757812 731.03125 7.070312 C 731.03125 6.382812 730.472656 5.824219 729.789062 5.824219 " fill-opacity="1" fill-rule="nonzero"/><path fill="#000000" d="M 736.863281 5.824219 C 736.179688 5.824219 735.621094 6.382812 735.621094 7.070312 C 735.621094 7.757812 736.179688 8.316406 736.863281 8.316406 C 737.550781 8.316406 738.105469 7.757812 738.105469 7.070312 C 738.105469 6.382812 737.550781 5.824219 736.863281 5.824219 " fill-opacity="1" fill-rule="nonzero"/><path fill="#000000" d="M 743.9375 5.824219 C 743.253906 5.824219 742.695312 6.382812 742.695312 7.070312 C 742.695312 7.757812 743.253906 8.316406 743.9375 8.316406 C 744.625 8.316406 745.183594 7.757812 745.183594 7.070312 C 745.183594 6.382812 744.625 5.824219 743.9375 5.824219 " fill-opacity="1" fill-rule="nonzero"/><g clip-path="url(#id17)"><path fill="#000000" d="M 701.484375 12.871094 C 700.800781 12.871094 700.242188 13.429688 700.242188 14.117188 C 700.242188 14.804688 700.800781 15.363281 701.484375 15.363281 C 702.171875 15.363281 702.726562 14.804688 702.726562 14.117188 C 702.726562 13.429688 702.171875 12.871094 701.484375 12.871094 " fill-opacity="1" fill-rule="nonzero"/></g><path fill="#000000" d="M 708.5625 12.871094 C 707.875 12.871094 707.316406 13.429688 707.316406 14.117188 C 707.316406 14.804688 707.875 15.363281 708.5625 15.363281 C 709.246094 15.363281 709.804688 14.804688 709.804688 14.117188 C 709.804688 13.429688 709.246094 12.871094 708.5625 12.871094 " fill-opacity="1" fill-rule="nonzero"/><path fill="#000000" d="M 715.636719 12.871094 C 714.953125 12.871094 714.394531 13.429688 714.394531 14.117188 C 714.394531 14.804688 714.953125 15.363281 715.636719 15.363281 C 716.320312 15.363281 716.878906 14.804688 716.878906 14.117188 C 716.878906 13.429688 716.320312 12.871094 715.636719 12.871094 " fill-opacity="1" fill-rule="nonzero"/><path fill="#000000" d="M 722.710938 12.871094 C 722.027344 12.871094 721.46875 13.429688 721.46875 14.117188 C 721.46875 14.804688 722.027344 15.363281 722.710938 15.363281 C 723.398438 15.363281 723.957031 14.804688 723.957031 14.117188 C 723.957031 13.429688 723.398438 12.871094 722.710938 12.871094 " fill-opacity="1" fill-rule="nonzero"/><path fill="#000000" d="M 729.789062 12.871094 C 729.101562 12.871094 728.546875 13.429688 728.546875 14.117188 C 728.546875 14.804688 729.101562 15.363281 729.789062 15.363281 C 730.472656 15.363281 731.03125 14.804688 731.03125 14.117188 C 731.03125 13.429688 730.472656 12.871094 729.789062 12.871094 " fill-opacity="1" fill-rule="nonzero"/><path fill="#000000" d="M 736.863281 12.871094 C 736.179688 12.871094 735.621094 13.429688 735.621094 14.117188 C 735.621094 14.804688 736.179688 15.363281 736.863281 15.363281 C 737.550781 15.363281 738.105469 14.804688 738.105469 14.117188 C 738.105469 13.429688 737.550781 12.871094 736.863281 12.871094 " fill-opacity="1" fill-rule="nonzero"/><path fill="#000000" d="M 743.9375 12.871094 C 743.253906 12.871094 742.695312 13.429688 742.695312 14.117188 C 742.695312 14.804688 743.253906 15.363281 743.9375 15.363281 C 744.625 15.363281 745.183594 14.804688 745.183594 14.117188 C 745.183594 13.429688 744.625 12.871094 743.9375 12.871094 " fill-opacity="1" fill-rule="nonzero"/><g clip-path="url(#id18)"><path fill="#000000" d="M 701.484375 20.007812 C 700.800781 20.007812 700.242188 20.566406 700.242188 21.253906 C 700.242188 21.941406 700.800781 22.5 701.484375 22.5 C 702.171875 22.5 702.726562 21.941406 702.726562 21.253906 C 702.726562 20.566406 702.171875 20.007812 701.484375 20.007812 " fill-opacity="1" fill-rule="nonzero"/></g><g clip-path="url(#id19)"><path fill="#000000" d="M 708.5625 20.007812 C 707.875 20.007812 707.316406 20.566406 707.316406 21.253906 C 707.316406 21.941406 707.875 22.5 708.5625 22.5 C 709.246094 22.5 709.804688 21.941406 709.804688 21.253906 C 709.804688 20.566406 709.246094 20.007812 708.5625 20.007812 " fill-opacity="1" fill-rule="nonzero"/></g><g clip-path="url(#id20)"><path fill="#000000" d="M 715.636719 20.007812 C 714.953125 20.007812 714.394531 20.566406 714.394531 21.253906 C 714.394531 21.941406 714.953125 22.5 715.636719 22.5 C 716.320312 22.5 716.878906 21.941406 716.878906 21.253906 C 716.878906 20.566406 716.320312 20.007812 715.636719 20.007812 " fill-opacity="1" fill-rule="nonzero"/></g><g clip-path="url(#id21)"><path fill="#000000" d="M 722.710938 20.007812 C 722.027344 20.007812 721.46875 20.566406 721.46875 21.253906 C 721.46875 21.941406 722.027344 22.5 722.710938 22.5 C 723.398438 22.5 723.957031 21.941406 723.957031 21.253906 C 723.957031 20.566406 723.398438 20.007812 722.710938 20.007812 " fill-opacity="1" fill-rule="nonzero"/></g><g clip-path="url(#id22)"><path fill="#000000" d="M 729.789062 20.007812 C 729.101562 20.007812 728.546875 20.566406 728.546875 21.253906 C 728.546875 21.941406 729.101562 22.5 729.789062 22.5 C 730.472656 22.5 731.03125 21.941406 731.03125 21.253906 C 731.03125 20.566406 730.472656 20.007812 729.789062 20.007812 " fill-opacity="1" fill-rule="nonzero"/></g><g clip-path="url(#id23)"><path fill="#000000" d="M 736.863281 20.007812 C 736.179688 20.007812 735.621094 20.566406 735.621094 21.253906 C 735.621094 21.941406 736.179688 22.5 736.863281 22.5 C 737.550781 22.5 738.105469 21.941406 738.105469 21.253906 C 738.105469 20.566406 737.550781 20.007812 736.863281 20.007812 " fill-opacity="1" fill-rule="nonzero"/></g><g clip-path="url(#id24)"><path fill="#000000" d="M 743.9375 20.007812 C 743.253906 20.007812 742.695312 20.566406 742.695312 21.253906 C 742.695312 21.941406 743.253906 22.5 743.9375 22.5 C 744.625 22.5 745.183594 21.941406 745.183594 21.253906 C 745.183594 20.566406 744.625 20.007812 743.9375 20.007812 " fill-opacity="1" fill-rule="nonzero"/></g><path fill="#000000" d="M 751.011719 -1.269531 C 750.328125 -1.269531 749.769531 -0.710938 749.769531 -0.0234375 C 749.769531 0.664062 750.328125 1.222656 751.011719 1.222656 C 751.699219 1.222656 752.253906 0.664062 752.253906 -0.0234375 C 752.253906 -0.710938 751.699219 -1.269531 751.011719 -1.269531 " fill-opacity="1" fill-rule="nonzero"/><path fill="#000000" d="M 758.089844 -1.269531 C 757.402344 -1.269531 756.84375 -0.710938 756.84375 -0.0234375 C 756.84375 0.664062 757.402344 1.222656 758.089844 1.222656 C 758.773438 1.222656 759.332031 0.664062 759.332031 -0.0234375 C 759.332031 -0.710938 758.773438 -1.269531 758.089844 -1.269531 " fill-opacity="1" fill-rule="nonzero"/><path fill="#000000" d="M 765.164062 -1.269531 C 764.476562 -1.269531 763.921875 -0.710938 763.921875 -0.0234375 C 763.921875 0.664062 764.476562 1.222656 765.164062 1.222656 C 765.847656 1.222656 766.40625 0.664062 766.40625 -0.0234375 C 766.40625 -0.710938 765.847656 -1.269531 765.164062 -1.269531 " fill-opacity="1" fill-rule="nonzero"/><path fill="#000000" d="M 772.238281 -1.269531 C 771.554688 -1.269531 770.996094 -0.710938 770.996094 -0.0234375 C 770.996094 0.664062 771.554688 1.222656 772.238281 1.222656 C 772.925781 1.222656 773.480469 0.664062 773.480469 -0.0234375 C 773.480469 -0.710938 772.925781 -1.269531 772.238281 -1.269531 " fill-opacity="1" fill-rule="nonzero"/><path fill="#000000" d="M 779.316406 -1.269531 C 778.628906 -1.269531 778.070312 -0.710938 778.070312 -0.0234375 C 778.070312 0.664062 778.628906 1.222656 779.316406 1.222656 C 780 1.222656 780.558594 0.664062 780.558594 -0.0234375 C 780.558594 -0.710938 780 -1.269531 779.316406 -1.269531 " fill-opacity="1" fill-rule="nonzero"/><path fill="#000000" d="M 786.390625 -1.269531 C 785.707031 -1.269531 785.148438 -0.710938 785.148438 -0.0234375 C 785.148438 0.664062 785.707031 1.222656 786.390625 1.222656 C 787.074219 1.222656 787.632812 0.664062 787.632812 -0.0234375 C 787.632812 -0.710938 787.074219 -1.269531 786.390625 -1.269531 " fill-opacity="1" fill-rule="nonzero"/><g clip-path="url(#id25)"><path fill="#000000" d="M 793.464844 -1.269531 C 792.78125 -1.269531 792.222656 -0.710938 792.222656 -0.0234375 C 792.222656 0.664062 792.78125 1.222656 793.464844 1.222656 C 794.152344 1.222656 794.710938 0.664062 794.710938 -0.0234375 C 794.710938 -0.710938 794.152344 -1.269531 793.464844 -1.269531 " fill-opacity="1" fill-rule="nonzero"/></g><path fill="#000000" d="M 751.011719 5.824219 C 750.328125 5.824219 749.769531 6.382812 749.769531 7.070312 C 749.769531 7.757812 750.328125 8.316406 751.011719 8.316406 C 751.699219 8.316406 752.253906 7.757812 752.253906 7.070312 C 752.253906 6.382812 751.699219 5.824219 751.011719 5.824219 " fill-opacity="1" fill-rule="nonzero"/><path fill="#000000" d="M 758.089844 5.824219 C 757.402344 5.824219 756.84375 6.382812 756.84375 7.070312 C 756.84375 7.757812 757.402344 8.316406 758.089844 8.316406 C 758.773438 8.316406 759.332031 7.757812 759.332031 7.070312 C 759.332031 6.382812 758.773438 5.824219 758.089844 5.824219 " fill-opacity="1" fill-rule="nonzero"/><path fill="#000000" d="M 765.164062 5.824219 C 764.476562 5.824219 763.921875 6.382812 763.921875 7.070312 C 763.921875 7.757812 764.476562 8.316406 765.164062 8.316406 C 765.847656 8.316406 766.40625 7.757812 766.40625 7.070312 C 766.40625 6.382812 765.847656 5.824219 765.164062 5.824219 " fill-opacity="1" fill-rule="nonzero"/><path fill="#000000" d="M 772.238281 5.824219 C 771.554688 5.824219 770.996094 6.382812 770.996094 7.070312 C 770.996094 7.757812 771.554688 8.316406 772.238281 8.316406 C 772.925781 8.316406 773.480469 7.757812 773.480469 7.070312 C 773.480469 6.382812 772.925781 5.824219 772.238281 5.824219 " fill-opacity="1" fill-rule="nonzero"/><path fill="#000000" d="M 779.316406 5.824219 C 778.628906 5.824219 778.070312 6.382812 778.070312 7.070312 C 778.070312 7.757812 778.628906 8.316406 779.316406 8.316406 C 780 8.316406 780.558594 7.757812 780.558594 7.070312 C 780.558594 6.382812 780 5.824219 779.316406 5.824219 " fill-opacity="1" fill-rule="nonzero"/><path fill="#000000" d="M 786.390625 5.824219 C 785.707031 5.824219 785.148438 6.382812 785.148438 7.070312 C 785.148438 7.757812 785.707031 8.316406 786.390625 8.316406 C 787.074219 8.316406 787.632812 7.757812 787.632812 7.070312 C 787.632812 6.382812 787.074219 5.824219 786.390625 5.824219 " fill-opacity="1" fill-rule="nonzero"/><g clip-path="url(#id26)"><path fill="#000000" d="M 793.464844 5.824219 C 792.78125 5.824219 792.222656 6.382812 792.222656 7.070312 C 792.222656 7.757812 792.78125 8.316406 793.464844 8.316406 C 794.152344 8.316406 794.710938 7.757812 794.710938 7.070312 C 794.710938 6.382812 794.152344 5.824219 793.464844 5.824219 " fill-opacity="1" fill-rule="nonzero"/></g><path fill="#000000" d="M 751.011719 12.871094 C 750.328125 12.871094 749.769531 13.429688 749.769531 14.117188 C 749.769531 14.804688 750.328125 15.363281 751.011719 15.363281 C 751.699219 15.363281 752.253906 14.804688 752.253906 14.117188 C 752.253906 13.429688 751.699219 12.871094 751.011719 12.871094 " fill-opacity="1" fill-rule="nonzero"/><path fill="#000000" d="M 758.089844 12.871094 C 757.402344 12.871094 756.84375 13.429688 756.84375 14.117188 C 756.84375 14.804688 757.402344 15.363281 758.089844 15.363281 C 758.773438 15.363281 759.332031 14.804688 759.332031 14.117188 C 759.332031 13.429688 758.773438 12.871094 758.089844 12.871094 " fill-opacity="1" fill-rule="nonzero"/><path fill="#000000" d="M 765.164062 12.871094 C 764.476562 12.871094 763.921875 13.429688 763.921875 14.117188 C 763.921875 14.804688 764.476562 15.363281 765.164062 15.363281 C 765.847656 15.363281 766.40625 14.804688 766.40625 14.117188 C 766.40625 13.429688 765.847656 12.871094 765.164062 12.871094 " fill-opacity="1" fill-rule="nonzero"/><path fill="#000000" d="M 772.238281 12.871094 C 771.554688 12.871094 770.996094 13.429688 770.996094 14.117188 C 770.996094 14.804688 771.554688 15.363281 772.238281 15.363281 C 772.925781 15.363281 773.480469 14.804688 773.480469 14.117188 C 773.480469 13.429688 772.925781 12.871094 772.238281 12.871094 " fill-opacity="1" fill-rule="nonzero"/><path fill="#000000" d="M 779.316406 12.871094 C 778.628906 12.871094 778.070312 13.429688 778.070312 14.117188 C 778.070312 14.804688 778.628906 15.363281 779.316406 15.363281 C 780 15.363281 780.558594 14.804688 780.558594 14.117188 C 780.558594 13.429688 780 12.871094 779.316406 12.871094 " fill-opacity="1" fill-rule="nonzero"/><path fill="#000000" d="M 786.390625 12.871094 C 785.707031 12.871094 785.148438 13.429688 785.148438 14.117188 C 785.148438 14.804688 785.707031 15.363281 786.390625 15.363281 C 787.074219 15.363281 787.632812 14.804688 787.632812 14.117188 C 787.632812 13.429688 787.074219 12.871094 786.390625 12.871094 " fill-opacity="1" fill-rule="nonzero"/><g clip-path="url(#id27)"><path fill="#000000" d="M 793.464844 12.871094 C 792.78125 12.871094 792.222656 13.429688 792.222656 14.117188 C 792.222656 14.804688 792.78125 15.363281 793.464844 15.363281 C 794.152344 15.363281 794.710938 14.804688 794.710938 14.117188 C 794.710938 13.429688 794.152344 12.871094 793.464844 12.871094 " fill-opacity="1" fill-rule="nonzero"/></g><g clip-path="url(#id28)"><path fill="#000000" d="M 751.011719 20.007812 C 750.328125 20.007812 749.769531 20.566406 749.769531 21.253906 C 749.769531 21.941406 750.328125 22.5 751.011719 22.5 C 751.699219 22.5 752.253906 21.941406 752.253906 21.253906 C 752.253906 20.566406 751.699219 20.007812 751.011719 20.007812 " fill-opacity="1" fill-rule="nonzero"/></g><g clip-path="url(#id29)"><path fill="#000000" d="M 758.089844 20.007812 C 757.402344 20.007812 756.84375 20.566406 756.84375 21.253906 C 756.84375 21.941406 757.402344 22.5 758.089844 22.5 C 758.773438 22.5 759.332031 21.941406 759.332031 21.253906 C 759.332031 20.566406 758.773438 20.007812 758.089844 20.007812 " fill-opacity="1" fill-rule="nonzero"/></g><g clip-path="url(#id30)"><path fill="#000000" d="M 765.164062 20.007812 C 764.476562 20.007812 763.921875 20.566406 763.921875 21.253906 C 763.921875 21.941406 764.476562 22.5 765.164062 22.5 C 765.847656 22.5 766.40625 21.941406 766.40625 21.253906 C 766.40625 20.566406 765.847656 20.007812 765.164062 20.007812 " fill-opacity="1" fill-rule="nonzero"/></g><g clip-path="url(#id31)"><path fill="#000000" d="M 772.238281 20.007812 C 771.554688 20.007812 770.996094 20.566406 770.996094 21.253906 C 770.996094 21.941406 771.554688 22.5 772.238281 22.5 C 772.925781 22.5 773.480469 21.941406 773.480469 21.253906 C 773.480469 20.566406 772.925781 20.007812 772.238281 20.007812 " fill-opacity="1" fill-rule="nonzero"/></g><g clip-path="url(#id32)"><path fill="#000000" d="M 779.316406 20.007812 C 778.628906 20.007812 778.070312 20.566406 778.070312 21.253906 C 778.070312 21.941406 778.628906 22.5 779.316406 22.5 C 780 22.5 780.558594 21.941406 780.558594 21.253906 C 780.558594 20.566406 780 20.007812 779.316406 20.007812 " fill-opacity="1" fill-rule="nonzero"/></g><g clip-path="url(#id33)"><path fill="#000000" d="M 786.390625 20.007812 C 785.707031 20.007812 785.148438 20.566406 785.148438 21.253906 C 785.148438 21.941406 785.707031 22.5 786.390625 22.5 C 787.074219 22.5 787.632812 21.941406 787.632812 21.253906 C 787.632812 20.566406 787.074219 20.007812 786.390625 20.007812 " fill-opacity="1" fill-rule="nonzero"/></g><g clip-path="url(#id34)"><path fill="#000000" d="M 793.464844 20.007812 C 792.78125 20.007812 792.222656 20.566406 792.222656 21.253906 C 792.222656 21.941406 792.78125 22.5 793.464844 22.5 C 794.152344 22.5 794.710938 21.941406 794.710938 21.253906 C 794.710938 20.566406 794.152344 20.007812 793.464844 20.007812 " fill-opacity="1" fill-rule="nonzero"/></g><g clip-path="url(#id35)"><path fill="#000000" d="M 443.394531 -0.859375 C 442.710938 -0.859375 442.152344 -0.300781 442.152344 0.382812 C 442.152344 1.070312 442.710938 1.628906 443.394531 1.628906 C 444.082031 1.628906 444.636719 1.070312 444.636719 0.382812 C 444.636719 -0.300781 444.082031 -0.859375 443.394531 -0.859375 " fill-opacity="1" fill-rule="nonzero"/></g><path fill="#000000" d="M 450.472656 -0.859375 C 449.785156 -0.859375 449.226562 -0.300781 449.226562 0.382812 C 449.226562 1.070312 449.785156 1.628906 450.472656 1.628906 C 451.15625 1.628906 451.714844 1.070312 451.714844 0.382812 C 451.714844 -0.300781 451.15625 -0.859375 450.472656 -0.859375 " fill-opacity="1" fill-rule="nonzero"/><path fill="#000000" d="M 457.546875 -0.859375 C 456.863281 -0.859375 456.304688 -0.300781 456.304688 0.382812 C 456.304688 1.070312 456.863281 1.628906 457.546875 1.628906 C 458.230469 1.628906 458.789062 1.070312 458.789062 0.382812 C 458.789062 -0.300781 458.230469 -0.859375 457.546875 -0.859375 " fill-opacity="1" fill-rule="nonzero"/><path fill="#000000" d="M 464.621094 -0.859375 C 463.9375 -0.859375 463.378906 -0.300781 463.378906 0.382812 C 463.378906 1.070312 463.9375 1.628906 464.621094 1.628906 C 465.308594 1.628906 465.867188 1.070312 465.867188 0.382812 C 465.867188 -0.300781 465.308594 -0.859375 464.621094 -0.859375 " fill-opacity="1" fill-rule="nonzero"/><path fill="#000000" d="M 471.699219 -0.859375 C 471.011719 -0.859375 470.457031 -0.300781 470.457031 0.382812 C 470.457031 1.070312 471.011719 1.628906 471.699219 1.628906 C 472.382812 1.628906 472.941406 1.070312 472.941406 0.382812 C 472.941406 -0.300781 472.382812 -0.859375 471.699219 -0.859375 " fill-opacity="1" fill-rule="nonzero"/><path fill="#000000" d="M 478.773438 -0.859375 C 478.089844 -0.859375 477.53125 -0.300781 477.53125 0.382812 C 477.53125 1.070312 478.089844 1.628906 478.773438 1.628906 C 479.460938 1.628906 480.015625 1.070312 480.015625 0.382812 C 480.015625 -0.300781 479.460938 -0.859375 478.773438 -0.859375 " fill-opacity="1" fill-rule="nonzero"/><path fill="#000000" d="M 485.847656 -0.859375 C 485.164062 -0.859375 484.605469 -0.300781 484.605469 0.382812 C 484.605469 1.070312 485.164062 1.628906 485.847656 1.628906 C 486.535156 1.628906 487.09375 1.070312 487.09375 0.382812 C 487.09375 -0.300781 486.535156 -0.859375 485.847656 -0.859375 " fill-opacity="1" fill-rule="nonzero"/><g clip-path="url(#id36)"><path fill="#000000" d="M 443.394531 6.230469 C 442.710938 6.230469 442.152344 6.789062 442.152344 7.476562 C 442.152344 8.164062 442.710938 8.722656 443.394531 8.722656 C 444.082031 8.722656 444.636719 8.164062 444.636719 7.476562 C 444.636719 6.789062 444.082031 6.230469 443.394531 6.230469 " fill-opacity="1" fill-rule="nonzero"/></g><path fill="#000000" d="M 450.472656 6.230469 C 449.785156 6.230469 449.226562 6.789062 449.226562 7.476562 C 449.226562 8.164062 449.785156 8.722656 450.472656 8.722656 C 451.15625 8.722656 451.714844 8.164062 451.714844 7.476562 C 451.714844 6.789062 451.15625 6.230469 450.472656 6.230469 " fill-opacity="1" fill-rule="nonzero"/><path fill="#000000" d="M 457.546875 6.230469 C 456.863281 6.230469 456.304688 6.789062 456.304688 7.476562 C 456.304688 8.164062 456.863281 8.722656 457.546875 8.722656 C 458.230469 8.722656 458.789062 8.164062 458.789062 7.476562 C 458.789062 6.789062 458.230469 6.230469 457.546875 6.230469 " fill-opacity="1" fill-rule="nonzero"/><path fill="#000000" d="M 464.621094 6.230469 C 463.9375 6.230469 463.378906 6.789062 463.378906 7.476562 C 463.378906 8.164062 463.9375 8.722656 464.621094 8.722656 C 465.308594 8.722656 465.867188 8.164062 465.867188 7.476562 C 465.867188 6.789062 465.308594 6.230469 464.621094 6.230469 " fill-opacity="1" fill-rule="nonzero"/><path fill="#000000" d="M 471.699219 6.230469 C 471.011719 6.230469 470.457031 6.789062 470.457031 7.476562 C 470.457031 8.164062 471.011719 8.722656 471.699219 8.722656 C 472.382812 8.722656 472.941406 8.164062 472.941406 7.476562 C 472.941406 6.789062 472.382812 6.230469 471.699219 6.230469 " fill-opacity="1" fill-rule="nonzero"/><path fill="#000000" d="M 478.773438 6.230469 C 478.089844 6.230469 477.53125 6.789062 477.53125 7.476562 C 477.53125 8.164062 478.089844 8.722656 478.773438 8.722656 C 479.460938 8.722656 480.015625 8.164062 480.015625 7.476562 C 480.015625 6.789062 479.460938 6.230469 478.773438 6.230469 " fill-opacity="1" fill-rule="nonzero"/><path fill="#000000" d="M 485.847656 6.230469 C 485.164062 6.230469 484.605469 6.789062 484.605469 7.476562 C 484.605469 8.164062 485.164062 8.722656 485.847656 8.722656 C 486.535156 8.722656 487.09375 8.164062 487.09375 7.476562 C 487.09375 6.789062 486.535156 6.230469 485.847656 6.230469 " fill-opacity="1" fill-rule="nonzero"/><g clip-path="url(#id37)"><path fill="#000000" d="M 443.394531 13.324219 C 442.710938 13.324219 442.152344 13.882812 442.152344 14.570312 C 442.152344 15.257812 442.710938 15.816406 443.394531 15.816406 C 444.082031 15.816406 444.636719 15.257812 444.636719 14.570312 C 444.636719 13.882812 444.082031 13.324219 443.394531 13.324219 " fill-opacity="1" fill-rule="nonzero"/></g><path fill="#000000" d="M 450.472656 13.324219 C 449.785156 13.324219 449.226562 13.882812 449.226562 14.570312 C 449.226562 15.257812 449.785156 15.816406 450.472656 15.816406 C 451.15625 15.816406 451.714844 15.257812 451.714844 14.570312 C 451.714844 13.882812 451.15625 13.324219 450.472656 13.324219 " fill-opacity="1" fill-rule="nonzero"/><path fill="#000000" d="M 457.546875 13.324219 C 456.863281 13.324219 456.304688 13.882812 456.304688 14.570312 C 456.304688 15.257812 456.863281 15.816406 457.546875 15.816406 C 458.230469 15.816406 458.789062 15.257812 458.789062 14.570312 C 458.789062 13.882812 458.230469 13.324219 457.546875 13.324219 " fill-opacity="1" fill-rule="nonzero"/><path fill="#000000" d="M 464.621094 13.324219 C 463.9375 13.324219 463.378906 13.882812 463.378906 14.570312 C 463.378906 15.257812 463.9375 15.816406 464.621094 15.816406 C 465.308594 15.816406 465.867188 15.257812 465.867188 14.570312 C 465.867188 13.882812 465.308594 13.324219 464.621094 13.324219 " fill-opacity="1" fill-rule="nonzero"/><path fill="#000000" d="M 471.699219 13.324219 C 471.011719 13.324219 470.457031 13.882812 470.457031 14.570312 C 470.457031 15.257812 471.011719 15.816406 471.699219 15.816406 C 472.382812 15.816406 472.941406 15.257812 472.941406 14.570312 C 472.941406 13.882812 472.382812 13.324219 471.699219 13.324219 " fill-opacity="1" fill-rule="nonzero"/><path fill="#000000" d="M 478.773438 13.324219 C 478.089844 13.324219 477.53125 13.882812 477.53125 14.570312 C 477.53125 15.257812 478.089844 15.816406 478.773438 15.816406 C 479.460938 15.816406 480.015625 15.257812 480.015625 14.570312 C 480.015625 13.882812 479.460938 13.324219 478.773438 13.324219 " fill-opacity="1" fill-rule="nonzero"/><path fill="#000000" d="M 485.847656 13.324219 C 485.164062 13.324219 484.605469 13.882812 484.605469 14.570312 C 484.605469 15.257812 485.164062 15.816406 485.847656 15.816406 C 486.535156 15.816406 487.09375 15.257812 487.09375 14.570312 C 487.09375 13.882812 486.535156 13.324219 485.847656 13.324219 " fill-opacity="1" fill-rule="nonzero"/><g clip-path="url(#id38)"><path fill="#000000" d="M 443.394531 20.371094 C 442.710938 20.371094 442.152344 20.929688 442.152344 21.617188 C 442.152344 22.304688 442.710938 22.863281 443.394531 22.863281 C 444.082031 22.863281 444.636719 22.304688 444.636719 21.617188 C 444.636719 20.929688 444.082031 20.371094 443.394531 20.371094 " fill-opacity="1" fill-rule="nonzero"/></g><path fill="#000000" d="M 450.472656 20.371094 C 449.785156 20.371094 449.226562 20.929688 449.226562 21.617188 C 449.226562 22.304688 449.785156 22.863281 450.472656 22.863281 C 451.15625 22.863281 451.714844 22.304688 451.714844 21.617188 C 451.714844 20.929688 451.15625 20.371094 450.472656 20.371094 " fill-opacity="1" fill-rule="nonzero"/><path fill="#000000" d="M 457.546875 20.371094 C 456.863281 20.371094 456.304688 20.929688 456.304688 21.617188 C 456.304688 22.304688 456.863281 22.863281 457.546875 22.863281 C 458.230469 22.863281 458.789062 22.304688 458.789062 21.617188 C 458.789062 20.929688 458.230469 20.371094 457.546875 20.371094 " fill-opacity="1" fill-rule="nonzero"/><path fill="#000000" d="M 464.621094 20.371094 C 463.9375 20.371094 463.378906 20.929688 463.378906 21.617188 C 463.378906 22.304688 463.9375 22.863281 464.621094 22.863281 C 465.308594 22.863281 465.867188 22.304688 465.867188 21.617188 C 465.867188 20.929688 465.308594 20.371094 464.621094 20.371094 " fill-opacity="1" fill-rule="nonzero"/><path fill="#000000" d="M 471.699219 20.371094 C 471.011719 20.371094 470.457031 20.929688 470.457031 21.617188 C 470.457031 22.304688 471.011719 22.863281 471.699219 22.863281 C 472.382812 22.863281 472.941406 22.304688 472.941406 21.617188 C 472.941406 20.929688 472.382812 20.371094 471.699219 20.371094 " fill-opacity="1" fill-rule="nonzero"/><path fill="#000000" d="M 478.773438 20.371094 C 478.089844 20.371094 477.53125 20.929688 477.53125 21.617188 C 477.53125 22.304688 478.089844 22.863281 478.773438 22.863281 C 479.460938 22.863281 480.015625 22.304688 480.015625 21.617188 C 480.015625 20.929688 479.460938 20.371094 478.773438 20.371094 " fill-opacity="1" fill-rule="nonzero"/><path fill="#000000" d="M 485.847656 20.371094 C 485.164062 20.371094 484.605469 20.929688 484.605469 21.617188 C 484.605469 22.304688 485.164062 22.863281 485.847656 22.863281 C 486.535156 22.863281 487.09375 22.304688 487.09375 21.617188 C 487.09375 20.929688 486.535156 20.371094 485.847656 20.371094 " fill-opacity="1" fill-rule="nonzero"/><g clip-path="url(#id39)"><path fill="#000000" d="M 443.394531 27.507812 C 442.710938 27.507812 442.152344 28.066406 442.152344 28.753906 C 442.152344 29.441406 442.710938 30 443.394531 30 C 444.082031 30 444.636719 29.441406 444.636719 28.753906 C 444.636719 28.066406 444.082031 27.507812 443.394531 27.507812 " fill-opacity="1" fill-rule="nonzero"/></g><path fill="#000000" d="M 450.472656 27.507812 C 449.785156 27.507812 449.226562 28.066406 449.226562 28.753906 C 449.226562 29.441406 449.785156 30 450.472656 30 C 451.15625 30 451.714844 29.441406 451.714844 28.753906 C 451.714844 28.066406 451.15625 27.507812 450.472656 27.507812 " fill-opacity="1" fill-rule="nonzero"/><path fill="#000000" d="M 457.546875 27.507812 C 456.863281 27.507812 456.304688 28.066406 456.304688 28.753906 C 456.304688 29.441406 456.863281 30 457.546875 30 C 458.230469 30 458.789062 29.441406 458.789062 28.753906 C 458.789062 28.066406 458.230469 27.507812 457.546875 27.507812 " fill-opacity="1" fill-rule="nonzero"/><path fill="#000000" d="M 464.621094 27.507812 C 463.9375 27.507812 463.378906 28.066406 463.378906 28.753906 C 463.378906 29.441406 463.9375 30 464.621094 30 C 465.308594 30 465.867188 29.441406 465.867188 28.753906 C 465.867188 28.066406 465.308594 27.507812 464.621094 27.507812 " fill-opacity="1" fill-rule="nonzero"/><path fill="#000000" d="M 471.699219 27.507812 C 471.011719 27.507812 470.457031 28.066406 470.457031 28.753906 C 470.457031 29.441406 471.011719 30 471.699219 30 C 472.382812 30 472.941406 29.441406 472.941406 28.753906 C 472.941406 28.066406 472.382812 27.507812 471.699219 27.507812 " fill-opacity="1" fill-rule="nonzero"/><path fill="#000000" d="M 478.773438 27.507812 C 478.089844 27.507812 477.53125 28.066406 477.53125 28.753906 C 477.53125 29.441406 478.089844 30 478.773438 30 C 479.460938 30 480.015625 29.441406 480.015625 28.753906 C 480.015625 28.066406 479.460938 27.507812 478.773438 27.507812 " fill-opacity="1" fill-rule="nonzero"/><path fill="#000000" d="M 485.847656 27.507812 C 485.164062 27.507812 484.605469 28.066406 484.605469 28.753906 C 484.605469 29.441406 485.164062 30 485.847656 30 C 486.535156 30 487.09375 29.441406 487.09375 28.753906 C 487.09375 28.066406 486.535156 27.507812 485.847656 27.507812 " fill-opacity="1" fill-rule="nonzero"/><path fill="#000000" d="M 492.921875 -0.859375 C 492.238281 -0.859375 491.679688 -0.300781 491.679688 0.382812 C 491.679688 1.070312 492.238281 1.628906 492.921875 1.628906 C 493.609375 1.628906 494.164062 1.070312 494.164062 0.382812 C 494.164062 -0.300781 493.609375 -0.859375 492.921875 -0.859375 " fill-opacity="1" fill-rule="nonzero"/><path fill="#000000" d="M 500 -0.859375 C 499.3125 -0.859375 498.753906 -0.300781 498.753906 0.382812 C 498.753906 1.070312 499.3125 1.628906 500 1.628906 C 500.683594 1.628906 501.242188 1.070312 501.242188 0.382812 C 501.242188 -0.300781 500.683594 -0.859375 500 -0.859375 " fill-opacity="1" fill-rule="nonzero"/><path fill="#000000" d="M 507.074219 -0.859375 C 506.390625 -0.859375 505.832031 -0.300781 505.832031 0.382812 C 505.832031 1.070312 506.390625 1.628906 507.074219 1.628906 C 507.757812 1.628906 508.316406 1.070312 508.316406 0.382812 C 508.316406 -0.300781 507.757812 -0.859375 507.074219 -0.859375 " fill-opacity="1" fill-rule="nonzero"/><path fill="#000000" d="M 514.148438 -0.859375 C 513.464844 -0.859375 512.90625 -0.300781 512.90625 0.382812 C 512.90625 1.070312 513.464844 1.628906 514.148438 1.628906 C 514.835938 1.628906 515.390625 1.070312 515.390625 0.382812 C 515.390625 -0.300781 514.835938 -0.859375 514.148438 -0.859375 " fill-opacity="1" fill-rule="nonzero"/><path fill="#000000" d="M 521.226562 -0.859375 C 520.539062 -0.859375 519.984375 -0.300781 519.984375 0.382812 C 519.984375 1.070312 520.539062 1.628906 521.226562 1.628906 C 521.910156 1.628906 522.46875 1.070312 522.46875 0.382812 C 522.46875 -0.300781 521.910156 -0.859375 521.226562 -0.859375 " fill-opacity="1" fill-rule="nonzero"/><path fill="#000000" d="M 528.300781 -0.859375 C 527.617188 -0.859375 527.058594 -0.300781 527.058594 0.382812 C 527.058594 1.070312 527.617188 1.628906 528.300781 1.628906 C 528.984375 1.628906 529.542969 1.070312 529.542969 0.382812 C 529.542969 -0.300781 528.984375 -0.859375 528.300781 -0.859375 " fill-opacity="1" fill-rule="nonzero"/><g clip-path="url(#id40)"><path fill="#000000" d="M 535.375 -0.859375 C 534.691406 -0.859375 534.132812 -0.300781 534.132812 0.382812 C 534.132812 1.070312 534.691406 1.628906 535.375 1.628906 C 536.0625 1.628906 536.621094 1.070312 536.621094 0.382812 C 536.621094 -0.300781 536.0625 -0.859375 535.375 -0.859375 " fill-opacity="1" fill-rule="nonzero"/></g><path fill="#000000" d="M 492.921875 6.230469 C 492.238281 6.230469 491.679688 6.789062 491.679688 7.476562 C 491.679688 8.164062 492.238281 8.722656 492.921875 8.722656 C 493.609375 8.722656 494.164062 8.164062 494.164062 7.476562 C 494.164062 6.789062 493.609375 6.230469 492.921875 6.230469 " fill-opacity="1" fill-rule="nonzero"/><path fill="#000000" d="M 500 6.230469 C 499.3125 6.230469 498.753906 6.789062 498.753906 7.476562 C 498.753906 8.164062 499.3125 8.722656 500 8.722656 C 500.683594 8.722656 501.242188 8.164062 501.242188 7.476562 C 501.242188 6.789062 500.683594 6.230469 500 6.230469 " fill-opacity="1" fill-rule="nonzero"/><path fill="#000000" d="M 507.074219 6.230469 C 506.390625 6.230469 505.832031 6.789062 505.832031 7.476562 C 505.832031 8.164062 506.390625 8.722656 507.074219 8.722656 C 507.757812 8.722656 508.316406 8.164062 508.316406 7.476562 C 508.316406 6.789062 507.757812 6.230469 507.074219 6.230469 " fill-opacity="1" fill-rule="nonzero"/><path fill="#000000" d="M 514.148438 6.230469 C 513.464844 6.230469 512.90625 6.789062 512.90625 7.476562 C 512.90625 8.164062 513.464844 8.722656 514.148438 8.722656 C 514.835938 8.722656 515.390625 8.164062 515.390625 7.476562 C 515.390625 6.789062 514.835938 6.230469 514.148438 6.230469 " fill-opacity="1" fill-rule="nonzero"/><path fill="#000000" d="M 521.226562 6.230469 C 520.539062 6.230469 519.984375 6.789062 519.984375 7.476562 C 519.984375 8.164062 520.539062 8.722656 521.226562 8.722656 C 521.910156 8.722656 522.46875 8.164062 522.46875 7.476562 C 522.46875 6.789062 521.910156 6.230469 521.226562 6.230469 " fill-opacity="1" fill-rule="nonzero"/><path fill="#000000" d="M 528.300781 6.230469 C 527.617188 6.230469 527.058594 6.789062 527.058594 7.476562 C 527.058594 8.164062 527.617188 8.722656 528.300781 8.722656 C 528.984375 8.722656 529.542969 8.164062 529.542969 7.476562 C 529.542969 6.789062 528.984375 6.230469 528.300781 6.230469 " fill-opacity="1" fill-rule="nonzero"/><g clip-path="url(#id41)"><path fill="#000000" d="M 535.375 6.230469 C 534.691406 6.230469 534.132812 6.789062 534.132812 7.476562 C 534.132812 8.164062 534.691406 8.722656 535.375 8.722656 C 536.0625 8.722656 536.621094 8.164062 536.621094 7.476562 C 536.621094 6.789062 536.0625 6.230469 535.375 6.230469 " fill-opacity="1" fill-rule="nonzero"/></g><path fill="#000000" d="M 492.921875 13.324219 C 492.238281 13.324219 491.679688 13.882812 491.679688 14.570312 C 491.679688 15.257812 492.238281 15.816406 492.921875 15.816406 C 493.609375 15.816406 494.164062 15.257812 494.164062 14.570312 C 494.164062 13.882812 493.609375 13.324219 492.921875 13.324219 " fill-opacity="1" fill-rule="nonzero"/><path fill="#000000" d="M 500 13.324219 C 499.3125 13.324219 498.753906 13.882812 498.753906 14.570312 C 498.753906 15.257812 499.3125 15.816406 500 15.816406 C 500.683594 15.816406 501.242188 15.257812 501.242188 14.570312 C 501.242188 13.882812 500.683594 13.324219 500 13.324219 " fill-opacity="1" fill-rule="nonzero"/><path fill="#000000" d="M 507.074219 13.324219 C 506.390625 13.324219 505.832031 13.882812 505.832031 14.570312 C 505.832031 15.257812 506.390625 15.816406 507.074219 15.816406 C 507.757812 15.816406 508.316406 15.257812 508.316406 14.570312 C 508.316406 13.882812 507.757812 13.324219 507.074219 13.324219 " fill-opacity="1" fill-rule="nonzero"/><path fill="#000000" d="M 514.148438 13.324219 C 513.464844 13.324219 512.90625 13.882812 512.90625 14.570312 C 512.90625 15.257812 513.464844 15.816406 514.148438 15.816406 C 514.835938 15.816406 515.390625 15.257812 515.390625 14.570312 C 515.390625 13.882812 514.835938 13.324219 514.148438 13.324219 " fill-opacity="1" fill-rule="nonzero"/><path fill="#000000" d="M 521.226562 13.324219 C 520.539062 13.324219 519.984375 13.882812 519.984375 14.570312 C 519.984375 15.257812 520.539062 15.816406 521.226562 15.816406 C 521.910156 15.816406 522.46875 15.257812 522.46875 14.570312 C 522.46875 13.882812 521.910156 13.324219 521.226562 13.324219 " fill-opacity="1" fill-rule="nonzero"/><path fill="#000000" d="M 528.300781 13.324219 C 527.617188 13.324219 527.058594 13.882812 527.058594 14.570312 C 527.058594 15.257812 527.617188 15.816406 528.300781 15.816406 C 528.984375 15.816406 529.542969 15.257812 529.542969 14.570312 C 529.542969 13.882812 528.984375 13.324219 528.300781 13.324219 " fill-opacity="1" fill-rule="nonzero"/><g clip-path="url(#id42)"><path fill="#000000" d="M 535.375 13.324219 C 534.691406 13.324219 534.132812 13.882812 534.132812 14.570312 C 534.132812 15.257812 534.691406 15.816406 535.375 15.816406 C 536.0625 15.816406 536.621094 15.257812 536.621094 14.570312 C 536.621094 13.882812 536.0625 13.324219 535.375 13.324219 " fill-opacity="1" fill-rule="nonzero"/></g><path fill="#000000" d="M 492.921875 20.371094 C 492.238281 20.371094 491.679688 20.929688 491.679688 21.617188 C 491.679688 22.304688 492.238281 22.863281 492.921875 22.863281 C 493.609375 22.863281 494.164062 22.304688 494.164062 21.617188 C 494.164062 20.929688 493.609375 20.371094 492.921875 20.371094 " fill-opacity="1" fill-rule="nonzero"/><path fill="#000000" d="M 500 20.371094 C 499.3125 20.371094 498.753906 20.929688 498.753906 21.617188 C 498.753906 22.304688 499.3125 22.863281 500 22.863281 C 500.683594 22.863281 501.242188 22.304688 501.242188 21.617188 C 501.242188 20.929688 500.683594 20.371094 500 20.371094 " fill-opacity="1" fill-rule="nonzero"/><path fill="#000000" d="M 507.074219 20.371094 C 506.390625 20.371094 505.832031 20.929688 505.832031 21.617188 C 505.832031 22.304688 506.390625 22.863281 507.074219 22.863281 C 507.757812 22.863281 508.316406 22.304688 508.316406 21.617188 C 508.316406 20.929688 507.757812 20.371094 507.074219 20.371094 " fill-opacity="1" fill-rule="nonzero"/><path fill="#000000" d="M 514.148438 20.371094 C 513.464844 20.371094 512.90625 20.929688 512.90625 21.617188 C 512.90625 22.304688 513.464844 22.863281 514.148438 22.863281 C 514.835938 22.863281 515.390625 22.304688 515.390625 21.617188 C 515.390625 20.929688 514.835938 20.371094 514.148438 20.371094 " fill-opacity="1" fill-rule="nonzero"/><path fill="#000000" d="M 521.226562 20.371094 C 520.539062 20.371094 519.984375 20.929688 519.984375 21.617188 C 519.984375 22.304688 520.539062 22.863281 521.226562 22.863281 C 521.910156 22.863281 522.46875 22.304688 522.46875 21.617188 C 522.46875 20.929688 521.910156 20.371094 521.226562 20.371094 " fill-opacity="1" fill-rule="nonzero"/><path fill="#000000" d="M 528.300781 20.371094 C 527.617188 20.371094 527.058594 20.929688 527.058594 21.617188 C 527.058594 22.304688 527.617188 22.863281 528.300781 22.863281 C 528.984375 22.863281 529.542969 22.304688 529.542969 21.617188 C 529.542969 20.929688 528.984375 20.371094 528.300781 20.371094 " fill-opacity="1" fill-rule="nonzero"/><g clip-path="url(#id43)"><path fill="#000000" d="M 535.375 20.371094 C 534.691406 20.371094 534.132812 20.929688 534.132812 21.617188 C 534.132812 22.304688 534.691406 22.863281 535.375 22.863281 C 536.0625 22.863281 536.621094 22.304688 536.621094 21.617188 C 536.621094 20.929688 536.0625 20.371094 535.375 20.371094 " fill-opacity="1" fill-rule="nonzero"/></g><path fill="#000000" d="M 492.921875 27.507812 C 492.238281 27.507812 491.679688 28.066406 491.679688 28.753906 C 491.679688 29.441406 492.238281 30 492.921875 30 C 493.609375 30 494.164062 29.441406 494.164062 28.753906 C 494.164062 28.066406 493.609375 27.507812 492.921875 27.507812 " fill-opacity="1" fill-rule="nonzero"/><path fill="#000000" d="M 500 27.507812 C 499.3125 27.507812 498.753906 28.066406 498.753906 28.753906 C 498.753906 29.441406 499.3125 30 500 30 C 500.683594 30 501.242188 29.441406 501.242188 28.753906 C 501.242188 28.066406 500.683594 27.507812 500 27.507812 " fill-opacity="1" fill-rule="nonzero"/><path fill="#000000" d="M 507.074219 27.507812 C 506.390625 27.507812 505.832031 28.066406 505.832031 28.753906 C 505.832031 29.441406 506.390625 30 507.074219 30 C 507.757812 30 508.316406 29.441406 508.316406 28.753906 C 508.316406 28.066406 507.757812 27.507812 507.074219 27.507812 " fill-opacity="1" fill-rule="nonzero"/><path fill="#000000" d="M 514.148438 27.507812 C 513.464844 27.507812 512.90625 28.066406 512.90625 28.753906 C 512.90625 29.441406 513.464844 30 514.148438 30 C 514.835938 30 515.390625 29.441406 515.390625 28.753906 C 515.390625 28.066406 514.835938 27.507812 514.148438 27.507812 " fill-opacity="1" fill-rule="nonzero"/><path fill="#000000" d="M 521.226562 27.507812 C 520.539062 27.507812 519.984375 28.066406 519.984375 28.753906 C 519.984375 29.441406 520.539062 30 521.226562 30 C 521.910156 30 522.46875 29.441406 522.46875 28.753906 C 522.46875 28.066406 521.910156 27.507812 521.226562 27.507812 " fill-opacity="1" fill-rule="nonzero"/><path fill="#000000" d="M 528.300781 27.507812 C 527.617188 27.507812 527.058594 28.066406 527.058594 28.753906 C 527.058594 29.441406 527.617188 30 528.300781 30 C 528.984375 30 529.542969 29.441406 529.542969 28.753906 C 529.542969 28.066406 528.984375 27.507812 528.300781 27.507812 " fill-opacity="1" fill-rule="nonzero"/><g clip-path="url(#id44)"><path fill="#000000" d="M 535.375 27.507812 C 534.691406 27.507812 534.132812 28.066406 534.132812 28.753906 C 534.132812 29.441406 534.691406 30 535.375 30 C 536.0625 30 536.621094 29.441406 536.621094 28.753906 C 536.621094 28.066406 536.0625 27.507812 535.375 27.507812 " fill-opacity="1" fill-rule="nonzero"/></g><g clip-path="url(#id45)"><path fill="#000000" d="M 200.992188 -0.859375 C 200.308594 -0.859375 199.75 -0.300781 199.75 0.382812 C 199.75 1.070312 200.308594 1.628906 200.992188 1.628906 C 201.675781 1.628906 202.234375 1.070312 202.234375 0.382812 C 202.234375 -0.300781 201.675781 -0.859375 200.992188 -0.859375 " fill-opacity="1" fill-rule="nonzero"/></g><path fill="#000000" d="M 208.070312 -0.859375 C 207.382812 -0.859375 206.824219 -0.300781 206.824219 0.382812 C 206.824219 1.070312 207.382812 1.628906 208.070312 1.628906 C 208.753906 1.628906 209.3125 1.070312 209.3125 0.382812 C 209.3125 -0.300781 208.753906 -0.859375 208.070312 -0.859375 " fill-opacity="1" fill-rule="nonzero"/><path fill="#000000" d="M 215.144531 -0.859375 C 214.457031 -0.859375 213.902344 -0.300781 213.902344 0.382812 C 213.902344 1.070312 214.457031 1.628906 215.144531 1.628906 C 215.828125 1.628906 216.386719 1.070312 216.386719 0.382812 C 216.386719 -0.300781 215.828125 -0.859375 215.144531 -0.859375 " fill-opacity="1" fill-rule="nonzero"/><path fill="#000000" d="M 222.21875 -0.859375 C 221.535156 -0.859375 220.976562 -0.300781 220.976562 0.382812 C 220.976562 1.070312 221.535156 1.628906 222.21875 1.628906 C 222.90625 1.628906 223.460938 1.070312 223.460938 0.382812 C 223.460938 -0.300781 222.90625 -0.859375 222.21875 -0.859375 " fill-opacity="1" fill-rule="nonzero"/><path fill="#000000" d="M 229.296875 -0.859375 C 228.609375 -0.859375 228.050781 -0.300781 228.050781 0.382812 C 228.050781 1.070312 228.609375 1.628906 229.296875 1.628906 C 229.980469 1.628906 230.539062 1.070312 230.539062 0.382812 C 230.539062 -0.300781 229.980469 -0.859375 229.296875 -0.859375 " fill-opacity="1" fill-rule="nonzero"/><path fill="#000000" d="M 236.371094 -0.859375 C 235.6875 -0.859375 235.128906 -0.300781 235.128906 0.382812 C 235.128906 1.070312 235.6875 1.628906 236.371094 1.628906 C 237.054688 1.628906 237.613281 1.070312 237.613281 0.382812 C 237.613281 -0.300781 237.054688 -0.859375 236.371094 -0.859375 " fill-opacity="1" fill-rule="nonzero"/><path fill="#000000" d="M 243.445312 -0.859375 C 242.761719 -0.859375 242.203125 -0.300781 242.203125 0.382812 C 242.203125 1.070312 242.761719 1.628906 243.445312 1.628906 C 244.132812 1.628906 244.691406 1.070312 244.691406 0.382812 C 244.691406 -0.300781 244.132812 -0.859375 243.445312 -0.859375 " fill-opacity="1" fill-rule="nonzero"/><g clip-path="url(#id46)"><path fill="#000000" d="M 200.992188 6.230469 C 200.308594 6.230469 199.75 6.789062 199.75 7.476562 C 199.75 8.164062 200.308594 8.722656 200.992188 8.722656 C 201.675781 8.722656 202.234375 8.164062 202.234375 7.476562 C 202.234375 6.789062 201.675781 6.230469 200.992188 6.230469 " fill-opacity="1" fill-rule="nonzero"/></g><path fill="#000000" d="M 208.070312 6.230469 C 207.382812 6.230469 206.824219 6.789062 206.824219 7.476562 C 206.824219 8.164062 207.382812 8.722656 208.070312 8.722656 C 208.753906 8.722656 209.3125 8.164062 209.3125 7.476562 C 209.3125 6.789062 208.753906 6.230469 208.070312 6.230469 " fill-opacity="1" fill-rule="nonzero"/><path fill="#000000" d="M 215.144531 6.230469 C 214.457031 6.230469 213.902344 6.789062 213.902344 7.476562 C 213.902344 8.164062 214.457031 8.722656 215.144531 8.722656 C 215.828125 8.722656 216.386719 8.164062 216.386719 7.476562 C 216.386719 6.789062 215.828125 6.230469 215.144531 6.230469 " fill-opacity="1" fill-rule="nonzero"/><path fill="#000000" d="M 222.21875 6.230469 C 221.535156 6.230469 220.976562 6.789062 220.976562 7.476562 C 220.976562 8.164062 221.535156 8.722656 222.21875 8.722656 C 222.90625 8.722656 223.460938 8.164062 223.460938 7.476562 C 223.460938 6.789062 222.90625 6.230469 222.21875 6.230469 " fill-opacity="1" fill-rule="nonzero"/><path fill="#000000" d="M 229.296875 6.230469 C 228.609375 6.230469 228.050781 6.789062 228.050781 7.476562 C 228.050781 8.164062 228.609375 8.722656 229.296875 8.722656 C 229.980469 8.722656 230.539062 8.164062 230.539062 7.476562 C 230.539062 6.789062 229.980469 6.230469 229.296875 6.230469 " fill-opacity="1" fill-rule="nonzero"/><path fill="#000000" d="M 236.371094 6.230469 C 235.6875 6.230469 235.128906 6.789062 235.128906 7.476562 C 235.128906 8.164062 235.6875 8.722656 236.371094 8.722656 C 237.054688 8.722656 237.613281 8.164062 237.613281 7.476562 C 237.613281 6.789062 237.054688 6.230469 236.371094 6.230469 " fill-opacity="1" fill-rule="nonzero"/><path fill="#000000" d="M 243.445312 6.230469 C 242.761719 6.230469 242.203125 6.789062 242.203125 7.476562 C 242.203125 8.164062 242.761719 8.722656 243.445312 8.722656 C 244.132812 8.722656 244.691406 8.164062 244.691406 7.476562 C 244.691406 6.789062 244.132812 6.230469 243.445312 6.230469 " fill-opacity="1" fill-rule="nonzero"/><g clip-path="url(#id47)"><path fill="#000000" d="M 200.992188 13.324219 C 200.308594 13.324219 199.75 13.882812 199.75 14.570312 C 199.75 15.257812 200.308594 15.816406 200.992188 15.816406 C 201.675781 15.816406 202.234375 15.257812 202.234375 14.570312 C 202.234375 13.882812 201.675781 13.324219 200.992188 13.324219 " fill-opacity="1" fill-rule="nonzero"/></g><path fill="#000000" d="M 208.070312 13.324219 C 207.382812 13.324219 206.824219 13.882812 206.824219 14.570312 C 206.824219 15.257812 207.382812 15.816406 208.070312 15.816406 C 208.753906 15.816406 209.3125 15.257812 209.3125 14.570312 C 209.3125 13.882812 208.753906 13.324219 208.070312 13.324219 " fill-opacity="1" fill-rule="nonzero"/><path fill="#000000" d="M 215.144531 13.324219 C 214.457031 13.324219 213.902344 13.882812 213.902344 14.570312 C 213.902344 15.257812 214.457031 15.816406 215.144531 15.816406 C 215.828125 15.816406 216.386719 15.257812 216.386719 14.570312 C 216.386719 13.882812 215.828125 13.324219 215.144531 13.324219 " fill-opacity="1" fill-rule="nonzero"/><path fill="#000000" d="M 222.21875 13.324219 C 221.535156 13.324219 220.976562 13.882812 220.976562 14.570312 C 220.976562 15.257812 221.535156 15.816406 222.21875 15.816406 C 222.90625 15.816406 223.460938 15.257812 223.460938 14.570312 C 223.460938 13.882812 222.90625 13.324219 222.21875 13.324219 " fill-opacity="1" fill-rule="nonzero"/><path fill="#000000" d="M 229.296875 13.324219 C 228.609375 13.324219 228.050781 13.882812 228.050781 14.570312 C 228.050781 15.257812 228.609375 15.816406 229.296875 15.816406 C 229.980469 15.816406 230.539062 15.257812 230.539062 14.570312 C 230.539062 13.882812 229.980469 13.324219 229.296875 13.324219 " fill-opacity="1" fill-rule="nonzero"/><path fill="#000000" d="M 236.371094 13.324219 C 235.6875 13.324219 235.128906 13.882812 235.128906 14.570312 C 235.128906 15.257812 235.6875 15.816406 236.371094 15.816406 C 237.054688 15.816406 237.613281 15.257812 237.613281 14.570312 C 237.613281 13.882812 237.054688 13.324219 236.371094 13.324219 " fill-opacity="1" fill-rule="nonzero"/><path fill="#000000" d="M 243.445312 13.324219 C 242.761719 13.324219 242.203125 13.882812 242.203125 14.570312 C 242.203125 15.257812 242.761719 15.816406 243.445312 15.816406 C 244.132812 15.816406 244.691406 15.257812 244.691406 14.570312 C 244.691406 13.882812 244.132812 13.324219 243.445312 13.324219 " fill-opacity="1" fill-rule="nonzero"/><g clip-path="url(#id48)"><path fill="#000000" d="M 200.992188 20.371094 C 200.308594 20.371094 199.75 20.929688 199.75 21.617188 C 199.75 22.304688 200.308594 22.863281 200.992188 22.863281 C 201.675781 22.863281 202.234375 22.304688 202.234375 21.617188 C 202.234375 20.929688 201.675781 20.371094 200.992188 20.371094 " fill-opacity="1" fill-rule="nonzero"/></g><path fill="#000000" d="M 208.070312 20.371094 C 207.382812 20.371094 206.824219 20.929688 206.824219 21.617188 C 206.824219 22.304688 207.382812 22.863281 208.070312 22.863281 C 208.753906 22.863281 209.3125 22.304688 209.3125 21.617188 C 209.3125 20.929688 208.753906 20.371094 208.070312 20.371094 " fill-opacity="1" fill-rule="nonzero"/><path fill="#000000" d="M 215.144531 20.371094 C 214.457031 20.371094 213.902344 20.929688 213.902344 21.617188 C 213.902344 22.304688 214.457031 22.863281 215.144531 22.863281 C 215.828125 22.863281 216.386719 22.304688 216.386719 21.617188 C 216.386719 20.929688 215.828125 20.371094 215.144531 20.371094 " fill-opacity="1" fill-rule="nonzero"/><path fill="#000000" d="M 222.21875 20.371094 C 221.535156 20.371094 220.976562 20.929688 220.976562 21.617188 C 220.976562 22.304688 221.535156 22.863281 222.21875 22.863281 C 222.90625 22.863281 223.460938 22.304688 223.460938 21.617188 C 223.460938 20.929688 222.90625 20.371094 222.21875 20.371094 " fill-opacity="1" fill-rule="nonzero"/><path fill="#000000" d="M 229.296875 20.371094 C 228.609375 20.371094 228.050781 20.929688 228.050781 21.617188 C 228.050781 22.304688 228.609375 22.863281 229.296875 22.863281 C 229.980469 22.863281 230.539062 22.304688 230.539062 21.617188 C 230.539062 20.929688 229.980469 20.371094 229.296875 20.371094 " fill-opacity="1" fill-rule="nonzero"/><path fill="#000000" d="M 236.371094 20.371094 C 235.6875 20.371094 235.128906 20.929688 235.128906 21.617188 C 235.128906 22.304688 235.6875 22.863281 236.371094 22.863281 C 237.054688 22.863281 237.613281 22.304688 237.613281 21.617188 C 237.613281 20.929688 237.054688 20.371094 236.371094 20.371094 " fill-opacity="1" fill-rule="nonzero"/><path fill="#000000" d="M 243.445312 20.371094 C 242.761719 20.371094 242.203125 20.929688 242.203125 21.617188 C 242.203125 22.304688 242.761719 22.863281 243.445312 22.863281 C 244.132812 22.863281 244.691406 22.304688 244.691406 21.617188 C 244.691406 20.929688 244.132812 20.371094 243.445312 20.371094 " fill-opacity="1" fill-rule="nonzero"/><g clip-path="url(#id49)"><path fill="#000000" d="M 200.992188 27.507812 C 200.308594 27.507812 199.75 28.066406 199.75 28.753906 C 199.75 29.441406 200.308594 30 200.992188 30 C 201.675781 30 202.234375 29.441406 202.234375 28.753906 C 202.234375 28.066406 201.675781 27.507812 200.992188 27.507812 " fill-opacity="1" fill-rule="nonzero"/></g><path fill="#000000" d="M 208.070312 27.507812 C 207.382812 27.507812 206.824219 28.066406 206.824219 28.753906 C 206.824219 29.441406 207.382812 30 208.070312 30 C 208.753906 30 209.3125 29.441406 209.3125 28.753906 C 209.3125 28.066406 208.753906 27.507812 208.070312 27.507812 " fill-opacity="1" fill-rule="nonzero"/><path fill="#000000" d="M 215.144531 27.507812 C 214.457031 27.507812 213.902344 28.066406 213.902344 28.753906 C 213.902344 29.441406 214.457031 30 215.144531 30 C 215.828125 30 216.386719 29.441406 216.386719 28.753906 C 216.386719 28.066406 215.828125 27.507812 215.144531 27.507812 " fill-opacity="1" fill-rule="nonzero"/><path fill="#000000" d="M 222.21875 27.507812 C 221.535156 27.507812 220.976562 28.066406 220.976562 28.753906 C 220.976562 29.441406 221.535156 30 222.21875 30 C 222.90625 30 223.460938 29.441406 223.460938 28.753906 C 223.460938 28.066406 222.90625 27.507812 222.21875 27.507812 " fill-opacity="1" fill-rule="nonzero"/><path fill="#000000" d="M 229.296875 27.507812 C 228.609375 27.507812 228.050781 28.066406 228.050781 28.753906 C 228.050781 29.441406 228.609375 30 229.296875 30 C 229.980469 30 230.539062 29.441406 230.539062 28.753906 C 230.539062 28.066406 229.980469 27.507812 229.296875 27.507812 " fill-opacity="1" fill-rule="nonzero"/><path fill="#000000" d="M 236.371094 27.507812 C 235.6875 27.507812 235.128906 28.066406 235.128906 28.753906 C 235.128906 29.441406 235.6875 30 236.371094 30 C 237.054688 30 237.613281 29.441406 237.613281 28.753906 C 237.613281 28.066406 237.054688 27.507812 236.371094 27.507812 " fill-opacity="1" fill-rule="nonzero"/><path fill="#000000" d="M 243.445312 27.507812 C 242.761719 27.507812 242.203125 28.066406 242.203125 28.753906 C 242.203125 29.441406 242.761719 30 243.445312 30 C 244.132812 30 244.691406 29.441406 244.691406 28.753906 C 244.691406 28.066406 244.132812 27.507812 243.445312 27.507812 " fill-opacity="1" fill-rule="nonzero"/><path fill="#000000" d="M 250.519531 -0.859375 C 249.832031 -0.859375 249.277344 -0.300781 249.277344 0.382812 C 249.277344 1.070312 249.832031 1.628906 250.519531 1.628906 C 251.203125 1.628906 251.761719 1.070312 251.761719 0.382812 C 251.761719 -0.300781 251.203125 -0.859375 250.519531 -0.859375 " fill-opacity="1" fill-rule="nonzero"/><path fill="#000000" d="M 257.59375 -0.859375 C 256.910156 -0.859375 256.351562 -0.300781 256.351562 0.382812 C 256.351562 1.070312 256.910156 1.628906 257.59375 1.628906 C 258.28125 1.628906 258.835938 1.070312 258.835938 0.382812 C 258.835938 -0.300781 258.28125 -0.859375 257.59375 -0.859375 " fill-opacity="1" fill-rule="nonzero"/><path fill="#000000" d="M 264.671875 -0.859375 C 263.984375 -0.859375 263.429688 -0.300781 263.429688 0.382812 C 263.429688 1.070312 263.984375 1.628906 264.671875 1.628906 C 265.355469 1.628906 265.914062 1.070312 265.914062 0.382812 C 265.914062 -0.300781 265.355469 -0.859375 264.671875 -0.859375 " fill-opacity="1" fill-rule="nonzero"/><path fill="#000000" d="M 271.746094 -0.859375 C 271.0625 -0.859375 270.503906 -0.300781 270.503906 0.382812 C 270.503906 1.070312 271.0625 1.628906 271.746094 1.628906 C 272.433594 1.628906 272.988281 1.070312 272.988281 0.382812 C 272.988281 -0.300781 272.433594 -0.859375 271.746094 -0.859375 " fill-opacity="1" fill-rule="nonzero"/><path fill="#000000" d="M 278.820312 -0.859375 C 278.136719 -0.859375 277.578125 -0.300781 277.578125 0.382812 C 277.578125 1.070312 278.136719 1.628906 278.820312 1.628906 C 279.507812 1.628906 280.066406 1.070312 280.066406 0.382812 C 280.066406 -0.300781 279.507812 -0.859375 278.820312 -0.859375 " fill-opacity="1" fill-rule="nonzero"/><path fill="#000000" d="M 285.898438 -0.859375 C 285.210938 -0.859375 284.65625 -0.300781 284.65625 0.382812 C 284.65625 1.070312 285.210938 1.628906 285.898438 1.628906 C 286.582031 1.628906 287.140625 1.070312 287.140625 0.382812 C 287.140625 -0.300781 286.582031 -0.859375 285.898438 -0.859375 " fill-opacity="1" fill-rule="nonzero"/><g clip-path="url(#id50)"><path fill="#000000" d="M 292.972656 -0.859375 C 292.289062 -0.859375 291.730469 -0.300781 291.730469 0.382812 C 291.730469 1.070312 292.289062 1.628906 292.972656 1.628906 C 293.660156 1.628906 294.214844 1.070312 294.214844 0.382812 C 294.214844 -0.300781 293.660156 -0.859375 292.972656 -0.859375 " fill-opacity="1" fill-rule="nonzero"/></g><path fill="#000000" d="M 250.519531 6.230469 C 249.832031 6.230469 249.277344 6.789062 249.277344 7.476562 C 249.277344 8.164062 249.832031 8.722656 250.519531 8.722656 C 251.203125 8.722656 251.761719 8.164062 251.761719 7.476562 C 251.761719 6.789062 251.203125 6.230469 250.519531 6.230469 " fill-opacity="1" fill-rule="nonzero"/><path fill="#000000" d="M 257.59375 6.230469 C 256.910156 6.230469 256.351562 6.789062 256.351562 7.476562 C 256.351562 8.164062 256.910156 8.722656 257.59375 8.722656 C 258.28125 8.722656 258.835938 8.164062 258.835938 7.476562 C 258.835938 6.789062 258.28125 6.230469 257.59375 6.230469 " fill-opacity="1" fill-rule="nonzero"/><path fill="#000000" d="M 264.671875 6.230469 C 263.984375 6.230469 263.429688 6.789062 263.429688 7.476562 C 263.429688 8.164062 263.984375 8.722656 264.671875 8.722656 C 265.355469 8.722656 265.914062 8.164062 265.914062 7.476562 C 265.914062 6.789062 265.355469 6.230469 264.671875 6.230469 " fill-opacity="1" fill-rule="nonzero"/><path fill="#000000" d="M 271.746094 6.230469 C 271.0625 6.230469 270.503906 6.789062 270.503906 7.476562 C 270.503906 8.164062 271.0625 8.722656 271.746094 8.722656 C 272.433594 8.722656 272.988281 8.164062 272.988281 7.476562 C 272.988281 6.789062 272.433594 6.230469 271.746094 6.230469 " fill-opacity="1" fill-rule="nonzero"/><path fill="#000000" d="M 278.820312 6.230469 C 278.136719 6.230469 277.578125 6.789062 277.578125 7.476562 C 277.578125 8.164062 278.136719 8.722656 278.820312 8.722656 C 279.507812 8.722656 280.066406 8.164062 280.066406 7.476562 C 280.066406 6.789062 279.507812 6.230469 278.820312 6.230469 " fill-opacity="1" fill-rule="nonzero"/><path fill="#000000" d="M 285.898438 6.230469 C 285.210938 6.230469 284.65625 6.789062 284.65625 7.476562 C 284.65625 8.164062 285.210938 8.722656 285.898438 8.722656 C 286.582031 8.722656 287.140625 8.164062 287.140625 7.476562 C 287.140625 6.789062 286.582031 6.230469 285.898438 6.230469 " fill-opacity="1" fill-rule="nonzero"/><g clip-path="url(#id51)"><path fill="#000000" d="M 292.972656 6.230469 C 292.289062 6.230469 291.730469 6.789062 291.730469 7.476562 C 291.730469 8.164062 292.289062 8.722656 292.972656 8.722656 C 293.660156 8.722656 294.214844 8.164062 294.214844 7.476562 C 294.214844 6.789062 293.660156 6.230469 292.972656 6.230469 " fill-opacity="1" fill-rule="nonzero"/></g><path fill="#000000" d="M 250.519531 13.324219 C 249.832031 13.324219 249.277344 13.882812 249.277344 14.570312 C 249.277344 15.257812 249.832031 15.816406 250.519531 15.816406 C 251.203125 15.816406 251.761719 15.257812 251.761719 14.570312 C 251.761719 13.882812 251.203125 13.324219 250.519531 13.324219 " fill-opacity="1" fill-rule="nonzero"/><path fill="#000000" d="M 257.59375 13.324219 C 256.910156 13.324219 256.351562 13.882812 256.351562 14.570312 C 256.351562 15.257812 256.910156 15.816406 257.59375 15.816406 C 258.28125 15.816406 258.835938 15.257812 258.835938 14.570312 C 258.835938 13.882812 258.28125 13.324219 257.59375 13.324219 " fill-opacity="1" fill-rule="nonzero"/><path fill="#000000" d="M 264.671875 13.324219 C 263.984375 13.324219 263.429688 13.882812 263.429688 14.570312 C 263.429688 15.257812 263.984375 15.816406 264.671875 15.816406 C 265.355469 15.816406 265.914062 15.257812 265.914062 14.570312 C 265.914062 13.882812 265.355469 13.324219 264.671875 13.324219 " fill-opacity="1" fill-rule="nonzero"/><path fill="#000000" d="M 271.746094 13.324219 C 271.0625 13.324219 270.503906 13.882812 270.503906 14.570312 C 270.503906 15.257812 271.0625 15.816406 271.746094 15.816406 C 272.433594 15.816406 272.988281 15.257812 272.988281 14.570312 C 272.988281 13.882812 272.433594 13.324219 271.746094 13.324219 " fill-opacity="1" fill-rule="nonzero"/><path fill="#000000" d="M 278.820312 13.324219 C 278.136719 13.324219 277.578125 13.882812 277.578125 14.570312 C 277.578125 15.257812 278.136719 15.816406 278.820312 15.816406 C 279.507812 15.816406 280.066406 15.257812 280.066406 14.570312 C 280.066406 13.882812 279.507812 13.324219 278.820312 13.324219 " fill-opacity="1" fill-rule="nonzero"/><path fill="#000000" d="M 285.898438 13.324219 C 285.210938 13.324219 284.65625 13.882812 284.65625 14.570312 C 284.65625 15.257812 285.210938 15.816406 285.898438 15.816406 C 286.582031 15.816406 287.140625 15.257812 287.140625 14.570312 C 287.140625 13.882812 286.582031 13.324219 285.898438 13.324219 " fill-opacity="1" fill-rule="nonzero"/><g clip-path="url(#id52)"><path fill="#000000" d="M 292.972656 13.324219 C 292.289062 13.324219 291.730469 13.882812 291.730469 14.570312 C 291.730469 15.257812 292.289062 15.816406 292.972656 15.816406 C 293.660156 15.816406 294.214844 15.257812 294.214844 14.570312 C 294.214844 13.882812 293.660156 13.324219 292.972656 13.324219 " fill-opacity="1" fill-rule="nonzero"/></g><path fill="#000000" d="M 250.519531 20.371094 C 249.832031 20.371094 249.277344 20.929688 249.277344 21.617188 C 249.277344 22.304688 249.832031 22.863281 250.519531 22.863281 C 251.203125 22.863281 251.761719 22.304688 251.761719 21.617188 C 251.761719 20.929688 251.203125 20.371094 250.519531 20.371094 " fill-opacity="1" fill-rule="nonzero"/><path fill="#000000" d="M 257.59375 20.371094 C 256.910156 20.371094 256.351562 20.929688 256.351562 21.617188 C 256.351562 22.304688 256.910156 22.863281 257.59375 22.863281 C 258.28125 22.863281 258.835938 22.304688 258.835938 21.617188 C 258.835938 20.929688 258.28125 20.371094 257.59375 20.371094 " fill-opacity="1" fill-rule="nonzero"/><path fill="#000000" d="M 264.671875 20.371094 C 263.984375 20.371094 263.429688 20.929688 263.429688 21.617188 C 263.429688 22.304688 263.984375 22.863281 264.671875 22.863281 C 265.355469 22.863281 265.914062 22.304688 265.914062 21.617188 C 265.914062 20.929688 265.355469 20.371094 264.671875 20.371094 " fill-opacity="1" fill-rule="nonzero"/><path fill="#000000" d="M 271.746094 20.371094 C 271.0625 20.371094 270.503906 20.929688 270.503906 21.617188 C 270.503906 22.304688 271.0625 22.863281 271.746094 22.863281 C 272.433594 22.863281 272.988281 22.304688 272.988281 21.617188 C 272.988281 20.929688 272.433594 20.371094 271.746094 20.371094 " fill-opacity="1" fill-rule="nonzero"/><path fill="#000000" d="M 278.820312 20.371094 C 278.136719 20.371094 277.578125 20.929688 277.578125 21.617188 C 277.578125 22.304688 278.136719 22.863281 278.820312 22.863281 C 279.507812 22.863281 280.066406 22.304688 280.066406 21.617188 C 280.066406 20.929688 279.507812 20.371094 278.820312 20.371094 " fill-opacity="1" fill-rule="nonzero"/><path fill="#000000" d="M 285.898438 20.371094 C 285.210938 20.371094 284.65625 20.929688 284.65625 21.617188 C 284.65625 22.304688 285.210938 22.863281 285.898438 22.863281 C 286.582031 22.863281 287.140625 22.304688 287.140625 21.617188 C 287.140625 20.929688 286.582031 20.371094 285.898438 20.371094 " fill-opacity="1" fill-rule="nonzero"/><g clip-path="url(#id53)"><path fill="#000000" d="M 292.972656 20.371094 C 292.289062 20.371094 291.730469 20.929688 291.730469 21.617188 C 291.730469 22.304688 292.289062 22.863281 292.972656 22.863281 C 293.660156 22.863281 294.214844 22.304688 294.214844 21.617188 C 294.214844 20.929688 293.660156 20.371094 292.972656 20.371094 " fill-opacity="1" fill-rule="nonzero"/></g><path fill="#000000" d="M 250.519531 27.507812 C 249.832031 27.507812 249.277344 28.066406 249.277344 28.753906 C 249.277344 29.441406 249.832031 30 250.519531 30 C 251.203125 30 251.761719 29.441406 251.761719 28.753906 C 251.761719 28.066406 251.203125 27.507812 250.519531 27.507812 " fill-opacity="1" fill-rule="nonzero"/><path fill="#000000" d="M 257.59375 27.507812 C 256.910156 27.507812 256.351562 28.066406 256.351562 28.753906 C 256.351562 29.441406 256.910156 30 257.59375 30 C 258.28125 30 258.835938 29.441406 258.835938 28.753906 C 258.835938 28.066406 258.28125 27.507812 257.59375 27.507812 " fill-opacity="1" fill-rule="nonzero"/><path fill="#000000" d="M 264.671875 27.507812 C 263.984375 27.507812 263.429688 28.066406 263.429688 28.753906 C 263.429688 29.441406 263.984375 30 264.671875 30 C 265.355469 30 265.914062 29.441406 265.914062 28.753906 C 265.914062 28.066406 265.355469 27.507812 264.671875 27.507812 " fill-opacity="1" fill-rule="nonzero"/><path fill="#000000" d="M 271.746094 27.507812 C 271.0625 27.507812 270.503906 28.066406 270.503906 28.753906 C 270.503906 29.441406 271.0625 30 271.746094 30 C 272.433594 30 272.988281 29.441406 272.988281 28.753906 C 272.988281 28.066406 272.433594 27.507812 271.746094 27.507812 " fill-opacity="1" fill-rule="nonzero"/><path fill="#000000" d="M 278.820312 27.507812 C 278.136719 27.507812 277.578125 28.066406 277.578125 28.753906 C 277.578125 29.441406 278.136719 30 278.820312 30 C 279.507812 30 280.066406 29.441406 280.066406 28.753906 C 280.066406 28.066406 279.507812 27.507812 278.820312 27.507812 " fill-opacity="1" fill-rule="nonzero"/><path fill="#000000" d="M 285.898438 27.507812 C 285.210938 27.507812 284.65625 28.066406 284.65625 28.753906 C 284.65625 29.441406 285.210938 30 285.898438 30 C 286.582031 30 287.140625 29.441406 287.140625 28.753906 C 287.140625 28.066406 286.582031 27.507812 285.898438 27.507812 " fill-opacity="1" fill-rule="nonzero"/><g clip-path="url(#id54)"><path fill="#000000" d="M 292.972656 27.507812 C 292.289062 27.507812 291.730469 28.066406 291.730469 28.753906 C 291.730469 29.441406 292.289062 30 292.972656 30 C 293.660156 30 294.214844 29.441406 294.214844 28.753906 C 294.214844 28.066406 293.660156 27.507812 292.972656 27.507812 " fill-opacity="1" fill-rule="nonzero"/></g></svg>