<svg xmlns="http://www.w3.org/2000/svg" xmlns:xlink="http://www.w3.org/1999/xlink" width="1080" zoomAndPan="magnify" viewBox="0 0 810 74.999997" height="100" preserveAspectRatio="xMidYMid meet" version="1.0"><defs><clipPath id="id1"><path d="M 4 17 L 7 17 L 7 20.25 L 4 20.25 Z M 4 17 " clip-rule="nonzero"/></clipPath><clipPath id="id2"><path d="M 11 17 L 14 17 L 14 20.25 L 11 20.25 Z M 11 17 " clip-rule="nonzero"/></clipPath><clipPath id="id3"><path d="M 18 17 L 21 17 L 21 20.25 L 18 20.25 Z M 18 17 " clip-rule="nonzero"/></clipPath><clipPath id="id4"><path d="M 67 3 L 70.21875 3 L 70.21875 7 L 67 7 Z M 67 3 " clip-rule="nonzero"/></clipPath><clipPath id="id5"><path d="M 67 10 L 70.21875 10 L 70.21875 14 L 67 14 Z M 67 10 " clip-rule="nonzero"/></clipPath><clipPath id="id6"><path d="M 25 17 L 28 17 L 28 20.25 L 25 20.25 Z M 25 17 " clip-rule="nonzero"/></clipPath><clipPath id="id7"><path d="M 32 17 L 35 17 L 35 20.25 L 32 20.25 Z M 32 17 " clip-rule="nonzero"/></clipPath><clipPath id="id8"><path d="M 39 17 L 42 17 L 42 20.25 L 39 20.25 Z M 39 17 " clip-rule="nonzero"/></clipPath><clipPath id="id9"><path d="M 46 17 L 49 17 L 49 20.25 L 46 20.25 Z M 46 17 " clip-rule="nonzero"/></clipPath><clipPath id="id10"><path d="M 53 17 L 57 17 L 57 20.25 L 53 20.25 Z M 53 17 " clip-rule="nonzero"/></clipPath><clipPath id="id11"><path d="M 60 17 L 64 17 L 64 20.25 L 60 20.25 Z M 60 17 " clip-rule="nonzero"/></clipPath><clipPath id="id12"><path d="M 67 17 L 70.21875 17 L 70.21875 20.25 L 67 20.25 Z M 67 17 " clip-rule="nonzero"/></clipPath><clipPath id="id13"><path d="M 700.21875 0 L 703 0 L 703 4 L 700.21875 4 Z M 700.21875 0 " clip-rule="nonzero"/></clipPath><clipPath id="id14"><path d="M 700.21875 8 L 703 8 L 703 11 L 700.21875 11 Z M 700.21875 8 " clip-rule="nonzero"/></clipPath><clipPath id="id15"><path d="M 700.21875 15 L 703 15 L 703 18 L 700.21875 18 Z M 700.21875 15 " clip-rule="nonzero"/></clipPath><clipPath id="id16"><path d="M 700.21875 22 L 703 22 L 703 24.75 L 700.21875 24.75 Z M 700.21875 22 " clip-rule="nonzero"/></clipPath><clipPath id="id17"><path d="M 707 22 L 710 22 L 710 24.75 L 707 24.75 Z M 707 22 " clip-rule="nonzero"/></clipPath><clipPath id="id18"><path d="M 714 22 L 717 22 L 717 24.75 L 714 24.75 Z M 714 22 " clip-rule="nonzero"/></clipPath><clipPath id="id19"><path d="M 721 22 L 724 22 L 724 24.75 L 721 24.75 Z M 721 22 " clip-rule="nonzero"/></clipPath><clipPath id="id20"><path d="M 728 22 L 732 22 L 732 24.75 L 728 24.75 Z M 728 22 " clip-rule="nonzero"/></clipPath><clipPath id="id21"><path d="M 735 22 L 739 22 L 739 24.75 L 735 24.75 Z M 735 22 " clip-rule="nonzero"/></clipPath><clipPath id="id22"><path d="M 742 22 L 746 22 L 746 24.75 L 742 24.75 Z M 742 22 " clip-rule="nonzero"/></clipPath><clipPath id="id23"><path d="M 792 0 L 794.71875 0 L 794.71875 4 L 792 4 Z M 792 0 " clip-rule="nonzero"/></clipPath><clipPath id="id24"><path d="M 792 8 L 794.71875 8 L 794.71875 11 L 792 11 Z M 792 8 " clip-rule="nonzero"/></clipPath><clipPath id="id25"><path d="M 792 15 L 794.71875 15 L 794.71875 18 L 792 18 Z M 792 15 " clip-rule="nonzero"/></clipPath><clipPath id="id26"><path d="M 749 22 L 753 22 L 753 24.75 L 749 24.75 Z M 749 22 " clip-rule="nonzero"/></clipPath><clipPath id="id27"><path d="M 756 22 L 760 22 L 760 24.75 L 756 24.75 Z M 756 22 " clip-rule="nonzero"/></clipPath><clipPath id="id28"><path d="M 763 22 L 767 22 L 767 24.75 L 763 24.75 Z M 763 22 " clip-rule="nonzero"/></clipPath><clipPath id="id29"><path d="M 770 22 L 774 22 L 774 24.75 L 770 24.75 Z M 770 22 " clip-rule="nonzero"/></clipPath><clipPath id="id30"><path d="M 778 22 L 781 22 L 781 24.75 L 778 24.75 Z M 778 22 " clip-rule="nonzero"/></clipPath><clipPath id="id31"><path d="M 785 22 L 788 22 L 788 24.75 L 785 24.75 Z M 785 22 " clip-rule="nonzero"/></clipPath><clipPath id="id32"><path d="M 792 22 L 794.71875 22 L 794.71875 24.75 L 792 24.75 Z M 792 22 " clip-rule="nonzero"/></clipPath><clipPath id="id33"><path d="M 442.128906 3 L 445 3 L 445 7 L 442.128906 7 Z M 442.128906 3 " clip-rule="nonzero"/></clipPath><clipPath id="id34"><path d="M 442.128906 11 L 445 11 L 445 14 L 442.128906 14 Z M 442.128906 11 " clip-rule="nonzero"/></clipPath><clipPath id="id35"><path d="M 442.128906 18 L 445 18 L 445 21 L 442.128906 21 Z M 442.128906 18 " clip-rule="nonzero"/></clipPath><clipPath id="id36"><path d="M 442.128906 25 L 445 25 L 445 27.75 L 442.128906 27.75 Z M 442.128906 25 " clip-rule="nonzero"/></clipPath><clipPath id="id37"><path d="M 449 25 L 452 25 L 452 27.75 L 449 27.75 Z M 449 25 " clip-rule="nonzero"/></clipPath><clipPath id="id38"><path d="M 456 25 L 459 25 L 459 27.75 L 456 27.75 Z M 456 25 " clip-rule="nonzero"/></clipPath><clipPath id="id39"><path d="M 463 25 L 466 25 L 466 27.75 L 463 27.75 Z M 463 25 " clip-rule="nonzero"/></clipPath><clipPath id="id40"><path d="M 470 25 L 473 25 L 473 27.75 L 470 27.75 Z M 470 25 " clip-rule="nonzero"/></clipPath><clipPath id="id41"><path d="M 477 25 L 481 25 L 481 27.75 L 477 27.75 Z M 477 25 " clip-rule="nonzero"/></clipPath><clipPath id="id42"><path d="M 484 25 L 488 25 L 488 27.75 L 484 27.75 Z M 484 25 " clip-rule="nonzero"/></clipPath><clipPath id="id43"><path d="M 534 3 L 536.628906 3 L 536.628906 7 L 534 7 Z M 534 3 " clip-rule="nonzero"/></clipPath><clipPath id="id44"><path d="M 534 11 L 536.628906 11 L 536.628906 14 L 534 14 Z M 534 11 " clip-rule="nonzero"/></clipPath><clipPath id="id45"><path d="M 534 18 L 536.628906 18 L 536.628906 21 L 534 21 Z M 534 18 " clip-rule="nonzero"/></clipPath><clipPath id="id46"><path d="M 491 25 L 495 25 L 495 27.75 L 491 27.75 Z M 491 25 " clip-rule="nonzero"/></clipPath><clipPath id="id47"><path d="M 498 25 L 502 25 L 502 27.75 L 498 27.75 Z M 498 25 " clip-rule="nonzero"/></clipPath><clipPath id="id48"><path d="M 505 25 L 509 25 L 509 27.75 L 505 27.75 Z M 505 25 " clip-rule="nonzero"/></clipPath><clipPath id="id49"><path d="M 512 25 L 516 25 L 516 27.75 L 512 27.75 Z M 512 25 " clip-rule="nonzero"/></clipPath><clipPath id="id50"><path d="M 519 25 L 523 25 L 523 27.75 L 519 27.75 Z M 519 25 " clip-rule="nonzero"/></clipPath><clipPath id="id51"><path d="M 527 25 L 530 25 L 530 27.75 L 527 27.75 Z M 527 25 " clip-rule="nonzero"/></clipPath><clipPath id="id52"><path d="M 534 25 L 536.628906 25 L 536.628906 27.75 L 534 27.75 Z M 534 25 " clip-rule="nonzero"/></clipPath><clipPath id="id53"><path d="M 199.726562 0 L 203 0 L 203 4 L 199.726562 4 Z M 199.726562 0 " clip-rule="nonzero"/></clipPath><clipPath id="id54"><path d="M 199.726562 7 L 203 7 L 203 11 L 199.726562 11 Z M 199.726562 7 " clip-rule="nonzero"/></clipPath><clipPath id="id55"><path d="M 199.726562 14 L 203 14 L 203 18 L 199.726562 18 Z M 199.726562 14 " clip-rule="nonzero"/></clipPath><clipPath id="id56"><path d="M 199.726562 21 L 203 21 L 203 25 L 199.726562 25 Z M 199.726562 21 " clip-rule="nonzero"/></clipPath><clipPath id="id57"><path d="M 199.726562 29 L 203 29 L 203 31.5 L 199.726562 31.5 Z M 199.726562 29 " clip-rule="nonzero"/></clipPath><clipPath id="id58"><path d="M 206 29 L 210 29 L 210 31.5 L 206 31.5 Z M 206 29 " clip-rule="nonzero"/></clipPath><clipPath id="id59"><path d="M 213 29 L 217 29 L 217 31.5 L 213 31.5 Z M 213 29 " clip-rule="nonzero"/></clipPath><clipPath id="id60"><path d="M 220 29 L 224 29 L 224 31.5 L 220 31.5 Z M 220 29 " clip-rule="nonzero"/></clipPath><clipPath id="id61"><path d="M 228 29 L 231 29 L 231 31.5 L 228 31.5 Z M 228 29 " clip-rule="nonzero"/></clipPath><clipPath id="id62"><path d="M 235 29 L 238 29 L 238 31.5 L 235 31.5 Z M 235 29 " clip-rule="nonzero"/></clipPath><clipPath id="id63"><path d="M 242 29 L 245 29 L 245 31.5 L 242 31.5 Z M 242 29 " clip-rule="nonzero"/></clipPath><clipPath id="id64"><path d="M 291 0 L 294.226562 0 L 294.226562 4 L 291 4 Z M 291 0 " clip-rule="nonzero"/></clipPath><clipPath id="id65"><path d="M 291 7 L 294.226562 7 L 294.226562 11 L 291 11 Z M 291 7 " clip-rule="nonzero"/></clipPath><clipPath id="id66"><path d="M 291 14 L 294.226562 14 L 294.226562 18 L 291 18 Z M 291 14 " clip-rule="nonzero"/></clipPath><clipPath id="id67"><path d="M 291 21 L 294.226562 21 L 294.226562 25 L 291 25 Z M 291 21 " clip-rule="nonzero"/></clipPath><clipPath id="id68"><path d="M 249 29 L 252 29 L 252 31.5 L 249 31.5 Z M 249 29 " clip-rule="nonzero"/></clipPath><clipPath id="id69"><path d="M 256 29 L 259 29 L 259 31.5 L 256 31.5 Z M 256 29 " clip-rule="nonzero"/></clipPath><clipPath id="id70"><path d="M 263 29 L 266 29 L 266 31.5 L 263 31.5 Z M 263 29 " clip-rule="nonzero"/></clipPath><clipPath id="id71"><path d="M 270 29 L 273 29 L 273 31.5 L 270 31.5 Z M 270 29 " clip-rule="nonzero"/></clipPath><clipPath id="id72"><path d="M 277 29 L 281 29 L 281 31.5 L 277 31.5 Z M 277 29 " clip-rule="nonzero"/></clipPath><clipPath id="id73"><path d="M 284 29 L 288 29 L 288 31.5 L 284 31.5 Z M 284 29 " clip-rule="nonzero"/></clipPath><clipPath id="id74"><path d="M 291 29 L 294.226562 29 L 294.226562 31.5 L 291 31.5 Z M 291 29 " clip-rule="nonzero"/></clipPath></defs><path fill="#000000" d="M 5.289062 3.574219 C 4.601562 3.574219 4.046875 4.132812 4.046875 4.820312 C 4.046875 5.507812 4.601562 6.066406 5.289062 6.066406 C 5.972656 6.066406 6.53125 5.507812 6.53125 4.820312 C 6.53125 4.132812 5.972656 3.574219 5.289062 3.574219 " fill-opacity="1" fill-rule="nonzero"/><path fill="#000000" d="M 12.363281 3.574219 C 11.679688 3.574219 11.121094 4.132812 11.121094 4.820312 C 11.121094 5.507812 11.679688 6.066406 12.363281 6.066406 C 13.050781 6.066406 13.605469 5.507812 13.605469 4.820312 C 13.605469 4.132812 13.050781 3.574219 12.363281 3.574219 " fill-opacity="1" fill-rule="nonzero"/><path fill="#000000" d="M 19.4375 3.574219 C 18.753906 3.574219 18.195312 4.132812 18.195312 4.820312 C 18.195312 5.507812 18.753906 6.066406 19.4375 6.066406 C 20.125 6.066406 20.683594 5.507812 20.683594 4.820312 C 20.683594 4.132812 20.125 3.574219 19.4375 3.574219 " fill-opacity="1" fill-rule="nonzero"/><path fill="#000000" d="M 5.289062 10.621094 C 4.601562 10.621094 4.046875 11.179688 4.046875 11.867188 C 4.046875 12.554688 4.601562 13.113281 5.289062 13.113281 C 5.972656 13.113281 6.53125 12.554688 6.53125 11.867188 C 6.53125 11.179688 5.972656 10.621094 5.289062 10.621094 " fill-opacity="1" fill-rule="nonzero"/><path fill="#000000" d="M 12.363281 10.621094 C 11.679688 10.621094 11.121094 11.179688 11.121094 11.867188 C 11.121094 12.554688 11.679688 13.113281 12.363281 13.113281 C 13.050781 13.113281 13.605469 12.554688 13.605469 11.867188 C 13.605469 11.179688 13.050781 10.621094 12.363281 10.621094 " fill-opacity="1" fill-rule="nonzero"/><path fill="#000000" d="M 19.4375 10.621094 C 18.753906 10.621094 18.195312 11.179688 18.195312 11.867188 C 18.195312 12.554688 18.753906 13.113281 19.4375 13.113281 C 20.125 13.113281 20.683594 12.554688 20.683594 11.867188 C 20.683594 11.179688 20.125 10.621094 19.4375 10.621094 " fill-opacity="1" fill-rule="nonzero"/><g clip-path="url(#id1)"><path fill="#000000" d="M 5.289062 17.757812 C 4.601562 17.757812 4.046875 18.316406 4.046875 19.003906 C 4.046875 19.691406 4.601562 20.25 5.289062 20.25 C 5.972656 20.25 6.53125 19.691406 6.53125 19.003906 C 6.53125 18.316406 5.972656 17.757812 5.289062 17.757812 " fill-opacity="1" fill-rule="nonzero"/></g><g clip-path="url(#id2)"><path fill="#000000" d="M 12.363281 17.757812 C 11.679688 17.757812 11.121094 18.316406 11.121094 19.003906 C 11.121094 19.691406 11.679688 20.25 12.363281 20.25 C 13.050781 20.25 13.605469 19.691406 13.605469 19.003906 C 13.605469 18.316406 13.050781 17.757812 12.363281 17.757812 " fill-opacity="1" fill-rule="nonzero"/></g><g clip-path="url(#id3)"><path fill="#000000" d="M 19.4375 17.757812 C 18.753906 17.757812 18.195312 18.316406 18.195312 19.003906 C 18.195312 19.691406 18.753906 20.25 19.4375 20.25 C 20.125 20.25 20.683594 19.691406 20.683594 19.003906 C 20.683594 18.316406 20.125 17.757812 19.4375 17.757812 " fill-opacity="1" fill-rule="nonzero"/></g><path fill="#000000" d="M 26.511719 3.574219 C 25.828125 3.574219 25.269531 4.132812 25.269531 4.820312 C 25.269531 5.507812 25.828125 6.066406 26.511719 6.066406 C 27.199219 6.066406 27.753906 5.507812 27.753906 4.820312 C 27.753906 4.132812 27.199219 3.574219 26.511719 3.574219 " fill-opacity="1" fill-rule="nonzero"/><path fill="#000000" d="M 33.589844 3.574219 C 32.902344 3.574219 32.34375 4.132812 32.34375 4.820312 C 32.34375 5.507812 32.902344 6.066406 33.589844 6.066406 C 34.273438 6.066406 34.832031 5.507812 34.832031 4.820312 C 34.832031 4.132812 34.273438 3.574219 33.589844 3.574219 " fill-opacity="1" fill-rule="nonzero"/><path fill="#000000" d="M 40.664062 3.574219 C 39.976562 3.574219 39.421875 4.132812 39.421875 4.820312 C 39.421875 5.507812 39.976562 6.066406 40.664062 6.066406 C 41.347656 6.066406 41.90625 5.507812 41.90625 4.820312 C 41.90625 4.132812 41.347656 3.574219 40.664062 3.574219 " fill-opacity="1" fill-rule="nonzero"/><path fill="#000000" d="M 47.738281 3.574219 C 47.054688 3.574219 46.496094 4.132812 46.496094 4.820312 C 46.496094 5.507812 47.054688 6.066406 47.738281 6.066406 C 48.425781 6.066406 48.980469 5.507812 48.980469 4.820312 C 48.980469 4.132812 48.425781 3.574219 47.738281 3.574219 " fill-opacity="1" fill-rule="nonzero"/><path fill="#000000" d="M 54.816406 3.574219 C 54.128906 3.574219 53.570312 4.132812 53.570312 4.820312 C 53.570312 5.507812 54.128906 6.066406 54.816406 6.066406 C 55.5 6.066406 56.058594 5.507812 56.058594 4.820312 C 56.058594 4.132812 55.5 3.574219 54.816406 3.574219 " fill-opacity="1" fill-rule="nonzero"/><path fill="#000000" d="M 61.890625 3.574219 C 61.207031 3.574219 60.648438 4.132812 60.648438 4.820312 C 60.648438 5.507812 61.207031 6.066406 61.890625 6.066406 C 62.574219 6.066406 63.132812 5.507812 63.132812 4.820312 C 63.132812 4.132812 62.574219 3.574219 61.890625 3.574219 " fill-opacity="1" fill-rule="nonzero"/><g clip-path="url(#id4)"><path fill="#000000" d="M 68.964844 3.574219 C 68.28125 3.574219 67.722656 4.132812 67.722656 4.820312 C 67.722656 5.507812 68.28125 6.066406 68.964844 6.066406 C 69.652344 6.066406 70.210938 5.507812 70.210938 4.820312 C 70.210938 4.132812 69.652344 3.574219 68.964844 3.574219 " fill-opacity="1" fill-rule="nonzero"/></g><path fill="#000000" d="M 26.511719 10.621094 C 25.828125 10.621094 25.269531 11.179688 25.269531 11.867188 C 25.269531 12.554688 25.828125 13.113281 26.511719 13.113281 C 27.199219 13.113281 27.753906 12.554688 27.753906 11.867188 C 27.753906 11.179688 27.199219 10.621094 26.511719 10.621094 " fill-opacity="1" fill-rule="nonzero"/><path fill="#000000" d="M 33.589844 10.621094 C 32.902344 10.621094 32.34375 11.179688 32.34375 11.867188 C 32.34375 12.554688 32.902344 13.113281 33.589844 13.113281 C 34.273438 13.113281 34.832031 12.554688 34.832031 11.867188 C 34.832031 11.179688 34.273438 10.621094 33.589844 10.621094 " fill-opacity="1" fill-rule="nonzero"/><path fill="#000000" d="M 40.664062 10.621094 C 39.976562 10.621094 39.421875 11.179688 39.421875 11.867188 C 39.421875 12.554688 39.976562 13.113281 40.664062 13.113281 C 41.347656 13.113281 41.90625 12.554688 41.90625 11.867188 C 41.90625 11.179688 41.347656 10.621094 40.664062 10.621094 " fill-opacity="1" fill-rule="nonzero"/><path fill="#000000" d="M 47.738281 10.621094 C 47.054688 10.621094 46.496094 11.179688 46.496094 11.867188 C 46.496094 12.554688 47.054688 13.113281 47.738281 13.113281 C 48.425781 13.113281 48.980469 12.554688 48.980469 11.867188 C 48.980469 11.179688 48.425781 10.621094 47.738281 10.621094 " fill-opacity="1" fill-rule="nonzero"/><path fill="#000000" d="M 54.816406 10.621094 C 54.128906 10.621094 53.570312 11.179688 53.570312 11.867188 C 53.570312 12.554688 54.128906 13.113281 54.816406 13.113281 C 55.5 13.113281 56.058594 12.554688 56.058594 11.867188 C 56.058594 11.179688 55.5 10.621094 54.816406 10.621094 " fill-opacity="1" fill-rule="nonzero"/><path fill="#000000" d="M 61.890625 10.621094 C 61.207031 10.621094 60.648438 11.179688 60.648438 11.867188 C 60.648438 12.554688 61.207031 13.113281 61.890625 13.113281 C 62.574219 13.113281 63.132812 12.554688 63.132812 11.867188 C 63.132812 11.179688 62.574219 10.621094 61.890625 10.621094 " fill-opacity="1" fill-rule="nonzero"/><g clip-path="url(#id5)"><path fill="#000000" d="M 68.964844 10.621094 C 68.28125 10.621094 67.722656 11.179688 67.722656 11.867188 C 67.722656 12.554688 68.28125 13.113281 68.964844 13.113281 C 69.652344 13.113281 70.210938 12.554688 70.210938 11.867188 C 70.210938 11.179688 69.652344 10.621094 68.964844 10.621094 " fill-opacity="1" fill-rule="nonzero"/></g><g clip-path="url(#id6)"><path fill="#000000" d="M 26.511719 17.757812 C 25.828125 17.757812 25.269531 18.316406 25.269531 19.003906 C 25.269531 19.691406 25.828125 20.25 26.511719 20.25 C 27.199219 20.25 27.753906 19.691406 27.753906 19.003906 C 27.753906 18.316406 27.199219 17.757812 26.511719 17.757812 " fill-opacity="1" fill-rule="nonzero"/></g><g clip-path="url(#id7)"><path fill="#000000" d="M 33.589844 17.757812 C 32.902344 17.757812 32.34375 18.316406 32.34375 19.003906 C 32.34375 19.691406 32.902344 20.25 33.589844 20.25 C 34.273438 20.25 34.832031 19.691406 34.832031 19.003906 C 34.832031 18.316406 34.273438 17.757812 33.589844 17.757812 " fill-opacity="1" fill-rule="nonzero"/></g><g clip-path="url(#id8)"><path fill="#000000" d="M 40.664062 17.757812 C 39.976562 17.757812 39.421875 18.316406 39.421875 19.003906 C 39.421875 19.691406 39.976562 20.25 40.664062 20.25 C 41.347656 20.25 41.90625 19.691406 41.90625 19.003906 C 41.90625 18.316406 41.347656 17.757812 40.664062 17.757812 " fill-opacity="1" fill-rule="nonzero"/></g><g clip-path="url(#id9)"><path fill="#000000" d="M 47.738281 17.757812 C 47.054688 17.757812 46.496094 18.316406 46.496094 19.003906 C 46.496094 19.691406 47.054688 20.25 47.738281 20.25 C 48.425781 20.25 48.980469 19.691406 48.980469 19.003906 C 48.980469 18.316406 48.425781 17.757812 47.738281 17.757812 " fill-opacity="1" fill-rule="nonzero"/></g><g clip-path="url(#id10)"><path fill="#000000" d="M 54.816406 17.757812 C 54.128906 17.757812 53.570312 18.316406 53.570312 19.003906 C 53.570312 19.691406 54.128906 20.25 54.816406 20.25 C 55.5 20.25 56.058594 19.691406 56.058594 19.003906 C 56.058594 18.316406 55.5 17.757812 54.816406 17.757812 " fill-opacity="1" fill-rule="nonzero"/></g><g clip-path="url(#id11)"><path fill="#000000" d="M 61.890625 17.757812 C 61.207031 17.757812 60.648438 18.316406 60.648438 19.003906 C 60.648438 19.691406 61.207031 20.25 61.890625 20.25 C 62.574219 20.25 63.132812 19.691406 63.132812 19.003906 C 63.132812 18.316406 62.574219 17.757812 61.890625 17.757812 " fill-opacity="1" fill-rule="nonzero"/></g><g clip-path="url(#id12)"><path fill="#000000" d="M 68.964844 17.757812 C 68.28125 17.757812 67.722656 18.316406 67.722656 19.003906 C 67.722656 19.691406 68.28125 20.25 68.964844 20.25 C 69.652344 20.25 70.210938 19.691406 70.210938 19.003906 C 70.210938 18.316406 69.652344 17.757812 68.964844 17.757812 " fill-opacity="1" fill-rule="nonzero"/></g><g clip-path="url(#id13)"><path fill="#000000" d="M 701.484375 0.980469 C 700.800781 0.980469 700.242188 1.539062 700.242188 2.226562 C 700.242188 2.914062 700.800781 3.472656 701.484375 3.472656 C 702.171875 3.472656 702.726562 2.914062 702.726562 2.226562 C 702.726562 1.539062 702.171875 0.980469 701.484375 0.980469 " fill-opacity="1" fill-rule="nonzero"/></g><path fill="#000000" d="M 708.5625 0.980469 C 707.875 0.980469 707.316406 1.539062 707.316406 2.226562 C 707.316406 2.914062 707.875 3.472656 708.5625 3.472656 C 709.246094 3.472656 709.804688 2.914062 709.804688 2.226562 C 709.804688 1.539062 709.246094 0.980469 708.5625 0.980469 " fill-opacity="1" fill-rule="nonzero"/><path fill="#000000" d="M 715.636719 0.980469 C 714.953125 0.980469 714.394531 1.539062 714.394531 2.226562 C 714.394531 2.914062 714.953125 3.472656 715.636719 3.472656 C 716.320312 3.472656 716.878906 2.914062 716.878906 2.226562 C 716.878906 1.539062 716.320312 0.980469 715.636719 0.980469 " fill-opacity="1" fill-rule="nonzero"/><path fill="#000000" d="M 722.710938 0.980469 C 722.027344 0.980469 721.46875 1.539062 721.46875 2.226562 C 721.46875 2.914062 722.027344 3.472656 722.710938 3.472656 C 723.398438 3.472656 723.957031 2.914062 723.957031 2.226562 C 723.957031 1.539062 723.398438 0.980469 722.710938 0.980469 " fill-opacity="1" fill-rule="nonzero"/><path fill="#000000" d="M 729.789062 0.980469 C 729.101562 0.980469 728.546875 1.539062 728.546875 2.226562 C 728.546875 2.914062 729.101562 3.472656 729.789062 3.472656 C 730.472656 3.472656 731.03125 2.914062 731.03125 2.226562 C 731.03125 1.539062 730.472656 0.980469 729.789062 0.980469 " fill-opacity="1" fill-rule="nonzero"/><path fill="#000000" d="M 736.863281 0.980469 C 736.179688 0.980469 735.621094 1.539062 735.621094 2.226562 C 735.621094 2.914062 736.179688 3.472656 736.863281 3.472656 C 737.550781 3.472656 738.105469 2.914062 738.105469 2.226562 C 738.105469 1.539062 737.550781 0.980469 736.863281 0.980469 " fill-opacity="1" fill-rule="nonzero"/><path fill="#000000" d="M 743.9375 0.980469 C 743.253906 0.980469 742.695312 1.539062 742.695312 2.226562 C 742.695312 2.914062 743.253906 3.472656 743.9375 3.472656 C 744.625 3.472656 745.183594 2.914062 745.183594 2.226562 C 745.183594 1.539062 744.625 0.980469 743.9375 0.980469 " fill-opacity="1" fill-rule="nonzero"/><g clip-path="url(#id14)"><path fill="#000000" d="M 701.484375 8.074219 C 700.800781 8.074219 700.242188 8.632812 700.242188 9.320312 C 700.242188 10.007812 700.800781 10.566406 701.484375 10.566406 C 702.171875 10.566406 702.726562 10.007812 702.726562 9.320312 C 702.726562 8.632812 702.171875 8.074219 701.484375 8.074219 " fill-opacity="1" fill-rule="nonzero"/></g><path fill="#000000" d="M 708.5625 8.074219 C 707.875 8.074219 707.316406 8.632812 707.316406 9.320312 C 707.316406 10.007812 707.875 10.566406 708.5625 10.566406 C 709.246094 10.566406 709.804688 10.007812 709.804688 9.320312 C 709.804688 8.632812 709.246094 8.074219 708.5625 8.074219 " fill-opacity="1" fill-rule="nonzero"/><path fill="#000000" d="M 715.636719 8.074219 C 714.953125 8.074219 714.394531 8.632812 714.394531 9.320312 C 714.394531 10.007812 714.953125 10.566406 715.636719 10.566406 C 716.320312 10.566406 716.878906 10.007812 716.878906 9.320312 C 716.878906 8.632812 716.320312 8.074219 715.636719 8.074219 " fill-opacity="1" fill-rule="nonzero"/><path fill="#000000" d="M 722.710938 8.074219 C 722.027344 8.074219 721.46875 8.632812 721.46875 9.320312 C 721.46875 10.007812 722.027344 10.566406 722.710938 10.566406 C 723.398438 10.566406 723.957031 10.007812 723.957031 9.320312 C 723.957031 8.632812 723.398438 8.074219 722.710938 8.074219 " fill-opacity="1" fill-rule="nonzero"/><path fill="#000000" d="M 729.789062 8.074219 C 729.101562 8.074219 728.546875 8.632812 728.546875 9.320312 C 728.546875 10.007812 729.101562 10.566406 729.789062 10.566406 C 730.472656 10.566406 731.03125 10.007812 731.03125 9.320312 C 731.03125 8.632812 730.472656 8.074219 729.789062 8.074219 " fill-opacity="1" fill-rule="nonzero"/><path fill="#000000" d="M 736.863281 8.074219 C 736.179688 8.074219 735.621094 8.632812 735.621094 9.320312 C 735.621094 10.007812 736.179688 10.566406 736.863281 10.566406 C 737.550781 10.566406 738.105469 10.007812 738.105469 9.320312 C 738.105469 8.632812 737.550781 8.074219 736.863281 8.074219 " fill-opacity="1" fill-rule="nonzero"/><path fill="#000000" d="M 743.9375 8.074219 C 743.253906 8.074219 742.695312 8.632812 742.695312 9.320312 C 742.695312 10.007812 743.253906 10.566406 743.9375 10.566406 C 744.625 10.566406 745.183594 10.007812 745.183594 9.320312 C 745.183594 8.632812 744.625 8.074219 743.9375 8.074219 " fill-opacity="1" fill-rule="nonzero"/><g clip-path="url(#id15)"><path fill="#000000" d="M 701.484375 15.121094 C 700.800781 15.121094 700.242188 15.679688 700.242188 16.367188 C 700.242188 17.054688 700.800781 17.613281 701.484375 17.613281 C 702.171875 17.613281 702.726562 17.054688 702.726562 16.367188 C 702.726562 15.679688 702.171875 15.121094 701.484375 15.121094 " fill-opacity="1" fill-rule="nonzero"/></g><path fill="#000000" d="M 708.5625 15.121094 C 707.875 15.121094 707.316406 15.679688 707.316406 16.367188 C 707.316406 17.054688 707.875 17.613281 708.5625 17.613281 C 709.246094 17.613281 709.804688 17.054688 709.804688 16.367188 C 709.804688 15.679688 709.246094 15.121094 708.5625 15.121094 " fill-opacity="1" fill-rule="nonzero"/><path fill="#000000" d="M 715.636719 15.121094 C 714.953125 15.121094 714.394531 15.679688 714.394531 16.367188 C 714.394531 17.054688 714.953125 17.613281 715.636719 17.613281 C 716.320312 17.613281 716.878906 17.054688 716.878906 16.367188 C 716.878906 15.679688 716.320312 15.121094 715.636719 15.121094 " fill-opacity="1" fill-rule="nonzero"/><path fill="#000000" d="M 722.710938 15.121094 C 722.027344 15.121094 721.46875 15.679688 721.46875 16.367188 C 721.46875 17.054688 722.027344 17.613281 722.710938 17.613281 C 723.398438 17.613281 723.957031 17.054688 723.957031 16.367188 C 723.957031 15.679688 723.398438 15.121094 722.710938 15.121094 " fill-opacity="1" fill-rule="nonzero"/><path fill="#000000" d="M 729.789062 15.121094 C 729.101562 15.121094 728.546875 15.679688 728.546875 16.367188 C 728.546875 17.054688 729.101562 17.613281 729.789062 17.613281 C 730.472656 17.613281 731.03125 17.054688 731.03125 16.367188 C 731.03125 15.679688 730.472656 15.121094 729.789062 15.121094 " fill-opacity="1" fill-rule="nonzero"/><path fill="#000000" d="M 736.863281 15.121094 C 736.179688 15.121094 735.621094 15.679688 735.621094 16.367188 C 735.621094 17.054688 736.179688 17.613281 736.863281 17.613281 C 737.550781 17.613281 738.105469 17.054688 738.105469 16.367188 C 738.105469 15.679688 737.550781 15.121094 736.863281 15.121094 " fill-opacity="1" fill-rule="nonzero"/><path fill="#000000" d="M 743.9375 15.121094 C 743.253906 15.121094 742.695312 15.679688 742.695312 16.367188 C 742.695312 17.054688 743.253906 17.613281 743.9375 17.613281 C 744.625 17.613281 745.183594 17.054688 745.183594 16.367188 C 745.183594 15.679688 744.625 15.121094 743.9375 15.121094 " fill-opacity="1" fill-rule="nonzero"/><g clip-path="url(#id16)"><path fill="#000000" d="M 701.484375 22.257812 C 700.800781 22.257812 700.242188 22.816406 700.242188 23.503906 C 700.242188 24.191406 700.800781 24.75 701.484375 24.75 C 702.171875 24.75 702.726562 24.191406 702.726562 23.503906 C 702.726562 22.816406 702.171875 22.257812 701.484375 22.257812 " fill-opacity="1" fill-rule="nonzero"/></g><g clip-path="url(#id17)"><path fill="#000000" d="M 708.5625 22.257812 C 707.875 22.257812 707.316406 22.816406 707.316406 23.503906 C 707.316406 24.191406 707.875 24.75 708.5625 24.75 C 709.246094 24.75 709.804688 24.191406 709.804688 23.503906 C 709.804688 22.816406 709.246094 22.257812 708.5625 22.257812 " fill-opacity="1" fill-rule="nonzero"/></g><g clip-path="url(#id18)"><path fill="#000000" d="M 715.636719 22.257812 C 714.953125 22.257812 714.394531 22.816406 714.394531 23.503906 C 714.394531 24.191406 714.953125 24.75 715.636719 24.75 C 716.320312 24.75 716.878906 24.191406 716.878906 23.503906 C 716.878906 22.816406 716.320312 22.257812 715.636719 22.257812 " fill-opacity="1" fill-rule="nonzero"/></g><g clip-path="url(#id19)"><path fill="#000000" d="M 722.710938 22.257812 C 722.027344 22.257812 721.46875 22.816406 721.46875 23.503906 C 721.46875 24.191406 722.027344 24.75 722.710938 24.75 C 723.398438 24.75 723.957031 24.191406 723.957031 23.503906 C 723.957031 22.816406 723.398438 22.257812 722.710938 22.257812 " fill-opacity="1" fill-rule="nonzero"/></g><g clip-path="url(#id20)"><path fill="#000000" d="M 729.789062 22.257812 C 729.101562 22.257812 728.546875 22.816406 728.546875 23.503906 C 728.546875 24.191406 729.101562 24.75 729.789062 24.75 C 730.472656 24.75 731.03125 24.191406 731.03125 23.503906 C 731.03125 22.816406 730.472656 22.257812 729.789062 22.257812 " fill-opacity="1" fill-rule="nonzero"/></g><g clip-path="url(#id21)"><path fill="#000000" d="M 736.863281 22.257812 C 736.179688 22.257812 735.621094 22.816406 735.621094 23.503906 C 735.621094 24.191406 736.179688 24.75 736.863281 24.75 C 737.550781 24.75 738.105469 24.191406 738.105469 23.503906 C 738.105469 22.816406 737.550781 22.257812 736.863281 22.257812 " fill-opacity="1" fill-rule="nonzero"/></g><g clip-path="url(#id22)"><path fill="#000000" d="M 743.9375 22.257812 C 743.253906 22.257812 742.695312 22.816406 742.695312 23.503906 C 742.695312 24.191406 743.253906 24.75 743.9375 24.75 C 744.625 24.75 745.183594 24.191406 745.183594 23.503906 C 745.183594 22.816406 744.625 22.257812 743.9375 22.257812 " fill-opacity="1" fill-rule="nonzero"/></g><path fill="#000000" d="M 751.011719 0.980469 C 750.328125 0.980469 749.769531 1.539062 749.769531 2.226562 C 749.769531 2.914062 750.328125 3.472656 751.011719 3.472656 C 751.699219 3.472656 752.253906 2.914062 752.253906 2.226562 C 752.253906 1.539062 751.699219 0.980469 751.011719 0.980469 " fill-opacity="1" fill-rule="nonzero"/><path fill="#000000" d="M 758.089844 0.980469 C 757.402344 0.980469 756.84375 1.539062 756.84375 2.226562 C 756.84375 2.914062 757.402344 3.472656 758.089844 3.472656 C 758.773438 3.472656 759.332031 2.914062 759.332031 2.226562 C 759.332031 1.539062 758.773438 0.980469 758.089844 0.980469 " fill-opacity="1" fill-rule="nonzero"/><path fill="#000000" d="M 765.164062 0.980469 C 764.476562 0.980469 763.921875 1.539062 763.921875 2.226562 C 763.921875 2.914062 764.476562 3.472656 765.164062 3.472656 C 765.847656 3.472656 766.40625 2.914062 766.40625 2.226562 C 766.40625 1.539062 765.847656 0.980469 765.164062 0.980469 " fill-opacity="1" fill-rule="nonzero"/><path fill="#000000" d="M 772.238281 0.980469 C 771.554688 0.980469 770.996094 1.539062 770.996094 2.226562 C 770.996094 2.914062 771.554688 3.472656 772.238281 3.472656 C 772.925781 3.472656 773.480469 2.914062 773.480469 2.226562 C 773.480469 1.539062 772.925781 0.980469 772.238281 0.980469 " fill-opacity="1" fill-rule="nonzero"/><path fill="#000000" d="M 779.316406 0.980469 C 778.628906 0.980469 778.070312 1.539062 778.070312 2.226562 C 778.070312 2.914062 778.628906 3.472656 779.316406 3.472656 C 780 3.472656 780.558594 2.914062 780.558594 2.226562 C 780.558594 1.539062 780 0.980469 779.316406 0.980469 " fill-opacity="1" fill-rule="nonzero"/><path fill="#000000" d="M 786.390625 0.980469 C 785.707031 0.980469 785.148438 1.539062 785.148438 2.226562 C 785.148438 2.914062 785.707031 3.472656 786.390625 3.472656 C 787.074219 3.472656 787.632812 2.914062 787.632812 2.226562 C 787.632812 1.539062 787.074219 0.980469 786.390625 0.980469 " fill-opacity="1" fill-rule="nonzero"/><g clip-path="url(#id23)"><path fill="#000000" d="M 793.464844 0.980469 C 792.78125 0.980469 792.222656 1.539062 792.222656 2.226562 C 792.222656 2.914062 792.78125 3.472656 793.464844 3.472656 C 794.152344 3.472656 794.710938 2.914062 794.710938 2.226562 C 794.710938 1.539062 794.152344 0.980469 793.464844 0.980469 " fill-opacity="1" fill-rule="nonzero"/></g><path fill="#000000" d="M 751.011719 8.074219 C 750.328125 8.074219 749.769531 8.632812 749.769531 9.320312 C 749.769531 10.007812 750.328125 10.566406 751.011719 10.566406 C 751.699219 10.566406 752.253906 10.007812 752.253906 9.320312 C 752.253906 8.632812 751.699219 8.074219 751.011719 8.074219 " fill-opacity="1" fill-rule="nonzero"/><path fill="#000000" d="M 758.089844 8.074219 C 757.402344 8.074219 756.84375 8.632812 756.84375 9.320312 C 756.84375 10.007812 757.402344 10.566406 758.089844 10.566406 C 758.773438 10.566406 759.332031 10.007812 759.332031 9.320312 C 759.332031 8.632812 758.773438 8.074219 758.089844 8.074219 " fill-opacity="1" fill-rule="nonzero"/><path fill="#000000" d="M 765.164062 8.074219 C 764.476562 8.074219 763.921875 8.632812 763.921875 9.320312 C 763.921875 10.007812 764.476562 10.566406 765.164062 10.566406 C 765.847656 10.566406 766.40625 10.007812 766.40625 9.320312 C 766.40625 8.632812 765.847656 8.074219 765.164062 8.074219 " fill-opacity="1" fill-rule="nonzero"/><path fill="#000000" d="M 772.238281 8.074219 C 771.554688 8.074219 770.996094 8.632812 770.996094 9.320312 C 770.996094 10.007812 771.554688 10.566406 772.238281 10.566406 C 772.925781 10.566406 773.480469 10.007812 773.480469 9.320312 C 773.480469 8.632812 772.925781 8.074219 772.238281 8.074219 " fill-opacity="1" fill-rule="nonzero"/><path fill="#000000" d="M 779.316406 8.074219 C 778.628906 8.074219 778.070312 8.632812 778.070312 9.320312 C 778.070312 10.007812 778.628906 10.566406 779.316406 10.566406 C 780 10.566406 780.558594 10.007812 780.558594 9.320312 C 780.558594 8.632812 780 8.074219 779.316406 8.074219 " fill-opacity="1" fill-rule="nonzero"/><path fill="#000000" d="M 786.390625 8.074219 C 785.707031 8.074219 785.148438 8.632812 785.148438 9.320312 C 785.148438 10.007812 785.707031 10.566406 786.390625 10.566406 C 787.074219 10.566406 787.632812 10.007812 787.632812 9.320312 C 787.632812 8.632812 787.074219 8.074219 786.390625 8.074219 " fill-opacity="1" fill-rule="nonzero"/><g clip-path="url(#id24)"><path fill="#000000" d="M 793.464844 8.074219 C 792.78125 8.074219 792.222656 8.632812 792.222656 9.320312 C 792.222656 10.007812 792.78125 10.566406 793.464844 10.566406 C 794.152344 10.566406 794.710938 10.007812 794.710938 9.320312 C 794.710938 8.632812 794.152344 8.074219 793.464844 8.074219 " fill-opacity="1" fill-rule="nonzero"/></g><path fill="#000000" d="M 751.011719 15.121094 C 750.328125 15.121094 749.769531 15.679688 749.769531 16.367188 C 749.769531 17.054688 750.328125 17.613281 751.011719 17.613281 C 751.699219 17.613281 752.253906 17.054688 752.253906 16.367188 C 752.253906 15.679688 751.699219 15.121094 751.011719 15.121094 " fill-opacity="1" fill-rule="nonzero"/><path fill="#000000" d="M 758.089844 15.121094 C 757.402344 15.121094 756.84375 15.679688 756.84375 16.367188 C 756.84375 17.054688 757.402344 17.613281 758.089844 17.613281 C 758.773438 17.613281 759.332031 17.054688 759.332031 16.367188 C 759.332031 15.679688 758.773438 15.121094 758.089844 15.121094 " fill-opacity="1" fill-rule="nonzero"/><path fill="#000000" d="M 765.164062 15.121094 C 764.476562 15.121094 763.921875 15.679688 763.921875 16.367188 C 763.921875 17.054688 764.476562 17.613281 765.164062 17.613281 C 765.847656 17.613281 766.40625 17.054688 766.40625 16.367188 C 766.40625 15.679688 765.847656 15.121094 765.164062 15.121094 " fill-opacity="1" fill-rule="nonzero"/><path fill="#000000" d="M 772.238281 15.121094 C 771.554688 15.121094 770.996094 15.679688 770.996094 16.367188 C 770.996094 17.054688 771.554688 17.613281 772.238281 17.613281 C 772.925781 17.613281 773.480469 17.054688 773.480469 16.367188 C 773.480469 15.679688 772.925781 15.121094 772.238281 15.121094 " fill-opacity="1" fill-rule="nonzero"/><path fill="#000000" d="M 779.316406 15.121094 C 778.628906 15.121094 778.070312 15.679688 778.070312 16.367188 C 778.070312 17.054688 778.628906 17.613281 779.316406 17.613281 C 780 17.613281 780.558594 17.054688 780.558594 16.367188 C 780.558594 15.679688 780 15.121094 779.316406 15.121094 " fill-opacity="1" fill-rule="nonzero"/><path fill="#000000" d="M 786.390625 15.121094 C 785.707031 15.121094 785.148438 15.679688 785.148438 16.367188 C 785.148438 17.054688 785.707031 17.613281 786.390625 17.613281 C 787.074219 17.613281 787.632812 17.054688 787.632812 16.367188 C 787.632812 15.679688 787.074219 15.121094 786.390625 15.121094 " fill-opacity="1" fill-rule="nonzero"/><g clip-path="url(#id25)"><path fill="#000000" d="M 793.464844 15.121094 C 792.78125 15.121094 792.222656 15.679688 792.222656 16.367188 C 792.222656 17.054688 792.78125 17.613281 793.464844 17.613281 C 794.152344 17.613281 794.710938 17.054688 794.710938 16.367188 C 794.710938 15.679688 794.152344 15.121094 793.464844 15.121094 " fill-opacity="1" fill-rule="nonzero"/></g><g clip-path="url(#id26)"><path fill="#000000" d="M 751.011719 22.257812 C 750.328125 22.257812 749.769531 22.816406 749.769531 23.503906 C 749.769531 24.191406 750.328125 24.75 751.011719 24.75 C 751.699219 24.75 752.253906 24.191406 752.253906 23.503906 C 752.253906 22.816406 751.699219 22.257812 751.011719 22.257812 " fill-opacity="1" fill-rule="nonzero"/></g><g clip-path="url(#id27)"><path fill="#000000" d="M 758.089844 22.257812 C 757.402344 22.257812 756.84375 22.816406 756.84375 23.503906 C 756.84375 24.191406 757.402344 24.75 758.089844 24.75 C 758.773438 24.75 759.332031 24.191406 759.332031 23.503906 C 759.332031 22.816406 758.773438 22.257812 758.089844 22.257812 " fill-opacity="1" fill-rule="nonzero"/></g><g clip-path="url(#id28)"><path fill="#000000" d="M 765.164062 22.257812 C 764.476562 22.257812 763.921875 22.816406 763.921875 23.503906 C 763.921875 24.191406 764.476562 24.75 765.164062 24.75 C 765.847656 24.75 766.40625 24.191406 766.40625 23.503906 C 766.40625 22.816406 765.847656 22.257812 765.164062 22.257812 " fill-opacity="1" fill-rule="nonzero"/></g><g clip-path="url(#id29)"><path fill="#000000" d="M 772.238281 22.257812 C 771.554688 22.257812 770.996094 22.816406 770.996094 23.503906 C 770.996094 24.191406 771.554688 24.75 772.238281 24.75 C 772.925781 24.75 773.480469 24.191406 773.480469 23.503906 C 773.480469 22.816406 772.925781 22.257812 772.238281 22.257812 " fill-opacity="1" fill-rule="nonzero"/></g><g clip-path="url(#id30)"><path fill="#000000" d="M 779.316406 22.257812 C 778.628906 22.257812 778.070312 22.816406 778.070312 23.503906 C 778.070312 24.191406 778.628906 24.75 779.316406 24.75 C 780 24.75 780.558594 24.191406 780.558594 23.503906 C 780.558594 22.816406 780 22.257812 779.316406 22.257812 " fill-opacity="1" fill-rule="nonzero"/></g><g clip-path="url(#id31)"><path fill="#000000" d="M 786.390625 22.257812 C 785.707031 22.257812 785.148438 22.816406 785.148438 23.503906 C 785.148438 24.191406 785.707031 24.75 786.390625 24.75 C 787.074219 24.75 787.632812 24.191406 787.632812 23.503906 C 787.632812 22.816406 787.074219 22.257812 786.390625 22.257812 " fill-opacity="1" fill-rule="nonzero"/></g><g clip-path="url(#id32)"><path fill="#000000" d="M 793.464844 22.257812 C 792.78125 22.257812 792.222656 22.816406 792.222656 23.503906 C 792.222656 24.191406 792.78125 24.75 793.464844 24.75 C 794.152344 24.75 794.710938 24.191406 794.710938 23.503906 C 794.710938 22.816406 794.152344 22.257812 793.464844 22.257812 " fill-opacity="1" fill-rule="nonzero"/></g><g clip-path="url(#id33)"><path fill="#000000" d="M 443.394531 3.980469 C 442.710938 3.980469 442.152344 4.539062 442.152344 5.226562 C 442.152344 5.914062 442.710938 6.472656 443.394531 6.472656 C 444.082031 6.472656 444.636719 5.914062 444.636719 5.226562 C 444.636719 4.539062 444.082031 3.980469 443.394531 3.980469 " fill-opacity="1" fill-rule="nonzero"/></g><path fill="#000000" d="M 450.472656 3.980469 C 449.785156 3.980469 449.226562 4.539062 449.226562 5.226562 C 449.226562 5.914062 449.785156 6.472656 450.472656 6.472656 C 451.15625 6.472656 451.714844 5.914062 451.714844 5.226562 C 451.714844 4.539062 451.15625 3.980469 450.472656 3.980469 " fill-opacity="1" fill-rule="nonzero"/><path fill="#000000" d="M 457.546875 3.980469 C 456.863281 3.980469 456.304688 4.539062 456.304688 5.226562 C 456.304688 5.914062 456.863281 6.472656 457.546875 6.472656 C 458.230469 6.472656 458.789062 5.914062 458.789062 5.226562 C 458.789062 4.539062 458.230469 3.980469 457.546875 3.980469 " fill-opacity="1" fill-rule="nonzero"/><path fill="#000000" d="M 464.621094 3.980469 C 463.9375 3.980469 463.378906 4.539062 463.378906 5.226562 C 463.378906 5.914062 463.9375 6.472656 464.621094 6.472656 C 465.308594 6.472656 465.867188 5.914062 465.867188 5.226562 C 465.867188 4.539062 465.308594 3.980469 464.621094 3.980469 " fill-opacity="1" fill-rule="nonzero"/><path fill="#000000" d="M 471.699219 3.980469 C 471.011719 3.980469 470.457031 4.539062 470.457031 5.226562 C 470.457031 5.914062 471.011719 6.472656 471.699219 6.472656 C 472.382812 6.472656 472.941406 5.914062 472.941406 5.226562 C 472.941406 4.539062 472.382812 3.980469 471.699219 3.980469 " fill-opacity="1" fill-rule="nonzero"/><path fill="#000000" d="M 478.773438 3.980469 C 478.089844 3.980469 477.53125 4.539062 477.53125 5.226562 C 477.53125 5.914062 478.089844 6.472656 478.773438 6.472656 C 479.460938 6.472656 480.015625 5.914062 480.015625 5.226562 C 480.015625 4.539062 479.460938 3.980469 478.773438 3.980469 " fill-opacity="1" fill-rule="nonzero"/><path fill="#000000" d="M 485.847656 3.980469 C 485.164062 3.980469 484.605469 4.539062 484.605469 5.226562 C 484.605469 5.914062 485.164062 6.472656 485.847656 6.472656 C 486.535156 6.472656 487.09375 5.914062 487.09375 5.226562 C 487.09375 4.539062 486.535156 3.980469 485.847656 3.980469 " fill-opacity="1" fill-rule="nonzero"/><g clip-path="url(#id34)"><path fill="#000000" d="M 443.394531 11.074219 C 442.710938 11.074219 442.152344 11.632812 442.152344 12.320312 C 442.152344 13.007812 442.710938 13.566406 443.394531 13.566406 C 444.082031 13.566406 444.636719 13.007812 444.636719 12.320312 C 444.636719 11.632812 444.082031 11.074219 443.394531 11.074219 " fill-opacity="1" fill-rule="nonzero"/></g><path fill="#000000" d="M 450.472656 11.074219 C 449.785156 11.074219 449.226562 11.632812 449.226562 12.320312 C 449.226562 13.007812 449.785156 13.566406 450.472656 13.566406 C 451.15625 13.566406 451.714844 13.007812 451.714844 12.320312 C 451.714844 11.632812 451.15625 11.074219 450.472656 11.074219 " fill-opacity="1" fill-rule="nonzero"/><path fill="#000000" d="M 457.546875 11.074219 C 456.863281 11.074219 456.304688 11.632812 456.304688 12.320312 C 456.304688 13.007812 456.863281 13.566406 457.546875 13.566406 C 458.230469 13.566406 458.789062 13.007812 458.789062 12.320312 C 458.789062 11.632812 458.230469 11.074219 457.546875 11.074219 " fill-opacity="1" fill-rule="nonzero"/><path fill="#000000" d="M 464.621094 11.074219 C 463.9375 11.074219 463.378906 11.632812 463.378906 12.320312 C 463.378906 13.007812 463.9375 13.566406 464.621094 13.566406 C 465.308594 13.566406 465.867188 13.007812 465.867188 12.320312 C 465.867188 11.632812 465.308594 11.074219 464.621094 11.074219 " fill-opacity="1" fill-rule="nonzero"/><path fill="#000000" d="M 471.699219 11.074219 C 471.011719 11.074219 470.457031 11.632812 470.457031 12.320312 C 470.457031 13.007812 471.011719 13.566406 471.699219 13.566406 C 472.382812 13.566406 472.941406 13.007812 472.941406 12.320312 C 472.941406 11.632812 472.382812 11.074219 471.699219 11.074219 " fill-opacity="1" fill-rule="nonzero"/><path fill="#000000" d="M 478.773438 11.074219 C 478.089844 11.074219 477.53125 11.632812 477.53125 12.320312 C 477.53125 13.007812 478.089844 13.566406 478.773438 13.566406 C 479.460938 13.566406 480.015625 13.007812 480.015625 12.320312 C 480.015625 11.632812 479.460938 11.074219 478.773438 11.074219 " fill-opacity="1" fill-rule="nonzero"/><path fill="#000000" d="M 485.847656 11.074219 C 485.164062 11.074219 484.605469 11.632812 484.605469 12.320312 C 484.605469 13.007812 485.164062 13.566406 485.847656 13.566406 C 486.535156 13.566406 487.09375 13.007812 487.09375 12.320312 C 487.09375 11.632812 486.535156 11.074219 485.847656 11.074219 " fill-opacity="1" fill-rule="nonzero"/><g clip-path="url(#id35)"><path fill="#000000" d="M 443.394531 18.121094 C 442.710938 18.121094 442.152344 18.679688 442.152344 19.367188 C 442.152344 20.054688 442.710938 20.613281 443.394531 20.613281 C 444.082031 20.613281 444.636719 20.054688 444.636719 19.367188 C 444.636719 18.679688 444.082031 18.121094 443.394531 18.121094 " fill-opacity="1" fill-rule="nonzero"/></g><path fill="#000000" d="M 450.472656 18.121094 C 449.785156 18.121094 449.226562 18.679688 449.226562 19.367188 C 449.226562 20.054688 449.785156 20.613281 450.472656 20.613281 C 451.15625 20.613281 451.714844 20.054688 451.714844 19.367188 C 451.714844 18.679688 451.15625 18.121094 450.472656 18.121094 " fill-opacity="1" fill-rule="nonzero"/><path fill="#000000" d="M 457.546875 18.121094 C 456.863281 18.121094 456.304688 18.679688 456.304688 19.367188 C 456.304688 20.054688 456.863281 20.613281 457.546875 20.613281 C 458.230469 20.613281 458.789062 20.054688 458.789062 19.367188 C 458.789062 18.679688 458.230469 18.121094 457.546875 18.121094 " fill-opacity="1" fill-rule="nonzero"/><path fill="#000000" d="M 464.621094 18.121094 C 463.9375 18.121094 463.378906 18.679688 463.378906 19.367188 C 463.378906 20.054688 463.9375 20.613281 464.621094 20.613281 C 465.308594 20.613281 465.867188 20.054688 465.867188 19.367188 C 465.867188 18.679688 465.308594 18.121094 464.621094 18.121094 " fill-opacity="1" fill-rule="nonzero"/><path fill="#000000" d="M 471.699219 18.121094 C 471.011719 18.121094 470.457031 18.679688 470.457031 19.367188 C 470.457031 20.054688 471.011719 20.613281 471.699219 20.613281 C 472.382812 20.613281 472.941406 20.054688 472.941406 19.367188 C 472.941406 18.679688 472.382812 18.121094 471.699219 18.121094 " fill-opacity="1" fill-rule="nonzero"/><path fill="#000000" d="M 478.773438 18.121094 C 478.089844 18.121094 477.53125 18.679688 477.53125 19.367188 C 477.53125 20.054688 478.089844 20.613281 478.773438 20.613281 C 479.460938 20.613281 480.015625 20.054688 480.015625 19.367188 C 480.015625 18.679688 479.460938 18.121094 478.773438 18.121094 " fill-opacity="1" fill-rule="nonzero"/><path fill="#000000" d="M 485.847656 18.121094 C 485.164062 18.121094 484.605469 18.679688 484.605469 19.367188 C 484.605469 20.054688 485.164062 20.613281 485.847656 20.613281 C 486.535156 20.613281 487.09375 20.054688 487.09375 19.367188 C 487.09375 18.679688 486.535156 18.121094 485.847656 18.121094 " fill-opacity="1" fill-rule="nonzero"/><g clip-path="url(#id36)"><path fill="#000000" d="M 443.394531 25.257812 C 442.710938 25.257812 442.152344 25.816406 442.152344 26.503906 C 442.152344 27.191406 442.710938 27.75 443.394531 27.75 C 444.082031 27.75 444.636719 27.191406 444.636719 26.503906 C 444.636719 25.816406 444.082031 25.257812 443.394531 25.257812 " fill-opacity="1" fill-rule="nonzero"/></g><g clip-path="url(#id37)"><path fill="#000000" d="M 450.472656 25.257812 C 449.785156 25.257812 449.226562 25.816406 449.226562 26.503906 C 449.226562 27.191406 449.785156 27.75 450.472656 27.75 C 451.15625 27.75 451.714844 27.191406 451.714844 26.503906 C 451.714844 25.816406 451.15625 25.257812 450.472656 25.257812 " fill-opacity="1" fill-rule="nonzero"/></g><g clip-path="url(#id38)"><path fill="#000000" d="M 457.546875 25.257812 C 456.863281 25.257812 456.304688 25.816406 456.304688 26.503906 C 456.304688 27.191406 456.863281 27.75 457.546875 27.75 C 458.230469 27.75 458.789062 27.191406 458.789062 26.503906 C 458.789062 25.816406 458.230469 25.257812 457.546875 25.257812 " fill-opacity="1" fill-rule="nonzero"/></g><g clip-path="url(#id39)"><path fill="#000000" d="M 464.621094 25.257812 C 463.9375 25.257812 463.378906 25.816406 463.378906 26.503906 C 463.378906 27.191406 463.9375 27.75 464.621094 27.75 C 465.308594 27.75 465.867188 27.191406 465.867188 26.503906 C 465.867188 25.816406 465.308594 25.257812 464.621094 25.257812 " fill-opacity="1" fill-rule="nonzero"/></g><g clip-path="url(#id40)"><path fill="#000000" d="M 471.699219 25.257812 C 471.011719 25.257812 470.457031 25.816406 470.457031 26.503906 C 470.457031 27.191406 471.011719 27.75 471.699219 27.75 C 472.382812 27.75 472.941406 27.191406 472.941406 26.503906 C 472.941406 25.816406 472.382812 25.257812 471.699219 25.257812 " fill-opacity="1" fill-rule="nonzero"/></g><g clip-path="url(#id41)"><path fill="#000000" d="M 478.773438 25.257812 C 478.089844 25.257812 477.53125 25.816406 477.53125 26.503906 C 477.53125 27.191406 478.089844 27.75 478.773438 27.75 C 479.460938 27.75 480.015625 27.191406 480.015625 26.503906 C 480.015625 25.816406 479.460938 25.257812 478.773438 25.257812 " fill-opacity="1" fill-rule="nonzero"/></g><g clip-path="url(#id42)"><path fill="#000000" d="M 485.847656 25.257812 C 485.164062 25.257812 484.605469 25.816406 484.605469 26.503906 C 484.605469 27.191406 485.164062 27.75 485.847656 27.75 C 486.535156 27.75 487.09375 27.191406 487.09375 26.503906 C 487.09375 25.816406 486.535156 25.257812 485.847656 25.257812 " fill-opacity="1" fill-rule="nonzero"/></g><path fill="#000000" d="M 492.921875 3.980469 C 492.238281 3.980469 491.679688 4.539062 491.679688 5.226562 C 491.679688 5.914062 492.238281 6.472656 492.921875 6.472656 C 493.609375 6.472656 494.164062 5.914062 494.164062 5.226562 C 494.164062 4.539062 493.609375 3.980469 492.921875 3.980469 " fill-opacity="1" fill-rule="nonzero"/><path fill="#000000" d="M 500 3.980469 C 499.3125 3.980469 498.753906 4.539062 498.753906 5.226562 C 498.753906 5.914062 499.3125 6.472656 500 6.472656 C 500.683594 6.472656 501.242188 5.914062 501.242188 5.226562 C 501.242188 4.539062 500.683594 3.980469 500 3.980469 " fill-opacity="1" fill-rule="nonzero"/><path fill="#000000" d="M 507.074219 3.980469 C 506.390625 3.980469 505.832031 4.539062 505.832031 5.226562 C 505.832031 5.914062 506.390625 6.472656 507.074219 6.472656 C 507.757812 6.472656 508.316406 5.914062 508.316406 5.226562 C 508.316406 4.539062 507.757812 3.980469 507.074219 3.980469 " fill-opacity="1" fill-rule="nonzero"/><path fill="#000000" d="M 514.148438 3.980469 C 513.464844 3.980469 512.90625 4.539062 512.90625 5.226562 C 512.90625 5.914062 513.464844 6.472656 514.148438 6.472656 C 514.835938 6.472656 515.390625 5.914062 515.390625 5.226562 C 515.390625 4.539062 514.835938 3.980469 514.148438 3.980469 " fill-opacity="1" fill-rule="nonzero"/><path fill="#000000" d="M 521.226562 3.980469 C 520.539062 3.980469 519.984375 4.539062 519.984375 5.226562 C 519.984375 5.914062 520.539062 6.472656 521.226562 6.472656 C 521.910156 6.472656 522.46875 5.914062 522.46875 5.226562 C 522.46875 4.539062 521.910156 3.980469 521.226562 3.980469 " fill-opacity="1" fill-rule="nonzero"/><path fill="#000000" d="M 528.300781 3.980469 C 527.617188 3.980469 527.058594 4.539062 527.058594 5.226562 C 527.058594 5.914062 527.617188 6.472656 528.300781 6.472656 C 528.984375 6.472656 529.542969 5.914062 529.542969 5.226562 C 529.542969 4.539062 528.984375 3.980469 528.300781 3.980469 " fill-opacity="1" fill-rule="nonzero"/><g clip-path="url(#id43)"><path fill="#000000" d="M 535.375 3.980469 C 534.691406 3.980469 534.132812 4.539062 534.132812 5.226562 C 534.132812 5.914062 534.691406 6.472656 535.375 6.472656 C 536.0625 6.472656 536.621094 5.914062 536.621094 5.226562 C 536.621094 4.539062 536.0625 3.980469 535.375 3.980469 " fill-opacity="1" fill-rule="nonzero"/></g><path fill="#000000" d="M 492.921875 11.074219 C 492.238281 11.074219 491.679688 11.632812 491.679688 12.320312 C 491.679688 13.007812 492.238281 13.566406 492.921875 13.566406 C 493.609375 13.566406 494.164062 13.007812 494.164062 12.320312 C 494.164062 11.632812 493.609375 11.074219 492.921875 11.074219 " fill-opacity="1" fill-rule="nonzero"/><path fill="#000000" d="M 500 11.074219 C 499.3125 11.074219 498.753906 11.632812 498.753906 12.320312 C 498.753906 13.007812 499.3125 13.566406 500 13.566406 C 500.683594 13.566406 501.242188 13.007812 501.242188 12.320312 C 501.242188 11.632812 500.683594 11.074219 500 11.074219 " fill-opacity="1" fill-rule="nonzero"/><path fill="#000000" d="M 507.074219 11.074219 C 506.390625 11.074219 505.832031 11.632812 505.832031 12.320312 C 505.832031 13.007812 506.390625 13.566406 507.074219 13.566406 C 507.757812 13.566406 508.316406 13.007812 508.316406 12.320312 C 508.316406 11.632812 507.757812 11.074219 507.074219 11.074219 " fill-opacity="1" fill-rule="nonzero"/><path fill="#000000" d="M 514.148438 11.074219 C 513.464844 11.074219 512.90625 11.632812 512.90625 12.320312 C 512.90625 13.007812 513.464844 13.566406 514.148438 13.566406 C 514.835938 13.566406 515.390625 13.007812 515.390625 12.320312 C 515.390625 11.632812 514.835938 11.074219 514.148438 11.074219 " fill-opacity="1" fill-rule="nonzero"/><path fill="#000000" d="M 521.226562 11.074219 C 520.539062 11.074219 519.984375 11.632812 519.984375 12.320312 C 519.984375 13.007812 520.539062 13.566406 521.226562 13.566406 C 521.910156 13.566406 522.46875 13.007812 522.46875 12.320312 C 522.46875 11.632812 521.910156 11.074219 521.226562 11.074219 " fill-opacity="1" fill-rule="nonzero"/><path fill="#000000" d="M 528.300781 11.074219 C 527.617188 11.074219 527.058594 11.632812 527.058594 12.320312 C 527.058594 13.007812 527.617188 13.566406 528.300781 13.566406 C 528.984375 13.566406 529.542969 13.007812 529.542969 12.320312 C 529.542969 11.632812 528.984375 11.074219 528.300781 11.074219 " fill-opacity="1" fill-rule="nonzero"/><g clip-path="url(#id44)"><path fill="#000000" d="M 535.375 11.074219 C 534.691406 11.074219 534.132812 11.632812 534.132812 12.320312 C 534.132812 13.007812 534.691406 13.566406 535.375 13.566406 C 536.0625 13.566406 536.621094 13.007812 536.621094 12.320312 C 536.621094 11.632812 536.0625 11.074219 535.375 11.074219 " fill-opacity="1" fill-rule="nonzero"/></g><path fill="#000000" d="M 492.921875 18.121094 C 492.238281 18.121094 491.679688 18.679688 491.679688 19.367188 C 491.679688 20.054688 492.238281 20.613281 492.921875 20.613281 C 493.609375 20.613281 494.164062 20.054688 494.164062 19.367188 C 494.164062 18.679688 493.609375 18.121094 492.921875 18.121094 " fill-opacity="1" fill-rule="nonzero"/><path fill="#000000" d="M 500 18.121094 C 499.3125 18.121094 498.753906 18.679688 498.753906 19.367188 C 498.753906 20.054688 499.3125 20.613281 500 20.613281 C 500.683594 20.613281 501.242188 20.054688 501.242188 19.367188 C 501.242188 18.679688 500.683594 18.121094 500 18.121094 " fill-opacity="1" fill-rule="nonzero"/><path fill="#000000" d="M 507.074219 18.121094 C 506.390625 18.121094 505.832031 18.679688 505.832031 19.367188 C 505.832031 20.054688 506.390625 20.613281 507.074219 20.613281 C 507.757812 20.613281 508.316406 20.054688 508.316406 19.367188 C 508.316406 18.679688 507.757812 18.121094 507.074219 18.121094 " fill-opacity="1" fill-rule="nonzero"/><path fill="#000000" d="M 514.148438 18.121094 C 513.464844 18.121094 512.90625 18.679688 512.90625 19.367188 C 512.90625 20.054688 513.464844 20.613281 514.148438 20.613281 C 514.835938 20.613281 515.390625 20.054688 515.390625 19.367188 C 515.390625 18.679688 514.835938 18.121094 514.148438 18.121094 " fill-opacity="1" fill-rule="nonzero"/><path fill="#000000" d="M 521.226562 18.121094 C 520.539062 18.121094 519.984375 18.679688 519.984375 19.367188 C 519.984375 20.054688 520.539062 20.613281 521.226562 20.613281 C 521.910156 20.613281 522.46875 20.054688 522.46875 19.367188 C 522.46875 18.679688 521.910156 18.121094 521.226562 18.121094 " fill-opacity="1" fill-rule="nonzero"/><path fill="#000000" d="M 528.300781 18.121094 C 527.617188 18.121094 527.058594 18.679688 527.058594 19.367188 C 527.058594 20.054688 527.617188 20.613281 528.300781 20.613281 C 528.984375 20.613281 529.542969 20.054688 529.542969 19.367188 C 529.542969 18.679688 528.984375 18.121094 528.300781 18.121094 " fill-opacity="1" fill-rule="nonzero"/><g clip-path="url(#id45)"><path fill="#000000" d="M 535.375 18.121094 C 534.691406 18.121094 534.132812 18.679688 534.132812 19.367188 C 534.132812 20.054688 534.691406 20.613281 535.375 20.613281 C 536.0625 20.613281 536.621094 20.054688 536.621094 19.367188 C 536.621094 18.679688 536.0625 18.121094 535.375 18.121094 " fill-opacity="1" fill-rule="nonzero"/></g><g clip-path="url(#id46)"><path fill="#000000" d="M 492.921875 25.257812 C 492.238281 25.257812 491.679688 25.816406 491.679688 26.503906 C 491.679688 27.191406 492.238281 27.75 492.921875 27.75 C 493.609375 27.75 494.164062 27.191406 494.164062 26.503906 C 494.164062 25.816406 493.609375 25.257812 492.921875 25.257812 " fill-opacity="1" fill-rule="nonzero"/></g><g clip-path="url(#id47)"><path fill="#000000" d="M 500 25.257812 C 499.3125 25.257812 498.753906 25.816406 498.753906 26.503906 C 498.753906 27.191406 499.3125 27.75 500 27.75 C 500.683594 27.75 501.242188 27.191406 501.242188 26.503906 C 501.242188 25.816406 500.683594 25.257812 500 25.257812 " fill-opacity="1" fill-rule="nonzero"/></g><g clip-path="url(#id48)"><path fill="#000000" d="M 507.074219 25.257812 C 506.390625 25.257812 505.832031 25.816406 505.832031 26.503906 C 505.832031 27.191406 506.390625 27.75 507.074219 27.75 C 507.757812 27.75 508.316406 27.191406 508.316406 26.503906 C 508.316406 25.816406 507.757812 25.257812 507.074219 25.257812 " fill-opacity="1" fill-rule="nonzero"/></g><g clip-path="url(#id49)"><path fill="#000000" d="M 514.148438 25.257812 C 513.464844 25.257812 512.90625 25.816406 512.90625 26.503906 C 512.90625 27.191406 513.464844 27.75 514.148438 27.75 C 514.835938 27.75 515.390625 27.191406 515.390625 26.503906 C 515.390625 25.816406 514.835938 25.257812 514.148438 25.257812 " fill-opacity="1" fill-rule="nonzero"/></g><g clip-path="url(#id50)"><path fill="#000000" d="M 521.226562 25.257812 C 520.539062 25.257812 519.984375 25.816406 519.984375 26.503906 C 519.984375 27.191406 520.539062 27.75 521.226562 27.75 C 521.910156 27.75 522.46875 27.191406 522.46875 26.503906 C 522.46875 25.816406 521.910156 25.257812 521.226562 25.257812 " fill-opacity="1" fill-rule="nonzero"/></g><g clip-path="url(#id51)"><path fill="#000000" d="M 528.300781 25.257812 C 527.617188 25.257812 527.058594 25.816406 527.058594 26.503906 C 527.058594 27.191406 527.617188 27.75 528.300781 27.75 C 528.984375 27.75 529.542969 27.191406 529.542969 26.503906 C 529.542969 25.816406 528.984375 25.257812 528.300781 25.257812 " fill-opacity="1" fill-rule="nonzero"/></g><g clip-path="url(#id52)"><path fill="#000000" d="M 535.375 25.257812 C 534.691406 25.257812 534.132812 25.816406 534.132812 26.503906 C 534.132812 27.191406 534.691406 27.75 535.375 27.75 C 536.0625 27.75 536.621094 27.191406 536.621094 26.503906 C 536.621094 25.816406 536.0625 25.257812 535.375 25.257812 " fill-opacity="1" fill-rule="nonzero"/></g><g clip-path="url(#id53)"><path fill="#000000" d="M 200.992188 0.640625 C 200.308594 0.640625 199.75 1.199219 199.75 1.882812 C 199.75 2.570312 200.308594 3.128906 200.992188 3.128906 C 201.675781 3.128906 202.234375 2.570312 202.234375 1.882812 C 202.234375 1.199219 201.675781 0.640625 200.992188 0.640625 " fill-opacity="1" fill-rule="nonzero"/></g><path fill="#000000" d="M 208.070312 0.640625 C 207.382812 0.640625 206.824219 1.199219 206.824219 1.882812 C 206.824219 2.570312 207.382812 3.128906 208.070312 3.128906 C 208.753906 3.128906 209.3125 2.570312 209.3125 1.882812 C 209.3125 1.199219 208.753906 0.640625 208.070312 0.640625 " fill-opacity="1" fill-rule="nonzero"/><path fill="#000000" d="M 215.144531 0.640625 C 214.457031 0.640625 213.902344 1.199219 213.902344 1.882812 C 213.902344 2.570312 214.457031 3.128906 215.144531 3.128906 C 215.828125 3.128906 216.386719 2.570312 216.386719 1.882812 C 216.386719 1.199219 215.828125 0.640625 215.144531 0.640625 " fill-opacity="1" fill-rule="nonzero"/><path fill="#000000" d="M 222.21875 0.640625 C 221.535156 0.640625 220.976562 1.199219 220.976562 1.882812 C 220.976562 2.570312 221.535156 3.128906 222.21875 3.128906 C 222.90625 3.128906 223.460938 2.570312 223.460938 1.882812 C 223.460938 1.199219 222.90625 0.640625 222.21875 0.640625 " fill-opacity="1" fill-rule="nonzero"/><path fill="#000000" d="M 229.296875 0.640625 C 228.609375 0.640625 228.050781 1.199219 228.050781 1.882812 C 228.050781 2.570312 228.609375 3.128906 229.296875 3.128906 C 229.980469 3.128906 230.539062 2.570312 230.539062 1.882812 C 230.539062 1.199219 229.980469 0.640625 229.296875 0.640625 " fill-opacity="1" fill-rule="nonzero"/><path fill="#000000" d="M 236.371094 0.640625 C 235.6875 0.640625 235.128906 1.199219 235.128906 1.882812 C 235.128906 2.570312 235.6875 3.128906 236.371094 3.128906 C 237.054688 3.128906 237.613281 2.570312 237.613281 1.882812 C 237.613281 1.199219 237.054688 0.640625 236.371094 0.640625 " fill-opacity="1" fill-rule="nonzero"/><path fill="#000000" d="M 243.445312 0.640625 C 242.761719 0.640625 242.203125 1.199219 242.203125 1.882812 C 242.203125 2.570312 242.761719 3.128906 243.445312 3.128906 C 244.132812 3.128906 244.691406 2.570312 244.691406 1.882812 C 244.691406 1.199219 244.132812 0.640625 243.445312 0.640625 " fill-opacity="1" fill-rule="nonzero"/><g clip-path="url(#id54)"><path fill="#000000" d="M 200.992188 7.730469 C 200.308594 7.730469 199.75 8.289062 199.75 8.976562 C 199.75 9.664062 200.308594 10.222656 200.992188 10.222656 C 201.675781 10.222656 202.234375 9.664062 202.234375 8.976562 C 202.234375 8.289062 201.675781 7.730469 200.992188 7.730469 " fill-opacity="1" fill-rule="nonzero"/></g><path fill="#000000" d="M 208.070312 7.730469 C 207.382812 7.730469 206.824219 8.289062 206.824219 8.976562 C 206.824219 9.664062 207.382812 10.222656 208.070312 10.222656 C 208.753906 10.222656 209.3125 9.664062 209.3125 8.976562 C 209.3125 8.289062 208.753906 7.730469 208.070312 7.730469 " fill-opacity="1" fill-rule="nonzero"/><path fill="#000000" d="M 215.144531 7.730469 C 214.457031 7.730469 213.902344 8.289062 213.902344 8.976562 C 213.902344 9.664062 214.457031 10.222656 215.144531 10.222656 C 215.828125 10.222656 216.386719 9.664062 216.386719 8.976562 C 216.386719 8.289062 215.828125 7.730469 215.144531 7.730469 " fill-opacity="1" fill-rule="nonzero"/><path fill="#000000" d="M 222.21875 7.730469 C 221.535156 7.730469 220.976562 8.289062 220.976562 8.976562 C 220.976562 9.664062 221.535156 10.222656 222.21875 10.222656 C 222.90625 10.222656 223.460938 9.664062 223.460938 8.976562 C 223.460938 8.289062 222.90625 7.730469 222.21875 7.730469 " fill-opacity="1" fill-rule="nonzero"/><path fill="#000000" d="M 229.296875 7.730469 C 228.609375 7.730469 228.050781 8.289062 228.050781 8.976562 C 228.050781 9.664062 228.609375 10.222656 229.296875 10.222656 C 229.980469 10.222656 230.539062 9.664062 230.539062 8.976562 C 230.539062 8.289062 229.980469 7.730469 229.296875 7.730469 " fill-opacity="1" fill-rule="nonzero"/><path fill="#000000" d="M 236.371094 7.730469 C 235.6875 7.730469 235.128906 8.289062 235.128906 8.976562 C 235.128906 9.664062 235.6875 10.222656 236.371094 10.222656 C 237.054688 10.222656 237.613281 9.664062 237.613281 8.976562 C 237.613281 8.289062 237.054688 7.730469 236.371094 7.730469 " fill-opacity="1" fill-rule="nonzero"/><path fill="#000000" d="M 243.445312 7.730469 C 242.761719 7.730469 242.203125 8.289062 242.203125 8.976562 C 242.203125 9.664062 242.761719 10.222656 243.445312 10.222656 C 244.132812 10.222656 244.691406 9.664062 244.691406 8.976562 C 244.691406 8.289062 244.132812 7.730469 243.445312 7.730469 " fill-opacity="1" fill-rule="nonzero"/><g clip-path="url(#id55)"><path fill="#000000" d="M 200.992188 14.824219 C 200.308594 14.824219 199.75 15.382812 199.75 16.070312 C 199.75 16.757812 200.308594 17.316406 200.992188 17.316406 C 201.675781 17.316406 202.234375 16.757812 202.234375 16.070312 C 202.234375 15.382812 201.675781 14.824219 200.992188 14.824219 " fill-opacity="1" fill-rule="nonzero"/></g><path fill="#000000" d="M 208.070312 14.824219 C 207.382812 14.824219 206.824219 15.382812 206.824219 16.070312 C 206.824219 16.757812 207.382812 17.316406 208.070312 17.316406 C 208.753906 17.316406 209.3125 16.757812 209.3125 16.070312 C 209.3125 15.382812 208.753906 14.824219 208.070312 14.824219 " fill-opacity="1" fill-rule="nonzero"/><path fill="#000000" d="M 215.144531 14.824219 C 214.457031 14.824219 213.902344 15.382812 213.902344 16.070312 C 213.902344 16.757812 214.457031 17.316406 215.144531 17.316406 C 215.828125 17.316406 216.386719 16.757812 216.386719 16.070312 C 216.386719 15.382812 215.828125 14.824219 215.144531 14.824219 " fill-opacity="1" fill-rule="nonzero"/><path fill="#000000" d="M 222.21875 14.824219 C 221.535156 14.824219 220.976562 15.382812 220.976562 16.070312 C 220.976562 16.757812 221.535156 17.316406 222.21875 17.316406 C 222.90625 17.316406 223.460938 16.757812 223.460938 16.070312 C 223.460938 15.382812 222.90625 14.824219 222.21875 14.824219 " fill-opacity="1" fill-rule="nonzero"/><path fill="#000000" d="M 229.296875 14.824219 C 228.609375 14.824219 228.050781 15.382812 228.050781 16.070312 C 228.050781 16.757812 228.609375 17.316406 229.296875 17.316406 C 229.980469 17.316406 230.539062 16.757812 230.539062 16.070312 C 230.539062 15.382812 229.980469 14.824219 229.296875 14.824219 " fill-opacity="1" fill-rule="nonzero"/><path fill="#000000" d="M 236.371094 14.824219 C 235.6875 14.824219 235.128906 15.382812 235.128906 16.070312 C 235.128906 16.757812 235.6875 17.316406 236.371094 17.316406 C 237.054688 17.316406 237.613281 16.757812 237.613281 16.070312 C 237.613281 15.382812 237.054688 14.824219 236.371094 14.824219 " fill-opacity="1" fill-rule="nonzero"/><path fill="#000000" d="M 243.445312 14.824219 C 242.761719 14.824219 242.203125 15.382812 242.203125 16.070312 C 242.203125 16.757812 242.761719 17.316406 243.445312 17.316406 C 244.132812 17.316406 244.691406 16.757812 244.691406 16.070312 C 244.691406 15.382812 244.132812 14.824219 243.445312 14.824219 " fill-opacity="1" fill-rule="nonzero"/><g clip-path="url(#id56)"><path fill="#000000" d="M 200.992188 21.871094 C 200.308594 21.871094 199.75 22.429688 199.75 23.117188 C 199.75 23.804688 200.308594 24.363281 200.992188 24.363281 C 201.675781 24.363281 202.234375 23.804688 202.234375 23.117188 C 202.234375 22.429688 201.675781 21.871094 200.992188 21.871094 " fill-opacity="1" fill-rule="nonzero"/></g><path fill="#000000" d="M 208.070312 21.871094 C 207.382812 21.871094 206.824219 22.429688 206.824219 23.117188 C 206.824219 23.804688 207.382812 24.363281 208.070312 24.363281 C 208.753906 24.363281 209.3125 23.804688 209.3125 23.117188 C 209.3125 22.429688 208.753906 21.871094 208.070312 21.871094 " fill-opacity="1" fill-rule="nonzero"/><path fill="#000000" d="M 215.144531 21.871094 C 214.457031 21.871094 213.902344 22.429688 213.902344 23.117188 C 213.902344 23.804688 214.457031 24.363281 215.144531 24.363281 C 215.828125 24.363281 216.386719 23.804688 216.386719 23.117188 C 216.386719 22.429688 215.828125 21.871094 215.144531 21.871094 " fill-opacity="1" fill-rule="nonzero"/><path fill="#000000" d="M 222.21875 21.871094 C 221.535156 21.871094 220.976562 22.429688 220.976562 23.117188 C 220.976562 23.804688 221.535156 24.363281 222.21875 24.363281 C 222.90625 24.363281 223.460938 23.804688 223.460938 23.117188 C 223.460938 22.429688 222.90625 21.871094 222.21875 21.871094 " fill-opacity="1" fill-rule="nonzero"/><path fill="#000000" d="M 229.296875 21.871094 C 228.609375 21.871094 228.050781 22.429688 228.050781 23.117188 C 228.050781 23.804688 228.609375 24.363281 229.296875 24.363281 C 229.980469 24.363281 230.539062 23.804688 230.539062 23.117188 C 230.539062 22.429688 229.980469 21.871094 229.296875 21.871094 " fill-opacity="1" fill-rule="nonzero"/><path fill="#000000" d="M 236.371094 21.871094 C 235.6875 21.871094 235.128906 22.429688 235.128906 23.117188 C 235.128906 23.804688 235.6875 24.363281 236.371094 24.363281 C 237.054688 24.363281 237.613281 23.804688 237.613281 23.117188 C 237.613281 22.429688 237.054688 21.871094 236.371094 21.871094 " fill-opacity="1" fill-rule="nonzero"/><path fill="#000000" d="M 243.445312 21.871094 C 242.761719 21.871094 242.203125 22.429688 242.203125 23.117188 C 242.203125 23.804688 242.761719 24.363281 243.445312 24.363281 C 244.132812 24.363281 244.691406 23.804688 244.691406 23.117188 C 244.691406 22.429688 244.132812 21.871094 243.445312 21.871094 " fill-opacity="1" fill-rule="nonzero"/><g clip-path="url(#id57)"><path fill="#000000" d="M 200.992188 29.007812 C 200.308594 29.007812 199.75 29.566406 199.75 30.253906 C 199.75 30.941406 200.308594 31.5 200.992188 31.5 C 201.675781 31.5 202.234375 30.941406 202.234375 30.253906 C 202.234375 29.566406 201.675781 29.007812 200.992188 29.007812 " fill-opacity="1" fill-rule="nonzero"/></g><g clip-path="url(#id58)"><path fill="#000000" d="M 208.070312 29.007812 C 207.382812 29.007812 206.824219 29.566406 206.824219 30.253906 C 206.824219 30.941406 207.382812 31.5 208.070312 31.5 C 208.753906 31.5 209.3125 30.941406 209.3125 30.253906 C 209.3125 29.566406 208.753906 29.007812 208.070312 29.007812 " fill-opacity="1" fill-rule="nonzero"/></g><g clip-path="url(#id59)"><path fill="#000000" d="M 215.144531 29.007812 C 214.457031 29.007812 213.902344 29.566406 213.902344 30.253906 C 213.902344 30.941406 214.457031 31.5 215.144531 31.5 C 215.828125 31.5 216.386719 30.941406 216.386719 30.253906 C 216.386719 29.566406 215.828125 29.007812 215.144531 29.007812 " fill-opacity="1" fill-rule="nonzero"/></g><g clip-path="url(#id60)"><path fill="#000000" d="M 222.21875 29.007812 C 221.535156 29.007812 220.976562 29.566406 220.976562 30.253906 C 220.976562 30.941406 221.535156 31.5 222.21875 31.5 C 222.90625 31.5 223.460938 30.941406 223.460938 30.253906 C 223.460938 29.566406 222.90625 29.007812 222.21875 29.007812 " fill-opacity="1" fill-rule="nonzero"/></g><g clip-path="url(#id61)"><path fill="#000000" d="M 229.296875 29.007812 C 228.609375 29.007812 228.050781 29.566406 228.050781 30.253906 C 228.050781 30.941406 228.609375 31.5 229.296875 31.5 C 229.980469 31.5 230.539062 30.941406 230.539062 30.253906 C 230.539062 29.566406 229.980469 29.007812 229.296875 29.007812 " fill-opacity="1" fill-rule="nonzero"/></g><g clip-path="url(#id62)"><path fill="#000000" d="M 236.371094 29.007812 C 235.6875 29.007812 235.128906 29.566406 235.128906 30.253906 C 235.128906 30.941406 235.6875 31.5 236.371094 31.5 C 237.054688 31.5 237.613281 30.941406 237.613281 30.253906 C 237.613281 29.566406 237.054688 29.007812 236.371094 29.007812 " fill-opacity="1" fill-rule="nonzero"/></g><g clip-path="url(#id63)"><path fill="#000000" d="M 243.445312 29.007812 C 242.761719 29.007812 242.203125 29.566406 242.203125 30.253906 C 242.203125 30.941406 242.761719 31.5 243.445312 31.5 C 244.132812 31.5 244.691406 30.941406 244.691406 30.253906 C 244.691406 29.566406 244.132812 29.007812 243.445312 29.007812 " fill-opacity="1" fill-rule="nonzero"/></g><path fill="#000000" d="M 250.519531 0.640625 C 249.832031 0.640625 249.277344 1.199219 249.277344 1.882812 C 249.277344 2.570312 249.832031 3.128906 250.519531 3.128906 C 251.203125 3.128906 251.761719 2.570312 251.761719 1.882812 C 251.761719 1.199219 251.203125 0.640625 250.519531 0.640625 " fill-opacity="1" fill-rule="nonzero"/><path fill="#000000" d="M 257.59375 0.640625 C 256.910156 0.640625 256.351562 1.199219 256.351562 1.882812 C 256.351562 2.570312 256.910156 3.128906 257.59375 3.128906 C 258.28125 3.128906 258.835938 2.570312 258.835938 1.882812 C 258.835938 1.199219 258.28125 0.640625 257.59375 0.640625 " fill-opacity="1" fill-rule="nonzero"/><path fill="#000000" d="M 264.671875 0.640625 C 263.984375 0.640625 263.429688 1.199219 263.429688 1.882812 C 263.429688 2.570312 263.984375 3.128906 264.671875 3.128906 C 265.355469 3.128906 265.914062 2.570312 265.914062 1.882812 C 265.914062 1.199219 265.355469 0.640625 264.671875 0.640625 " fill-opacity="1" fill-rule="nonzero"/><path fill="#000000" d="M 271.746094 0.640625 C 271.0625 0.640625 270.503906 1.199219 270.503906 1.882812 C 270.503906 2.570312 271.0625 3.128906 271.746094 3.128906 C 272.433594 3.128906 272.988281 2.570312 272.988281 1.882812 C 272.988281 1.199219 272.433594 0.640625 271.746094 0.640625 " fill-opacity="1" fill-rule="nonzero"/><path fill="#000000" d="M 278.820312 0.640625 C 278.136719 0.640625 277.578125 1.199219 277.578125 1.882812 C 277.578125 2.570312 278.136719 3.128906 278.820312 3.128906 C 279.507812 3.128906 280.066406 2.570312 280.066406 1.882812 C 280.066406 1.199219 279.507812 0.640625 278.820312 0.640625 " fill-opacity="1" fill-rule="nonzero"/><path fill="#000000" d="M 285.898438 0.640625 C 285.210938 0.640625 284.65625 1.199219 284.65625 1.882812 C 284.65625 2.570312 285.210938 3.128906 285.898438 3.128906 C 286.582031 3.128906 287.140625 2.570312 287.140625 1.882812 C 287.140625 1.199219 286.582031 0.640625 285.898438 0.640625 " fill-opacity="1" fill-rule="nonzero"/><g clip-path="url(#id64)"><path fill="#000000" d="M 292.972656 0.640625 C 292.289062 0.640625 291.730469 1.199219 291.730469 1.882812 C 291.730469 2.570312 292.289062 3.128906 292.972656 3.128906 C 293.660156 3.128906 294.214844 2.570312 294.214844 1.882812 C 294.214844 1.199219 293.660156 0.640625 292.972656 0.640625 " fill-opacity="1" fill-rule="nonzero"/></g><path fill="#000000" d="M 250.519531 7.730469 C 249.832031 7.730469 249.277344 8.289062 249.277344 8.976562 C 249.277344 9.664062 249.832031 10.222656 250.519531 10.222656 C 251.203125 10.222656 251.761719 9.664062 251.761719 8.976562 C 251.761719 8.289062 251.203125 7.730469 250.519531 7.730469 " fill-opacity="1" fill-rule="nonzero"/><path fill="#000000" d="M 257.59375 7.730469 C 256.910156 7.730469 256.351562 8.289062 256.351562 8.976562 C 256.351562 9.664062 256.910156 10.222656 257.59375 10.222656 C 258.28125 10.222656 258.835938 9.664062 258.835938 8.976562 C 258.835938 8.289062 258.28125 7.730469 257.59375 7.730469 " fill-opacity="1" fill-rule="nonzero"/><path fill="#000000" d="M 264.671875 7.730469 C 263.984375 7.730469 263.429688 8.289062 263.429688 8.976562 C 263.429688 9.664062 263.984375 10.222656 264.671875 10.222656 C 265.355469 10.222656 265.914062 9.664062 265.914062 8.976562 C 265.914062 8.289062 265.355469 7.730469 264.671875 7.730469 " fill-opacity="1" fill-rule="nonzero"/><path fill="#000000" d="M 271.746094 7.730469 C 271.0625 7.730469 270.503906 8.289062 270.503906 8.976562 C 270.503906 9.664062 271.0625 10.222656 271.746094 10.222656 C 272.433594 10.222656 272.988281 9.664062 272.988281 8.976562 C 272.988281 8.289062 272.433594 7.730469 271.746094 7.730469 " fill-opacity="1" fill-rule="nonzero"/><path fill="#000000" d="M 278.820312 7.730469 C 278.136719 7.730469 277.578125 8.289062 277.578125 8.976562 C 277.578125 9.664062 278.136719 10.222656 278.820312 10.222656 C 279.507812 10.222656 280.066406 9.664062 280.066406 8.976562 C 280.066406 8.289062 279.507812 7.730469 278.820312 7.730469 " fill-opacity="1" fill-rule="nonzero"/><path fill="#000000" d="M 285.898438 7.730469 C 285.210938 7.730469 284.65625 8.289062 284.65625 8.976562 C 284.65625 9.664062 285.210938 10.222656 285.898438 10.222656 C 286.582031 10.222656 287.140625 9.664062 287.140625 8.976562 C 287.140625 8.289062 286.582031 7.730469 285.898438 7.730469 " fill-opacity="1" fill-rule="nonzero"/><g clip-path="url(#id65)"><path fill="#000000" d="M 292.972656 7.730469 C 292.289062 7.730469 291.730469 8.289062 291.730469 8.976562 C 291.730469 9.664062 292.289062 10.222656 292.972656 10.222656 C 293.660156 10.222656 294.214844 9.664062 294.214844 8.976562 C 294.214844 8.289062 293.660156 7.730469 292.972656 7.730469 " fill-opacity="1" fill-rule="nonzero"/></g><path fill="#000000" d="M 250.519531 14.824219 C 249.832031 14.824219 249.277344 15.382812 249.277344 16.070312 C 249.277344 16.757812 249.832031 17.316406 250.519531 17.316406 C 251.203125 17.316406 251.761719 16.757812 251.761719 16.070312 C 251.761719 15.382812 251.203125 14.824219 250.519531 14.824219 " fill-opacity="1" fill-rule="nonzero"/><path fill="#000000" d="M 257.59375 14.824219 C 256.910156 14.824219 256.351562 15.382812 256.351562 16.070312 C 256.351562 16.757812 256.910156 17.316406 257.59375 17.316406 C 258.28125 17.316406 258.835938 16.757812 258.835938 16.070312 C 258.835938 15.382812 258.28125 14.824219 257.59375 14.824219 " fill-opacity="1" fill-rule="nonzero"/><path fill="#000000" d="M 264.671875 14.824219 C 263.984375 14.824219 263.429688 15.382812 263.429688 16.070312 C 263.429688 16.757812 263.984375 17.316406 264.671875 17.316406 C 265.355469 17.316406 265.914062 16.757812 265.914062 16.070312 C 265.914062 15.382812 265.355469 14.824219 264.671875 14.824219 " fill-opacity="1" fill-rule="nonzero"/><path fill="#000000" d="M 271.746094 14.824219 C 271.0625 14.824219 270.503906 15.382812 270.503906 16.070312 C 270.503906 16.757812 271.0625 17.316406 271.746094 17.316406 C 272.433594 17.316406 272.988281 16.757812 272.988281 16.070312 C 272.988281 15.382812 272.433594 14.824219 271.746094 14.824219 " fill-opacity="1" fill-rule="nonzero"/><path fill="#000000" d="M 278.820312 14.824219 C 278.136719 14.824219 277.578125 15.382812 277.578125 16.070312 C 277.578125 16.757812 278.136719 17.316406 278.820312 17.316406 C 279.507812 17.316406 280.066406 16.757812 280.066406 16.070312 C 280.066406 15.382812 279.507812 14.824219 278.820312 14.824219 " fill-opacity="1" fill-rule="nonzero"/><path fill="#000000" d="M 285.898438 14.824219 C 285.210938 14.824219 284.65625 15.382812 284.65625 16.070312 C 284.65625 16.757812 285.210938 17.316406 285.898438 17.316406 C 286.582031 17.316406 287.140625 16.757812 287.140625 16.070312 C 287.140625 15.382812 286.582031 14.824219 285.898438 14.824219 " fill-opacity="1" fill-rule="nonzero"/><g clip-path="url(#id66)"><path fill="#000000" d="M 292.972656 14.824219 C 292.289062 14.824219 291.730469 15.382812 291.730469 16.070312 C 291.730469 16.757812 292.289062 17.316406 292.972656 17.316406 C 293.660156 17.316406 294.214844 16.757812 294.214844 16.070312 C 294.214844 15.382812 293.660156 14.824219 292.972656 14.824219 " fill-opacity="1" fill-rule="nonzero"/></g><path fill="#000000" d="M 250.519531 21.871094 C 249.832031 21.871094 249.277344 22.429688 249.277344 23.117188 C 249.277344 23.804688 249.832031 24.363281 250.519531 24.363281 C 251.203125 24.363281 251.761719 23.804688 251.761719 23.117188 C 251.761719 22.429688 251.203125 21.871094 250.519531 21.871094 " fill-opacity="1" fill-rule="nonzero"/><path fill="#000000" d="M 257.59375 21.871094 C 256.910156 21.871094 256.351562 22.429688 256.351562 23.117188 C 256.351562 23.804688 256.910156 24.363281 257.59375 24.363281 C 258.28125 24.363281 258.835938 23.804688 258.835938 23.117188 C 258.835938 22.429688 258.28125 21.871094 257.59375 21.871094 " fill-opacity="1" fill-rule="nonzero"/><path fill="#000000" d="M 264.671875 21.871094 C 263.984375 21.871094 263.429688 22.429688 263.429688 23.117188 C 263.429688 23.804688 263.984375 24.363281 264.671875 24.363281 C 265.355469 24.363281 265.914062 23.804688 265.914062 23.117188 C 265.914062 22.429688 265.355469 21.871094 264.671875 21.871094 " fill-opacity="1" fill-rule="nonzero"/><path fill="#000000" d="M 271.746094 21.871094 C 271.0625 21.871094 270.503906 22.429688 270.503906 23.117188 C 270.503906 23.804688 271.0625 24.363281 271.746094 24.363281 C 272.433594 24.363281 272.988281 23.804688 272.988281 23.117188 C 272.988281 22.429688 272.433594 21.871094 271.746094 21.871094 " fill-opacity="1" fill-rule="nonzero"/><path fill="#000000" d="M 278.820312 21.871094 C 278.136719 21.871094 277.578125 22.429688 277.578125 23.117188 C 277.578125 23.804688 278.136719 24.363281 278.820312 24.363281 C 279.507812 24.363281 280.066406 23.804688 280.066406 23.117188 C 280.066406 22.429688 279.507812 21.871094 278.820312 21.871094 " fill-opacity="1" fill-rule="nonzero"/><path fill="#000000" d="M 285.898438 21.871094 C 285.210938 21.871094 284.65625 22.429688 284.65625 23.117188 C 284.65625 23.804688 285.210938 24.363281 285.898438 24.363281 C 286.582031 24.363281 287.140625 23.804688 287.140625 23.117188 C 287.140625 22.429688 286.582031 21.871094 285.898438 21.871094 " fill-opacity="1" fill-rule="nonzero"/><g clip-path="url(#id67)"><path fill="#000000" d="M 292.972656 21.871094 C 292.289062 21.871094 291.730469 22.429688 291.730469 23.117188 C 291.730469 23.804688 292.289062 24.363281 292.972656 24.363281 C 293.660156 24.363281 294.214844 23.804688 294.214844 23.117188 C 294.214844 22.429688 293.660156 21.871094 292.972656 21.871094 " fill-opacity="1" fill-rule="nonzero"/></g><g clip-path="url(#id68)"><path fill="#000000" d="M 250.519531 29.007812 C 249.832031 29.007812 249.277344 29.566406 249.277344 30.253906 C 249.277344 30.941406 249.832031 31.5 250.519531 31.5 C 251.203125 31.5 251.761719 30.941406 251.761719 30.253906 C 251.761719 29.566406 251.203125 29.007812 250.519531 29.007812 " fill-opacity="1" fill-rule="nonzero"/></g><g clip-path="url(#id69)"><path fill="#000000" d="M 257.59375 29.007812 C 256.910156 29.007812 256.351562 29.566406 256.351562 30.253906 C 256.351562 30.941406 256.910156 31.5 257.59375 31.5 C 258.28125 31.5 258.835938 30.941406 258.835938 30.253906 C 258.835938 29.566406 258.28125 29.007812 257.59375 29.007812 " fill-opacity="1" fill-rule="nonzero"/></g><g clip-path="url(#id70)"><path fill="#000000" d="M 264.671875 29.007812 C 263.984375 29.007812 263.429688 29.566406 263.429688 30.253906 C 263.429688 30.941406 263.984375 31.5 264.671875 31.5 C 265.355469 31.5 265.914062 30.941406 265.914062 30.253906 C 265.914062 29.566406 265.355469 29.007812 264.671875 29.007812 " fill-opacity="1" fill-rule="nonzero"/></g><g clip-path="url(#id71)"><path fill="#000000" d="M 271.746094 29.007812 C 271.0625 29.007812 270.503906 29.566406 270.503906 30.253906 C 270.503906 30.941406 271.0625 31.5 271.746094 31.5 C 272.433594 31.5 272.988281 30.941406 272.988281 30.253906 C 272.988281 29.566406 272.433594 29.007812 271.746094 29.007812 " fill-opacity="1" fill-rule="nonzero"/></g><g clip-path="url(#id72)"><path fill="#000000" d="M 278.820312 29.007812 C 278.136719 29.007812 277.578125 29.566406 277.578125 30.253906 C 277.578125 30.941406 278.136719 31.5 278.820312 31.5 C 279.507812 31.5 280.066406 30.941406 280.066406 30.253906 C 280.066406 29.566406 279.507812 29.007812 278.820312 29.007812 " fill-opacity="1" fill-rule="nonzero"/></g><g clip-path="url(#id73)"><path fill="#000000" d="M 285.898438 29.007812 C 285.210938 29.007812 284.65625 29.566406 284.65625 30.253906 C 284.65625 30.941406 285.210938 31.5 285.898438 31.5 C 286.582031 31.5 287.140625 30.941406 287.140625 30.253906 C 287.140625 29.566406 286.582031 29.007812 285.898438 29.007812 " fill-opacity="1" fill-rule="nonzero"/></g><g clip-path="url(#id74)"><path fill="#000000" d="M 292.972656 29.007812 C 292.289062 29.007812 291.730469 29.566406 291.730469 30.253906 C 291.730469 30.941406 292.289062 31.5 292.972656 31.5 C 293.660156 31.5 294.214844 30.941406 294.214844 30.253906 C 294.214844 29.566406 293.660156 29.007812 292.972656 29.007812 " fill-opacity="1" fill-rule="nonzero"/></g></svg>